<svg width="100" height="100" viewBox="0 0 100 100" fill="none" xmlns="http://www.w3.org/2000/svg">
    <g filter="url(#filter0_i_3_200)">
        <path
            d="M42.3515 9.73219C47.1365 4.34588 53.6425 5.20313 57.8056 9.73219L60.3444 12.6716C61.2234 13.628 62.4956 14.124 63.79 14.015L68.3037 12.6716C74.4559 11.3527 80.0469 15.9426 80.0469 23.0715V25.757C80.1772 27.223 81.4578 28.2168 82.7803 28.8627L86.8584 30.5666C92.7572 33.4475 94.2312 40.2834 89.9344 46.0206L88.7137 47.6319C87.6187 49.1122 87.8437 51.055 88.9334 52.5394L90.154 54.2481C94.5975 59.7169 92.0922 67.22 85.8156 69.8413L82.3053 71.3075C80.9828 71.8597 80.465 72.8075 80.2178 74.2191L79.9734 78.8088C79.119 85.1075 73.5247 87.9528 69.0359 87.3172L63.6894 85.8888C62.4053 85.7069 60.8084 86.1331 59.9541 87.4756L58.0253 90.1125C53.24 95.5081 46.7815 94.6109 43.5234 91.4553L39.9653 87.1463C39.0337 86.2441 37.8594 85.4738 36.4534 86.0044L31.0721 87.4756C26.6294 88.105 21.3981 84.6894 20.5607 80.2813L19.9393 73.9016C19.6871 72.5738 18.8115 71.4484 17.5864 70.8775L13.8115 69.5803C8.13477 66.935 6.23346 60.5306 9.49286 55.1828L11.6205 52.2406C12.4751 50.8384 12.4345 49.0669 11.5165 47.7053L9.92958 45.4591C5.43749 39.0628 8.5433 31.9131 15.1999 29.7698L16.668 29.2971C18.2884 28.7753 19.8537 27.4296 19.9883 25.7326L20.3153 21.6131C20.8459 14.9264 26.9475 11.0895 33.3653 13.0405L35.4422 13.6719C37.4441 14.4532 39.0128 13.7878 40.1053 12.5977L42.3515 9.73219Z"
            fill="url(#paint0_linear_3_200)" />
        <path
            d="M42.3515 9.73219C47.1365 4.34588 53.6425 5.20313 57.8056 9.73219L60.3444 12.6716C61.2234 13.628 62.4956 14.124 63.79 14.015L68.3037 12.6716C74.4559 11.3527 80.0469 15.9426 80.0469 23.0715V25.757C80.1772 27.223 81.4578 28.2168 82.7803 28.8627L86.8584 30.5666C92.7572 33.4475 94.2312 40.2834 89.9344 46.0206L88.7137 47.6319C87.6187 49.1122 87.8437 51.055 88.9334 52.5394L90.154 54.2481C94.5975 59.7169 92.0922 67.22 85.8156 69.8413L82.3053 71.3075C80.9828 71.8597 80.465 72.8075 80.2178 74.2191L79.9734 78.8088C79.119 85.1075 73.5247 87.9528 69.0359 87.3172L63.6894 85.8888C62.4053 85.7069 60.8084 86.1331 59.9541 87.4756L58.0253 90.1125C53.24 95.5081 46.7815 94.6109 43.5234 91.4553L39.9653 87.1463C39.0337 86.2441 37.8594 85.4738 36.4534 86.0044L31.0721 87.4756C26.6294 88.105 21.3981 84.6894 20.5607 80.2813L19.9393 73.9016C19.6871 72.5738 18.8115 71.4484 17.5864 70.8775L13.8115 69.5803C8.13477 66.935 6.23346 60.5306 9.49286 55.1828L11.6205 52.2406C12.4751 50.8384 12.4345 49.0669 11.5165 47.7053L9.92958 45.4591C5.43749 39.0628 8.5433 31.9131 15.1999 29.7698L16.668 29.2971C18.2884 28.7753 19.8537 27.4296 19.9883 25.7326L20.3153 21.6131C20.8459 14.9264 26.9475 11.0895 33.3653 13.0405L35.4422 13.6719C37.4441 14.4532 39.0128 13.7878 40.1053 12.5977L42.3515 9.73219Z"
            fill="url(#paint1_radial_3_200)" />
        <path
            d="M42.3515 9.73219C47.1365 4.34588 53.6425 5.20313 57.8056 9.73219L60.3444 12.6716C61.2234 13.628 62.4956 14.124 63.79 14.015L68.3037 12.6716C74.4559 11.3527 80.0469 15.9426 80.0469 23.0715V25.757C80.1772 27.223 81.4578 28.2168 82.7803 28.8627L86.8584 30.5666C92.7572 33.4475 94.2312 40.2834 89.9344 46.0206L88.7137 47.6319C87.6187 49.1122 87.8437 51.055 88.9334 52.5394L90.154 54.2481C94.5975 59.7169 92.0922 67.22 85.8156 69.8413L82.3053 71.3075C80.9828 71.8597 80.465 72.8075 80.2178 74.2191L79.9734 78.8088C79.119 85.1075 73.5247 87.9528 69.0359 87.3172L63.6894 85.8888C62.4053 85.7069 60.8084 86.1331 59.9541 87.4756L58.0253 90.1125C53.24 95.5081 46.7815 94.6109 43.5234 91.4553L39.9653 87.1463C39.0337 86.2441 37.8594 85.4738 36.4534 86.0044L31.0721 87.4756C26.6294 88.105 21.3981 84.6894 20.5607 80.2813L19.9393 73.9016C19.6871 72.5738 18.8115 71.4484 17.5864 70.8775L13.8115 69.5803C8.13477 66.935 6.23346 60.5306 9.49286 55.1828L11.6205 52.2406C12.4751 50.8384 12.4345 49.0669 11.5165 47.7053L9.92958 45.4591C5.43749 39.0628 8.5433 31.9131 15.1999 29.7698L16.668 29.2971C18.2884 28.7753 19.8537 27.4296 19.9883 25.7326L20.3153 21.6131C20.8459 14.9264 26.9475 11.0895 33.3653 13.0405L35.4422 13.6719C37.4441 14.4532 39.0128 13.7878 40.1053 12.5977L42.3515 9.73219Z"
            fill="url(#paint2_radial_3_200)" />
        <path
            d="M42.3515 9.73219C47.1365 4.34588 53.6425 5.20313 57.8056 9.73219L60.3444 12.6716C61.2234 13.628 62.4956 14.124 63.79 14.015L68.3037 12.6716C74.4559 11.3527 80.0469 15.9426 80.0469 23.0715V25.757C80.1772 27.223 81.4578 28.2168 82.7803 28.8627L86.8584 30.5666C92.7572 33.4475 94.2312 40.2834 89.9344 46.0206L88.7137 47.6319C87.6187 49.1122 87.8437 51.055 88.9334 52.5394L90.154 54.2481C94.5975 59.7169 92.0922 67.22 85.8156 69.8413L82.3053 71.3075C80.9828 71.8597 80.465 72.8075 80.2178 74.2191L79.9734 78.8088C79.119 85.1075 73.5247 87.9528 69.0359 87.3172L63.6894 85.8888C62.4053 85.7069 60.8084 86.1331 59.9541 87.4756L58.0253 90.1125C53.24 95.5081 46.7815 94.6109 43.5234 91.4553L39.9653 87.1463C39.0337 86.2441 37.8594 85.4738 36.4534 86.0044L31.0721 87.4756C26.6294 88.105 21.3981 84.6894 20.5607 80.2813L19.9393 73.9016C19.6871 72.5738 18.8115 71.4484 17.5864 70.8775L13.8115 69.5803C8.13477 66.935 6.23346 60.5306 9.49286 55.1828L11.6205 52.2406C12.4751 50.8384 12.4345 49.0669 11.5165 47.7053L9.92958 45.4591C5.43749 39.0628 8.5433 31.9131 15.1999 29.7698L16.668 29.2971C18.2884 28.7753 19.8537 27.4296 19.9883 25.7326L20.3153 21.6131C20.8459 14.9264 26.9475 11.0895 33.3653 13.0405L35.4422 13.6719C37.4441 14.4532 39.0128 13.7878 40.1053 12.5977L42.3515 9.73219Z"
            fill="url(#paint3_radial_3_200)" />
        <path
            d="M42.3515 9.73219C47.1365 4.34588 53.6425 5.20313 57.8056 9.73219L60.3444 12.6716C61.2234 13.628 62.4956 14.124 63.79 14.015L68.3037 12.6716C74.4559 11.3527 80.0469 15.9426 80.0469 23.0715V25.757C80.1772 27.223 81.4578 28.2168 82.7803 28.8627L86.8584 30.5666C92.7572 33.4475 94.2312 40.2834 89.9344 46.0206L88.7137 47.6319C87.6187 49.1122 87.8437 51.055 88.9334 52.5394L90.154 54.2481C94.5975 59.7169 92.0922 67.22 85.8156 69.8413L82.3053 71.3075C80.9828 71.8597 80.465 72.8075 80.2178 74.2191L79.9734 78.8088C79.119 85.1075 73.5247 87.9528 69.0359 87.3172L63.6894 85.8888C62.4053 85.7069 60.8084 86.1331 59.9541 87.4756L58.0253 90.1125C53.24 95.5081 46.7815 94.6109 43.5234 91.4553L39.9653 87.1463C39.0337 86.2441 37.8594 85.4738 36.4534 86.0044L31.0721 87.4756C26.6294 88.105 21.3981 84.6894 20.5607 80.2813L19.9393 73.9016C19.6871 72.5738 18.8115 71.4484 17.5864 70.8775L13.8115 69.5803C8.13477 66.935 6.23346 60.5306 9.49286 55.1828L11.6205 52.2406C12.4751 50.8384 12.4345 49.0669 11.5165 47.7053L9.92958 45.4591C5.43749 39.0628 8.5433 31.9131 15.1999 29.7698L16.668 29.2971C18.2884 28.7753 19.8537 27.4296 19.9883 25.7326L20.3153 21.6131C20.8459 14.9264 26.9475 11.0895 33.3653 13.0405L35.4422 13.6719C37.4441 14.4532 39.0128 13.7878 40.1053 12.5977L42.3515 9.73219Z"
            fill="url(#paint4_radial_3_200)" />
        <path
            d="M42.3515 9.73219C47.1365 4.34588 53.6425 5.20313 57.8056 9.73219L60.3444 12.6716C61.2234 13.628 62.4956 14.124 63.79 14.015L68.3037 12.6716C74.4559 11.3527 80.0469 15.9426 80.0469 23.0715V25.757C80.1772 27.223 81.4578 28.2168 82.7803 28.8627L86.8584 30.5666C92.7572 33.4475 94.2312 40.2834 89.9344 46.0206L88.7137 47.6319C87.6187 49.1122 87.8437 51.055 88.9334 52.5394L90.154 54.2481C94.5975 59.7169 92.0922 67.22 85.8156 69.8413L82.3053 71.3075C80.9828 71.8597 80.465 72.8075 80.2178 74.2191L79.9734 78.8088C79.119 85.1075 73.5247 87.9528 69.0359 87.3172L63.6894 85.8888C62.4053 85.7069 60.8084 86.1331 59.9541 87.4756L58.0253 90.1125C53.24 95.5081 46.7815 94.6109 43.5234 91.4553L39.9653 87.1463C39.0337 86.2441 37.8594 85.4738 36.4534 86.0044L31.0721 87.4756C26.6294 88.105 21.3981 84.6894 20.5607 80.2813L19.9393 73.9016C19.6871 72.5738 18.8115 71.4484 17.5864 70.8775L13.8115 69.5803C8.13477 66.935 6.23346 60.5306 9.49286 55.1828L11.6205 52.2406C12.4751 50.8384 12.4345 49.0669 11.5165 47.7053L9.92958 45.4591C5.43749 39.0628 8.5433 31.9131 15.1999 29.7698L16.668 29.2971C18.2884 28.7753 19.8537 27.4296 19.9883 25.7326L20.3153 21.6131C20.8459 14.9264 26.9475 11.0895 33.3653 13.0405L35.4422 13.6719C37.4441 14.4532 39.0128 13.7878 40.1053 12.5977L42.3515 9.73219Z"
            fill="url(#paint5_radial_3_200)" />
        <path
            d="M42.3515 9.73219C47.1365 4.34588 53.6425 5.20313 57.8056 9.73219L60.3444 12.6716C61.2234 13.628 62.4956 14.124 63.79 14.015L68.3037 12.6716C74.4559 11.3527 80.0469 15.9426 80.0469 23.0715V25.757C80.1772 27.223 81.4578 28.2168 82.7803 28.8627L86.8584 30.5666C92.7572 33.4475 94.2312 40.2834 89.9344 46.0206L88.7137 47.6319C87.6187 49.1122 87.8437 51.055 88.9334 52.5394L90.154 54.2481C94.5975 59.7169 92.0922 67.22 85.8156 69.8413L82.3053 71.3075C80.9828 71.8597 80.465 72.8075 80.2178 74.2191L79.9734 78.8088C79.119 85.1075 73.5247 87.9528 69.0359 87.3172L63.6894 85.8888C62.4053 85.7069 60.8084 86.1331 59.9541 87.4756L58.0253 90.1125C53.24 95.5081 46.7815 94.6109 43.5234 91.4553L39.9653 87.1463C39.0337 86.2441 37.8594 85.4738 36.4534 86.0044L31.0721 87.4756C26.6294 88.105 21.3981 84.6894 20.5607 80.2813L19.9393 73.9016C19.6871 72.5738 18.8115 71.4484 17.5864 70.8775L13.8115 69.5803C8.13477 66.935 6.23346 60.5306 9.49286 55.1828L11.6205 52.2406C12.4751 50.8384 12.4345 49.0669 11.5165 47.7053L9.92958 45.4591C5.43749 39.0628 8.5433 31.9131 15.1999 29.7698L16.668 29.2971C18.2884 28.7753 19.8537 27.4296 19.9883 25.7326L20.3153 21.6131C20.8459 14.9264 26.9475 11.0895 33.3653 13.0405L35.4422 13.6719C37.4441 14.4532 39.0128 13.7878 40.1053 12.5977L42.3515 9.73219Z"
            fill="url(#paint6_radial_3_200)" />
        <path
            d="M42.3515 9.73219C47.1365 4.34588 53.6425 5.20313 57.8056 9.73219L60.3444 12.6716C61.2234 13.628 62.4956 14.124 63.79 14.015L68.3037 12.6716C74.4559 11.3527 80.0469 15.9426 80.0469 23.0715V25.757C80.1772 27.223 81.4578 28.2168 82.7803 28.8627L86.8584 30.5666C92.7572 33.4475 94.2312 40.2834 89.9344 46.0206L88.7137 47.6319C87.6187 49.1122 87.8437 51.055 88.9334 52.5394L90.154 54.2481C94.5975 59.7169 92.0922 67.22 85.8156 69.8413L82.3053 71.3075C80.9828 71.8597 80.465 72.8075 80.2178 74.2191L79.9734 78.8088C79.119 85.1075 73.5247 87.9528 69.0359 87.3172L63.6894 85.8888C62.4053 85.7069 60.8084 86.1331 59.9541 87.4756L58.0253 90.1125C53.24 95.5081 46.7815 94.6109 43.5234 91.4553L39.9653 87.1463C39.0337 86.2441 37.8594 85.4738 36.4534 86.0044L31.0721 87.4756C26.6294 88.105 21.3981 84.6894 20.5607 80.2813L19.9393 73.9016C19.6871 72.5738 18.8115 71.4484 17.5864 70.8775L13.8115 69.5803C8.13477 66.935 6.23346 60.5306 9.49286 55.1828L11.6205 52.2406C12.4751 50.8384 12.4345 49.0669 11.5165 47.7053L9.92958 45.4591C5.43749 39.0628 8.5433 31.9131 15.1999 29.7698L16.668 29.2971C18.2884 28.7753 19.8537 27.4296 19.9883 25.7326L20.3153 21.6131C20.8459 14.9264 26.9475 11.0895 33.3653 13.0405L35.4422 13.6719C37.4441 14.4532 39.0128 13.7878 40.1053 12.5977L42.3515 9.73219Z"
            fill="url(#paint7_radial_3_200)" />
        <path
            d="M42.3515 9.73219C47.1365 4.34588 53.6425 5.20313 57.8056 9.73219L60.3444 12.6716C61.2234 13.628 62.4956 14.124 63.79 14.015L68.3037 12.6716C74.4559 11.3527 80.0469 15.9426 80.0469 23.0715V25.757C80.1772 27.223 81.4578 28.2168 82.7803 28.8627L86.8584 30.5666C92.7572 33.4475 94.2312 40.2834 89.9344 46.0206L88.7137 47.6319C87.6187 49.1122 87.8437 51.055 88.9334 52.5394L90.154 54.2481C94.5975 59.7169 92.0922 67.22 85.8156 69.8413L82.3053 71.3075C80.9828 71.8597 80.465 72.8075 80.2178 74.2191L79.9734 78.8088C79.119 85.1075 73.5247 87.9528 69.0359 87.3172L63.6894 85.8888C62.4053 85.7069 60.8084 86.1331 59.9541 87.4756L58.0253 90.1125C53.24 95.5081 46.7815 94.6109 43.5234 91.4553L39.9653 87.1463C39.0337 86.2441 37.8594 85.4738 36.4534 86.0044L31.0721 87.4756C26.6294 88.105 21.3981 84.6894 20.5607 80.2813L19.9393 73.9016C19.6871 72.5738 18.8115 71.4484 17.5864 70.8775L13.8115 69.5803C8.13477 66.935 6.23346 60.5306 9.49286 55.1828L11.6205 52.2406C12.4751 50.8384 12.4345 49.0669 11.5165 47.7053L9.92958 45.4591C5.43749 39.0628 8.5433 31.9131 15.1999 29.7698L16.668 29.2971C18.2884 28.7753 19.8537 27.4296 19.9883 25.7326L20.3153 21.6131C20.8459 14.9264 26.9475 11.0895 33.3653 13.0405L35.4422 13.6719C37.4441 14.4532 39.0128 13.7878 40.1053 12.5977L42.3515 9.73219Z"
            fill="url(#paint8_radial_3_200)" />
        <path
            d="M42.3515 9.73219C47.1365 4.34588 53.6425 5.20313 57.8056 9.73219L60.3444 12.6716C61.2234 13.628 62.4956 14.124 63.79 14.015L68.3037 12.6716C74.4559 11.3527 80.0469 15.9426 80.0469 23.0715V25.757C80.1772 27.223 81.4578 28.2168 82.7803 28.8627L86.8584 30.5666C92.7572 33.4475 94.2312 40.2834 89.9344 46.0206L88.7137 47.6319C87.6187 49.1122 87.8437 51.055 88.9334 52.5394L90.154 54.2481C94.5975 59.7169 92.0922 67.22 85.8156 69.8413L82.3053 71.3075C80.9828 71.8597 80.465 72.8075 80.2178 74.2191L79.9734 78.8088C79.119 85.1075 73.5247 87.9528 69.0359 87.3172L63.6894 85.8888C62.4053 85.7069 60.8084 86.1331 59.9541 87.4756L58.0253 90.1125C53.24 95.5081 46.7815 94.6109 43.5234 91.4553L39.9653 87.1463C39.0337 86.2441 37.8594 85.4738 36.4534 86.0044L31.0721 87.4756C26.6294 88.105 21.3981 84.6894 20.5607 80.2813L19.9393 73.9016C19.6871 72.5738 18.8115 71.4484 17.5864 70.8775L13.8115 69.5803C8.13477 66.935 6.23346 60.5306 9.49286 55.1828L11.6205 52.2406C12.4751 50.8384 12.4345 49.0669 11.5165 47.7053L9.92958 45.4591C5.43749 39.0628 8.5433 31.9131 15.1999 29.7698L16.668 29.2971C18.2884 28.7753 19.8537 27.4296 19.9883 25.7326L20.3153 21.6131C20.8459 14.9264 26.9475 11.0895 33.3653 13.0405L35.4422 13.6719C37.4441 14.4532 39.0128 13.7878 40.1053 12.5977L42.3515 9.73219Z"
            fill="url(#paint9_radial_3_200)" />
    </g>
    <g filter="url(#filter1_d_3_200)">
        <path
            d="M50.1135 83.4919C68.6547 83.4919 83.685 68.4612 83.685 49.92C83.685 31.3787 68.6547 16.3483 50.1135 16.3483C31.5722 16.3483 16.5417 31.3787 16.5417 49.92C16.5417 68.4612 31.5722 83.4919 50.1135 83.4919Z"
            fill="url(#paint10_radial_3_200)" />
    </g>
    <g opacity="0.44" filter="url(#filter2_f_3_200)">
        <path
            d="M29.457 61.0619C34.5656 61.0619 38.7069 56.9203 38.7069 51.8119C38.7069 46.7032 34.5656 42.5619 29.457 42.5619C24.3484 42.5619 20.207 46.7032 20.207 51.8119C20.207 56.9203 24.3484 61.0619 29.457 61.0619Z"
            fill="url(#paint11_radial_3_200)" />
    </g>
    <g opacity="0.44" filter="url(#filter3_f_3_200)">
        <path
            d="M70.7697 61.0619C75.8785 61.0619 80.0197 56.9203 80.0197 51.8119C80.0197 46.7032 75.8785 42.5619 70.7697 42.5619C65.6613 42.5619 61.5197 46.7032 61.5197 51.8119C61.5197 56.9203 65.6613 61.0619 70.7697 61.0619Z"
            fill="url(#paint12_radial_3_200)" />
    </g>
    <g filter="url(#filter4_f_3_200)">
        <path fill-rule="evenodd" clip-rule="evenodd"
            d="M34.5969 56.5331C35.5122 55.6178 36.9962 55.6178 37.9112 56.5331C44.6525 63.2741 55.5747 63.2741 62.3156 56.5331C63.2309 55.6178 64.715 55.6178 65.63 56.5331C66.5453 57.4484 66.5453 58.9325 65.63 59.8478C57.0587 68.4194 43.1684 68.4194 34.5969 59.8478C33.6815 58.9325 33.6815 57.4484 34.5969 56.5331Z"
            fill="#D6961E" />
    </g>
    <g filter="url(#filter5_i_3_200)">
        <path fill-rule="evenodd" clip-rule="evenodd"
            d="M35.3934 55.3731C36.3087 54.4578 37.7928 54.4578 38.7081 55.3731C45.449 62.1141 56.3712 62.1141 63.1122 55.3731C64.0275 54.4578 65.5115 54.4578 66.4268 55.3731C67.3422 56.2884 67.3422 57.7725 66.4268 58.6878C57.8553 67.2594 43.965 67.2594 35.3934 58.6878C34.4781 57.7725 34.4781 56.2884 35.3934 55.3731Z"
            fill="url(#paint13_linear_3_200)" />
        <path fill-rule="evenodd" clip-rule="evenodd"
            d="M35.3934 55.3731C36.3087 54.4578 37.7928 54.4578 38.7081 55.3731C45.449 62.1141 56.3712 62.1141 63.1122 55.3731C64.0275 54.4578 65.5115 54.4578 66.4268 55.3731C67.3422 56.2884 67.3422 57.7725 66.4268 58.6878C57.8553 67.2594 43.965 67.2594 35.3934 58.6878C34.4781 57.7725 34.4781 56.2884 35.3934 55.3731Z"
            fill="url(#paint14_linear_3_200)" />
    </g>
    <g filter="url(#filter6_f_3_200)">
        <path d="M37.1596 57.1044C41.6612 61.3188 53.4421 67.2188 64.5528 57.1044"
            stroke="url(#paint15_linear_3_200)" stroke-width="1.70672" stroke-linecap="round" />
        <path d="M37.1596 57.1044C41.6612 61.3188 53.4421 67.2188 64.5528 57.1044"
            stroke="url(#paint16_linear_3_200)" stroke-width="1.70672" stroke-linecap="round" />
    </g>
    <g filter="url(#filter7_f_3_200)">
        <path fill-rule="evenodd" clip-rule="evenodd"
            d="M37.1022 40.1244C35.4141 40.1244 33.9884 41.1506 33.4163 42.6088C32.9813 43.7175 31.7297 44.2638 30.6208 43.8284C29.5119 43.3934 28.9658 42.1419 29.4009 41.0331C30.6117 37.9475 33.6144 35.8109 37.1022 35.8109C40.7609 35.8109 43.8706 38.1859 44.9594 41.4913C45.3322 42.6225 44.7172 43.8416 43.5856 44.2144C42.4544 44.5872 41.2353 43.9719 40.8625 42.8406C40.3409 41.2575 38.8497 40.1244 37.1022 40.1244Z"
            fill="#C68D0F" />
    </g>
    <path fill-rule="evenodd" clip-rule="evenodd"
        d="M37.5197 39.5619C35.6853 39.5619 34.1359 40.6772 33.5141 42.2619C33.0413 43.4666 31.6809 44.0603 30.4761 43.5875C29.2712 43.1147 28.6777 41.7544 29.1505 40.5494C30.4662 37.1966 33.7294 34.8744 37.5197 34.8744C41.4956 34.8744 44.875 37.4553 46.0584 41.0472C46.4634 42.2769 45.795 43.6016 44.5656 44.0066C43.3363 44.4116 42.0113 43.7435 41.6063 42.5138C41.0394 40.7931 39.4188 39.5619 37.5197 39.5619Z"
        fill="url(#paint17_linear_3_200)" />
    <g filter="url(#filter8_f_3_200)">
        <path fill-rule="evenodd" clip-rule="evenodd"
            d="M64.1628 40.1244C62.4747 40.1244 61.0488 41.1506 60.4769 42.6088C60.0416 43.7175 58.79 44.2638 57.6813 43.8284C56.5725 43.3934 56.0263 42.1419 56.4616 41.0331C57.6722 37.9475 60.6747 35.8109 64.1628 35.8109C67.8213 35.8109 70.9313 38.1859 72.02 41.4913C72.3925 42.6225 71.7775 43.8416 70.6463 44.2144C69.515 44.5872 68.2956 43.9719 67.9231 42.8406C67.4016 41.2575 65.9103 40.1244 64.1628 40.1244Z"
            fill="#C68D0F" />
    </g>
    <g filter="url(#filter9_i_3_200)">
        <path fill-rule="evenodd" clip-rule="evenodd"
            d="M64.4572 39.5619C62.6228 39.5619 61.0735 40.6772 60.4516 42.2619C59.9788 43.4666 58.6185 44.0603 57.4138 43.5875C56.2088 43.1147 55.615 41.7544 56.0878 40.5494C57.4038 37.1966 60.6669 34.8744 64.4572 34.8744C68.4331 34.8744 71.8125 37.4553 72.996 41.0472C73.401 42.2769 72.7325 43.6016 71.5031 44.0066C70.2738 44.4116 68.9488 43.7435 68.5438 42.5138C67.9769 40.7931 66.3563 39.5619 64.4572 39.5619Z"
            fill="#422E51" />
    </g>
    <g filter="url(#filter10_f_3_200)">
        <path d="M44.2578 42.1413C43.9097 40.0516 41.7269 36.0578 35.7825 36.801"
            stroke="url(#paint18_linear_3_200)" stroke-width="1.42226" stroke-linecap="round" />
    </g>
    <g opacity="0.5" filter="url(#filter11_f_3_200)">
        <path
            d="M58.6006 40.9775C59.175 39.6178 61.1631 36.9328 64.5181 37.0707C67.8734 37.2085 70.5316 39.5219 71.2403 40.9775"
            stroke="url(#paint19_linear_3_200)" stroke-width="1.42226" stroke-linecap="round" />
    </g>
    <g filter="url(#filter12_f_3_200)">
        <path
            d="M26.5449 47.3496C26.957 49.057 28.141 52.3003 31.9216 53.2362C32.4852 53.3758 33.0391 53.4771 33.5946 53.5536C33.6217 53.5574 33.6487 53.5606 33.6759 53.563C41.7861 54.3232 47.1476 47.4676 47.4092 40.0091C47.4311 39.391 47.907 38.8683 48.5254 38.8602C48.8547 38.856 49.1963 38.8564 49.5478 38.8626C50.1638 38.8733 50.6365 39.3946 50.6584 40.0103C50.9232 47.4683 56.2796 54.3234 64.3914 53.563C64.4185 53.5606 64.4457 53.5574 64.4726 53.5536C65.0282 53.4771 65.5822 53.3758 66.1457 53.2362C71.1541 51.9962 74.2612 48.7043 75.8501 45.1736C75.6036 43.6799 75.2527 42.2327 74.7973 40.8439C74.3219 44.9948 72.0993 45.5189 66.1457 46.9928C65.6557 47.1142 63.9811 48.2816 63.4815 48.3505C57.8299 48.8803 56.2405 45.1736 53.0369 39.2548L53.0366 39.1961C53.0366 39.1687 53.0367 39.1416 53.0373 39.1145C53.2447 39.1416 53.4533 39.1712 53.6624 39.2034L54.1778 35.8587C54.7735 35.0911 55.5696 34.4872 56.488 34.1258C56.7039 34.0325 57.2086 33.8207 58.7692 33.5297C60.3793 33.2295 64.6779 33.2329 67.3014 33.235L67.8869 33.2353C69.2721 33.2353 70.5302 33.6376 71.3427 34.0053C70.679 33.0914 69.9483 32.2283 69.1506 31.4219C68.7364 31.377 68.3121 31.3515 67.8869 31.3515L67.2943 31.3511C65.9869 31.3501 64.2386 31.3487 62.6125 31.3856C61.0372 31.4214 58.7034 31.5218 57.7225 31.7047C56.1007 32.007 55.4464 32.2493 55.0677 32.4112C54.0262 32.8262 53.1317 33.466 52.4256 34.2726C51.9614 34.803 51.3038 35.157 50.5996 35.1258C49.4691 35.0757 48.406 35.0815 47.4543 35.12C46.7537 35.1484 46.1003 34.7957 45.638 34.2685C44.9325 33.4638 44.0394 32.8255 42.9997 32.4112C42.6208 32.2493 41.9666 32.007 40.3449 31.7047C39.364 31.5218 37.0301 31.4214 35.4547 31.3856C33.8287 31.3487 32.0803 31.3501 30.773 31.3511L30.7488 31.3512C30.1244 31.9768 29.5406 32.637 28.9973 33.3289C29.3752 33.2703 29.7723 33.2353 30.1804 33.2353L30.7658 33.235C33.3894 33.2329 37.6879 33.2295 39.298 33.5297C40.8588 33.8207 41.3635 34.0325 41.5792 34.1258C42.4639 34.4739 43.235 35.047 43.8227 35.7745L44.4666 39.1928C44.6202 39.164 44.8091 39.1333 45.0299 39.1024C45.0303 39.1337 45.0307 39.1648 45.0307 39.1961L45.0303 39.2548C45.3688 47.1876 39.3274 51.9689 33.6759 51.4391C33.1763 51.3702 32.6885 51.2805 32.1985 51.1592C27.8684 50.0871 28.183 46.9062 26.957 43.8763C26.7395 44.9891 26.6435 46.1862 26.5449 47.3496Z"
            fill="url(#paint20_linear_3_200)" />
    </g>
    <path fill-rule="evenodd" clip-rule="evenodd"
        d="M43.9659 30.5273C45.0058 30.9416 45.8989 31.5799 46.6044 32.3846C47.0667 32.9118 47.7201 33.2645 48.4207 33.2361C49.3724 33.1976 50.4355 33.1918 51.566 33.2419C52.2702 33.2731 52.9278 32.9191 53.392 32.3888C54.0981 31.5821 54.9926 30.9423 56.034 30.5273C56.4128 30.3654 57.0671 30.1232 58.6887 29.8208C59.6696 29.6379 62.0036 29.5375 63.5789 29.5017C65.2048 29.4648 66.9533 29.4662 68.2607 29.4672L68.8531 29.4676C71.0938 29.4676 73.3044 30.1755 74.1811 30.7039C76.1531 31.7047 77.9782 33.618 78.1092 36.9105C78.1144 36.9597 78.118 37.0093 78.1195 37.0593C78.2749 42.1238 75.13 49.3672 67.1121 51.3523C66.5484 51.4919 65.9946 51.5932 65.439 51.6697C65.4121 51.6735 65.3849 51.6767 65.3578 51.6791C57.246 52.4395 51.8896 45.5844 51.6248 38.1263C51.6029 37.5106 51.1302 36.9894 50.5142 36.9787C50.1627 36.9725 49.8211 36.9721 49.4918 36.9763C48.8734 36.9843 48.3975 37.5071 48.3756 38.1253C48.114 45.5837 42.7523 52.4393 34.6423 51.6791C34.6151 51.6767 34.588 51.6735 34.561 51.6697C34.0055 51.5932 33.4515 51.4919 32.888 51.3523C24.8701 49.3672 21.7251 42.1238 21.8805 37.0593C21.882 37.0093 21.8855 36.9597 21.8909 36.9105C22.0218 33.618 23.8468 31.7047 25.819 30.7039C26.6956 30.1755 28.9062 29.4676 31.1468 29.4676L31.7394 29.4672C33.0467 29.4662 34.7951 29.4648 36.4211 29.5017C37.9965 29.5375 40.3302 29.6379 41.3111 29.8208C42.933 30.1232 43.5872 30.3654 43.9659 30.5273ZM24.5499 35.2344C25.0206 34.0879 25.8944 33.1509 27.0708 32.4419C27.7323 32.0432 29.3301 31.3515 31.1468 31.3515L31.7322 31.3511C34.3558 31.349 38.6543 31.3456 40.2645 31.6458C41.8252 31.9368 42.3299 32.1487 42.5456 32.2419C43.4301 32.59 44.2014 33.1631 44.7891 33.8906L45.4329 37.309C45.5866 37.2801 45.7755 37.2493 45.9961 37.2186C45.9967 37.2497 45.9971 37.2809 45.9971 37.3121L45.9967 37.3709C46.3352 45.3037 40.2938 50.085 34.6423 49.5552C34.1427 49.4863 33.6549 49.3966 33.1649 49.2753C27.2113 47.8014 24.7118 43.1109 24.2363 38.96C24.163 38.3207 24.1378 37.6943 24.1554 37.0943L24.1559 37.0775L24.1596 37.0776L24.1603 37.0593C24.1866 36.4026 24.3203 35.7936 24.5499 35.2344ZM54.0035 37.2306C54.0031 37.2577 54.003 37.2849 54.003 37.3121L54.0033 37.3709C53.6648 45.3037 59.7062 50.085 65.3578 49.5552C65.8574 49.4863 66.3451 49.3966 66.8351 49.2753C72.7887 47.8014 75.2883 43.1109 75.7637 38.96C75.837 38.3207 75.8623 37.6943 75.8448 37.0943L75.8442 37.0775L75.8404 37.0776L75.8397 37.0593C75.8135 36.4026 75.6797 35.7936 75.4501 35.2344C74.9793 34.0879 74.1056 33.1509 72.9293 32.4419C72.2677 32.0432 70.6699 31.3515 68.8531 31.3515L68.2678 31.3511C65.6442 31.349 61.3457 31.3456 59.7356 31.6458C58.1748 31.9368 57.6701 32.1487 57.4544 32.2419C56.536 32.6033 55.7397 33.2072 55.1442 33.9748L54.6288 37.3196C54.4197 37.2874 54.2111 37.2577 54.0035 37.2306Z"
        fill="url(#paint21_radial_3_200)" />
    <path fill-rule="evenodd" clip-rule="evenodd"
        d="M43.9659 30.5273C45.0058 30.9416 45.8989 31.5799 46.6044 32.3846C47.0667 32.9118 47.7201 33.2645 48.4207 33.2361C49.3724 33.1976 50.4355 33.1918 51.566 33.2419C52.2702 33.2731 52.9278 32.9191 53.392 32.3888C54.0981 31.5821 54.9926 30.9423 56.034 30.5273C56.4128 30.3654 57.0671 30.1232 58.6887 29.8208C59.6696 29.6379 62.0036 29.5375 63.5789 29.5017C65.2048 29.4648 66.9533 29.4662 68.2607 29.4672L68.8531 29.4676C71.0938 29.4676 73.3044 30.1755 74.1811 30.7039C76.1531 31.7047 77.9782 33.618 78.1092 36.9105C78.1144 36.9597 78.118 37.0093 78.1195 37.0593C78.2749 42.1238 75.13 49.3672 67.1121 51.3523C66.5484 51.4919 65.9946 51.5932 65.439 51.6697C65.4121 51.6735 65.3849 51.6767 65.3578 51.6791C57.246 52.4395 51.8896 45.5844 51.6248 38.1263C51.6029 37.5106 51.1302 36.9894 50.5142 36.9787C50.1627 36.9725 49.8211 36.9721 49.4918 36.9763C48.8734 36.9843 48.3975 37.5071 48.3756 38.1253C48.114 45.5837 42.7523 52.4393 34.6423 51.6791C34.6151 51.6767 34.588 51.6735 34.561 51.6697C34.0055 51.5932 33.4515 51.4919 32.888 51.3523C24.8701 49.3672 21.7251 42.1238 21.8805 37.0593C21.882 37.0093 21.8855 36.9597 21.8909 36.9105C22.0218 33.618 23.8468 31.7047 25.819 30.7039C26.6956 30.1755 28.9062 29.4676 31.1468 29.4676L31.7394 29.4672C33.0467 29.4662 34.7951 29.4648 36.4211 29.5017C37.9965 29.5375 40.3302 29.6379 41.3111 29.8208C42.933 30.1232 43.5872 30.3654 43.9659 30.5273ZM24.5499 35.2344C25.0206 34.0879 25.8944 33.1509 27.0708 32.4419C27.7323 32.0432 29.3301 31.3515 31.1468 31.3515L31.7322 31.3511C34.3558 31.349 38.6543 31.3456 40.2645 31.6458C41.8252 31.9368 42.3299 32.1487 42.5456 32.2419C43.4301 32.59 44.2014 33.1631 44.7891 33.8906L45.4329 37.309C45.5866 37.2801 45.7755 37.2493 45.9961 37.2186C45.9967 37.2497 45.9971 37.2809 45.9971 37.3121L45.9967 37.3709C46.3352 45.3037 40.2938 50.085 34.6423 49.5552C34.1427 49.4863 33.6549 49.3966 33.1649 49.2753C27.2113 47.8014 24.7118 43.1109 24.2363 38.96C24.163 38.3207 24.1378 37.6943 24.1554 37.0943L24.1559 37.0775L24.1596 37.0776L24.1603 37.0593C24.1866 36.4026 24.3203 35.7936 24.5499 35.2344ZM54.0035 37.2306C54.0031 37.2577 54.003 37.2849 54.003 37.3121L54.0033 37.3709C53.6648 45.3037 59.7062 50.085 65.3578 49.5552C65.8574 49.4863 66.3451 49.3966 66.8351 49.2753C72.7887 47.8014 75.2883 43.1109 75.7637 38.96C75.837 38.3207 75.8623 37.6943 75.8448 37.0943L75.8442 37.0775L75.8404 37.0776L75.8397 37.0593C75.8135 36.4026 75.6797 35.7936 75.4501 35.2344C74.9793 34.0879 74.1056 33.1509 72.9293 32.4419C72.2677 32.0432 70.6699 31.3515 68.8531 31.3515L68.2678 31.3511C65.6442 31.349 61.3457 31.3456 59.7356 31.6458C58.1748 31.9368 57.6701 32.1487 57.4544 32.2419C56.536 32.6033 55.7397 33.2072 55.1442 33.9748L54.6288 37.3196C54.4197 37.2874 54.2111 37.2577 54.0035 37.2306Z"
        fill="url(#paint22_radial_3_200)" />
    <path fill-rule="evenodd" clip-rule="evenodd"
        d="M43.9659 30.5273C45.0058 30.9416 45.8989 31.5799 46.6044 32.3846C47.0667 32.9118 47.7201 33.2645 48.4207 33.2361C49.3724 33.1976 50.4355 33.1918 51.566 33.2419C52.2702 33.2731 52.9278 32.9191 53.392 32.3888C54.0981 31.5821 54.9926 30.9423 56.034 30.5273C56.4128 30.3654 57.0671 30.1232 58.6887 29.8208C59.6696 29.6379 62.0036 29.5375 63.5789 29.5017C65.2048 29.4648 66.9533 29.4662 68.2607 29.4672L68.8531 29.4676C71.0938 29.4676 73.3044 30.1755 74.1811 30.7039C76.1531 31.7047 77.9782 33.618 78.1092 36.9105C78.1144 36.9597 78.118 37.0093 78.1195 37.0593C78.2749 42.1238 75.13 49.3672 67.1121 51.3523C66.5484 51.4919 65.9946 51.5932 65.439 51.6697C65.4121 51.6735 65.3849 51.6767 65.3578 51.6791C57.246 52.4395 51.8896 45.5844 51.6248 38.1263C51.6029 37.5106 51.1302 36.9894 50.5142 36.9787C50.1627 36.9725 49.8211 36.9721 49.4918 36.9763C48.8734 36.9843 48.3975 37.5071 48.3756 38.1253C48.114 45.5837 42.7523 52.4393 34.6423 51.6791C34.6151 51.6767 34.588 51.6735 34.561 51.6697C34.0055 51.5932 33.4515 51.4919 32.888 51.3523C24.8701 49.3672 21.7251 42.1238 21.8805 37.0593C21.882 37.0093 21.8855 36.9597 21.8909 36.9105C22.0218 33.618 23.8468 31.7047 25.819 30.7039C26.6956 30.1755 28.9062 29.4676 31.1468 29.4676L31.7394 29.4672C33.0467 29.4662 34.7951 29.4648 36.4211 29.5017C37.9965 29.5375 40.3302 29.6379 41.3111 29.8208C42.933 30.1232 43.5872 30.3654 43.9659 30.5273ZM24.5499 35.2344C25.0206 34.0879 25.8944 33.1509 27.0708 32.4419C27.7323 32.0432 29.3301 31.3515 31.1468 31.3515L31.7322 31.3511C34.3558 31.349 38.6543 31.3456 40.2645 31.6458C41.8252 31.9368 42.3299 32.1487 42.5456 32.2419C43.4301 32.59 44.2014 33.1631 44.7891 33.8906L45.4329 37.309C45.5866 37.2801 45.7755 37.2493 45.9961 37.2186C45.9967 37.2497 45.9971 37.2809 45.9971 37.3121L45.9967 37.3709C46.3352 45.3037 40.2938 50.085 34.6423 49.5552C34.1427 49.4863 33.6549 49.3966 33.1649 49.2753C27.2113 47.8014 24.7118 43.1109 24.2363 38.96C24.163 38.3207 24.1378 37.6943 24.1554 37.0943L24.1559 37.0775L24.1596 37.0776L24.1603 37.0593C24.1866 36.4026 24.3203 35.7936 24.5499 35.2344ZM54.0035 37.2306C54.0031 37.2577 54.003 37.2849 54.003 37.3121L54.0033 37.3709C53.6648 45.3037 59.7062 50.085 65.3578 49.5552C65.8574 49.4863 66.3451 49.3966 66.8351 49.2753C72.7887 47.8014 75.2883 43.1109 75.7637 38.96C75.837 38.3207 75.8623 37.6943 75.8448 37.0943L75.8442 37.0775L75.8404 37.0776L75.8397 37.0593C75.8135 36.4026 75.6797 35.7936 75.4501 35.2344C74.9793 34.0879 74.1056 33.1509 72.9293 32.4419C72.2677 32.0432 70.6699 31.3515 68.8531 31.3515L68.2678 31.3511C65.6442 31.349 61.3457 31.3456 59.7356 31.6458C58.1748 31.9368 57.6701 32.1487 57.4544 32.2419C56.536 32.6033 55.7397 33.2072 55.1442 33.9748L54.6288 37.3196C54.4197 37.2874 54.2111 37.2577 54.0035 37.2306Z"
        fill="url(#paint23_radial_3_200)" />
    <path
        d="M27.0709 32.4418C27.7323 32.0432 29.3302 31.3514 31.1469 31.3514C31.3302 31.3514 31.5261 31.3513 31.7323 31.3511C34.3558 31.349 38.6544 31.3456 40.2645 31.6458C41.8252 31.9368 42.3299 32.1486 42.5458 32.2418C44.5672 33.0374 45.9971 35.0082 45.9971 37.3121L45.9967 37.3709C46.3352 45.3037 40.294 50.085 34.6423 49.5552C34.1427 49.4863 33.6549 49.3966 33.1649 49.2753C26.2855 47.5721 24.018 41.5742 24.1559 37.0766L24.1597 37.0776C24.2338 35.0654 25.3155 33.4998 27.0709 32.4418Z"
        fill="url(#paint24_radial_3_200)" />
    <path
        d="M27.0709 32.4418C27.7323 32.0432 29.3302 31.3514 31.1469 31.3514C31.3302 31.3514 31.5261 31.3513 31.7323 31.3511C34.3558 31.349 38.6544 31.3456 40.2645 31.6458C41.8252 31.9368 42.3299 32.1486 42.5458 32.2418C44.5672 33.0374 45.9971 35.0082 45.9971 37.3121L45.9967 37.3709C46.3352 45.3037 40.294 50.085 34.6423 49.5552C34.1427 49.4863 33.6549 49.3966 33.1649 49.2753C26.2855 47.5721 24.018 41.5742 24.1559 37.0766L24.1597 37.0776C24.2338 35.0654 25.3155 33.4998 27.0709 32.4418Z"
        fill="url(#paint25_radial_3_200)" />
    <path
        d="M27.0709 32.4418C27.7323 32.0432 29.3302 31.3514 31.1469 31.3514C31.3302 31.3514 31.5261 31.3513 31.7323 31.3511C34.3558 31.349 38.6544 31.3456 40.2645 31.6458C41.8252 31.9368 42.3299 32.1486 42.5458 32.2418C44.5672 33.0374 45.9971 35.0082 45.9971 37.3121L45.9967 37.3709C46.3352 45.3037 40.294 50.085 34.6423 49.5552C34.1427 49.4863 33.6549 49.3966 33.1649 49.2753C26.2855 47.5721 24.018 41.5742 24.1559 37.0766L24.1597 37.0776C24.2338 35.0654 25.3155 33.4998 27.0709 32.4418Z"
        fill="url(#paint26_radial_3_200)" />
    <path
        d="M27.0709 32.4418C27.7323 32.0432 29.3302 31.3514 31.1469 31.3514C31.3302 31.3514 31.5261 31.3513 31.7323 31.3511C34.3558 31.349 38.6544 31.3456 40.2645 31.6458C41.8252 31.9368 42.3299 32.1486 42.5458 32.2418C44.5672 33.0374 45.9971 35.0082 45.9971 37.3121L45.9967 37.3709C46.3352 45.3037 40.294 50.085 34.6423 49.5552C34.1427 49.4863 33.6549 49.3966 33.1649 49.2753C26.2855 47.5721 24.018 41.5742 24.1559 37.0766L24.1597 37.0776C24.2338 35.0654 25.3155 33.4998 27.0709 32.4418Z"
        fill="url(#paint27_radial_3_200)" />
    <path
        d="M42.3882 40.2615C43.7868 39.5829 44.2288 37.6068 43.3753 35.8479C42.5218 34.0889 40.6961 33.2132 39.2975 33.8918C37.8988 34.5704 37.4569 36.5465 38.3104 38.3055C39.1638 40.0644 40.9895 40.9402 42.3882 40.2615Z"
        fill="url(#paint28_linear_3_200)" />
    <path
        d="M72.9293 32.4418C72.2677 32.0432 70.67 31.3514 68.8532 31.3514C68.6699 31.3514 68.4739 31.3513 68.2678 31.3511C65.6442 31.349 61.3457 31.3456 59.7356 31.6458C58.1748 31.9368 57.6701 32.1486 57.4544 32.2418C55.4328 33.0374 54.003 35.0082 54.003 37.3121L54.0033 37.3709C53.6648 45.3037 59.7062 50.085 65.3578 49.5552C65.8574 49.4863 66.3452 49.3966 66.8351 49.2753C73.7147 47.5721 75.9821 41.5742 75.8442 37.0766L75.8404 37.0776C75.7662 35.0654 74.6847 33.4998 72.9293 32.4418Z"
        fill="url(#paint29_radial_3_200)" />
    <path
        d="M72.9293 32.4418C72.2677 32.0432 70.67 31.3514 68.8532 31.3514C68.6699 31.3514 68.4739 31.3513 68.2678 31.3511C65.6442 31.349 61.3457 31.3456 59.7356 31.6458C58.1748 31.9368 57.6701 32.1486 57.4544 32.2418C55.4328 33.0374 54.003 35.0082 54.003 37.3121L54.0033 37.3709C53.6648 45.3037 59.7062 50.085 65.3578 49.5552C65.8574 49.4863 66.3452 49.3966 66.8351 49.2753C73.7147 47.5721 75.9821 41.5742 75.8442 37.0766L75.8404 37.0776C75.7662 35.0654 74.6847 33.4998 72.9293 32.4418Z"
        fill="url(#paint30_radial_3_200)" />
    <path
        d="M72.9293 32.4418C72.2677 32.0432 70.67 31.3514 68.8532 31.3514C68.6699 31.3514 68.4739 31.3513 68.2678 31.3511C65.6442 31.349 61.3457 31.3456 59.7356 31.6458C58.1748 31.9368 57.6701 32.1486 57.4544 32.2418C55.4328 33.0374 54.003 35.0082 54.003 37.3121L54.0033 37.3709C53.6648 45.3037 59.7062 50.085 65.3578 49.5552C65.8574 49.4863 66.3452 49.3966 66.8351 49.2753C73.7147 47.5721 75.9821 41.5742 75.8442 37.0766L75.8404 37.0776C75.7662 35.0654 74.6847 33.4998 72.9293 32.4418Z"
        fill="url(#paint31_radial_3_200)" />
    <path
        d="M72.9293 32.4418C72.2677 32.0432 70.67 31.3514 68.8532 31.3514C68.6699 31.3514 68.4739 31.3513 68.2678 31.3511C65.6442 31.349 61.3457 31.3456 59.7356 31.6458C58.1748 31.9368 57.6701 32.1486 57.4544 32.2418C55.4328 33.0374 54.003 35.0082 54.003 37.3121L54.0033 37.3709C53.6648 45.3037 59.7062 50.085 65.3578 49.5552C65.8574 49.4863 66.3452 49.3966 66.8351 49.2753C73.7147 47.5721 75.9821 41.5742 75.8442 37.0766L75.8404 37.0776C75.7662 35.0654 74.6847 33.4998 72.9293 32.4418Z"
        fill="url(#paint32_radial_3_200)" />
    <path
        d="M72.5945 40.2615C73.9932 39.5829 74.4351 37.6068 73.5816 35.8479C72.7282 34.0889 70.9025 33.2132 69.5038 33.8918C68.1052 34.5704 67.6632 36.5465 68.5167 38.3055C69.3702 40.0644 71.1959 40.9402 72.5945 40.2615Z"
        fill="url(#paint33_linear_3_200)" />
    <defs>
        <filter id="filter0_i_3_200" x="7.81841" y="5.29587" width="85.301" height="88.6969"
            filterUnits="userSpaceOnUse" color-interpolation-filters="sRGB">
            <feFlood flood-opacity="0" result="BackgroundImageFix" />
            <feBlend mode="normal" in="SourceGraphic" in2="BackgroundImageFix" result="shape" />
            <feColorMatrix in="SourceAlpha" type="matrix"
                values="0 0 0 0 0 0 0 0 0 0 0 0 0 0 0 0 0 0 127 0" result="hardAlpha" />
            <feOffset dx="0.711132" dy="-0.711132" />
            <feGaussianBlur stdDeviation="0.711132" />
            <feComposite in2="hardAlpha" operator="arithmetic" k2="-1" k3="1" />
            <feColorMatrix type="matrix"
                values="0 0 0 0 0.85098 0 0 0 0 0.447059 0 0 0 0 0.196078 0 0 0 1 0" />
            <feBlend mode="normal" in2="shape" result="effect1_innerShadow_3_200" />
        </filter>
        <filter id="filter1_d_3_200" x="14.835" y="16.3483" width="68.8501" height="68.8503"
            filterUnits="userSpaceOnUse" color-interpolation-filters="sRGB">
            <feFlood flood-opacity="0" result="BackgroundImageFix" />
            <feColorMatrix in="SourceAlpha" type="matrix"
                values="0 0 0 0 0 0 0 0 0 0 0 0 0 0 0 0 0 0 127 0" result="hardAlpha" />
            <feOffset dx="-0.853358" dy="0.853358" />
            <feGaussianBlur stdDeviation="0.426679" />
            <feComposite in2="hardAlpha" operator="out" />
            <feColorMatrix type="matrix"
                values="0 0 0 0 0.921569 0 0 0 0 0.47451 0 0 0 0 0.133333 0 0 0 1 0" />
            <feBlend mode="normal" in2="BackgroundImageFix" result="effect1_dropShadow_3_200" />
            <feBlend mode="normal" in="SourceGraphic" in2="effect1_dropShadow_3_200" result="shape" />
        </filter>
        <filter id="filter2_f_3_200" x="18.7848" y="41.1396" width="21.3444" height="21.3445"
            filterUnits="userSpaceOnUse" color-interpolation-filters="sRGB">
            <feFlood flood-opacity="0" result="BackgroundImageFix" />
            <feBlend mode="normal" in="SourceGraphic" in2="BackgroundImageFix" result="shape" />
            <feGaussianBlur stdDeviation="0.711132" result="effect1_foregroundBlur_3_200" />
        </filter>
        <filter id="filter3_f_3_200" x="60.0975" y="41.1396" width="21.3445" height="21.3445"
            filterUnits="userSpaceOnUse" color-interpolation-filters="sRGB">
            <feFlood flood-opacity="0" result="BackgroundImageFix" />
            <feBlend mode="normal" in="SourceGraphic" in2="BackgroundImageFix" result="shape" />
            <feGaussianBlur stdDeviation="0.711132" result="effect1_foregroundBlur_3_200" />
        </filter>
        <filter id="filter4_f_3_200" x="32.4881" y="54.4244" width="35.2506" height="13.2744"
            filterUnits="userSpaceOnUse" color-interpolation-filters="sRGB">
            <feFlood flood-opacity="0" result="BackgroundImageFix" />
            <feBlend mode="normal" in="SourceGraphic" in2="BackgroundImageFix" result="shape" />
            <feGaussianBlur stdDeviation="0.711132" result="effect1_foregroundBlur_3_200" />
        </filter>
        <filter id="filter5_i_3_200" x="34.7069" y="53.9755" width="33.1175" height="11.141"
            filterUnits="userSpaceOnUse" color-interpolation-filters="sRGB">
            <feFlood flood-opacity="0" result="BackgroundImageFix" />
            <feBlend mode="normal" in="SourceGraphic" in2="BackgroundImageFix" result="shape" />
            <feColorMatrix in="SourceAlpha" type="matrix"
                values="0 0 0 0 0 0 0 0 0 0 0 0 0 0 0 0 0 0 127 0" result="hardAlpha" />
            <feOffset dx="0.711132" dy="-0.711132" />
            <feGaussianBlur stdDeviation="1.42226" />
            <feComposite in2="hardAlpha" operator="arithmetic" k2="-1" k3="1" />
            <feColorMatrix type="matrix"
                values="0 0 0 0 0.203922 0 0 0 0 0.168627 0 0 0 0 0.180392 0 0 0 1 0" />
            <feBlend mode="normal" in2="shape" result="effect1_innerShadow_3_200" />
        </filter>
        <filter id="filter6_f_3_200" x="34.5996" y="54.5443" width="32.5133" height="10.7047"
            filterUnits="userSpaceOnUse" color-interpolation-filters="sRGB">
            <feFlood flood-opacity="0" result="BackgroundImageFix" />
            <feBlend mode="normal" in="SourceGraphic" in2="BackgroundImageFix" result="shape" />
            <feGaussianBlur stdDeviation="0.853358" result="effect1_foregroundBlur_3_200" />
        </filter>
        <filter id="filter7_f_3_200" x="28.1135" y="34.6731" width="18.0926" height="10.788"
            filterUnits="userSpaceOnUse" color-interpolation-filters="sRGB">
            <feFlood flood-opacity="0" result="BackgroundImageFix" />
            <feBlend mode="normal" in="SourceGraphic" in2="BackgroundImageFix" result="shape" />
            <feGaussianBlur stdDeviation="0.568905" result="effect1_foregroundBlur_3_200" />
        </filter>
        <filter id="filter8_f_3_200" x="55.174" y="34.6731" width="18.0926" height="10.788"
            filterUnits="userSpaceOnUse" color-interpolation-filters="sRGB">
            <feFlood flood-opacity="0" result="BackgroundImageFix" />
            <feBlend mode="normal" in="SourceGraphic" in2="BackgroundImageFix" result="shape" />
            <feGaussianBlur stdDeviation="0.568905" result="effect1_foregroundBlur_3_200" />
        </filter>
        <filter id="filter9_i_3_200" x="55.9253" y="34.4477" width="18.3268" height="9.6772"
            filterUnits="userSpaceOnUse" color-interpolation-filters="sRGB">
            <feFlood flood-opacity="0" result="BackgroundImageFix" />
            <feBlend mode="normal" in="SourceGraphic" in2="BackgroundImageFix" result="shape" />
            <feColorMatrix in="SourceAlpha" type="matrix"
                values="0 0 0 0 0 0 0 0 0 0 0 0 0 0 0 0 0 0 127 0" result="hardAlpha" />
            <feOffset dx="1.13781" dy="-0.426679" />
            <feGaussianBlur stdDeviation="0.711132" />
            <feComposite in2="hardAlpha" operator="arithmetic" k2="-1" k3="1" />
            <feColorMatrix type="matrix"
                values="0 0 0 0 0.298039 0 0 0 0 0.196078 0 0 0 0 0.235294 0 0 0 1 0" />
            <feBlend mode="normal" in2="shape" result="effect1_innerShadow_3_200" />
        </filter>
        <filter id="filter10_f_3_200" x="33.6491" y="34.5767" width="12.7423" height="9.69806"
            filterUnits="userSpaceOnUse" color-interpolation-filters="sRGB">
            <feFlood flood-opacity="0" result="BackgroundImageFix" />
            <feBlend mode="normal" in="SourceGraphic" in2="BackgroundImageFix" result="shape" />
            <feGaussianBlur stdDeviation="0.711132" result="effect1_foregroundBlur_3_200" />
        </filter>
        <filter id="filter11_f_3_200" x="56.467" y="34.9321" width="16.9068" height="8.17905"
            filterUnits="userSpaceOnUse" color-interpolation-filters="sRGB">
            <feFlood flood-opacity="0" result="BackgroundImageFix" />
            <feBlend mode="normal" in="SourceGraphic" in2="BackgroundImageFix" result="shape" />
            <feGaussianBlur stdDeviation="0.711132" result="effect1_foregroundBlur_3_200" />
        </filter>
        <filter id="filter12_f_3_200" x="24.4872" y="29.293" width="53.4206" height="26.3856"
            filterUnits="userSpaceOnUse" color-interpolation-filters="sRGB">
            <feFlood flood-opacity="0" result="BackgroundImageFix" />
            <feBlend mode="normal" in="SourceGraphic" in2="BackgroundImageFix" result="shape" />
            <feGaussianBlur stdDeviation="1.02887" result="effect1_foregroundBlur_3_200" />
        </filter>
        <linearGradient id="paint0_linear_3_200" x1="76.1875" y1="20.782" x2="28.2187" y2="81.9834"
            gradientUnits="userSpaceOnUse">
            <stop stop-color="#FC8B23" />
            <stop offset="1" stop-color="#E67639" />
        </linearGradient>
        <radialGradient id="paint1_radial_3_200" cx="0" cy="0" r="1" gradientUnits="userSpaceOnUse"
            gradientTransform="translate(58.1897 10.0646) rotate(138.155) scale(11.8082 10.4185)">
            <stop offset="0.300161" stop-color="#FFA13A" />
            <stop offset="1" stop-color="#FFA13A" stop-opacity="0" />
        </radialGradient>
        <radialGradient id="paint2_radial_3_200" cx="0" cy="0" r="1" gradientUnits="userSpaceOnUse"
            gradientTransform="translate(27.4672 6.33688) rotate(67.8105) scale(18.7723 16.563)">
            <stop offset="0.300161" stop-color="#FF942A" />
            <stop offset="1" stop-color="#FF942A" stop-opacity="0" />
        </radialGradient>
        <radialGradient id="paint3_radial_3_200" cx="0" cy="0" r="1" gradientUnits="userSpaceOnUse"
            gradientTransform="translate(77.8834 23.8503) rotate(-164.745) scale(7.48478 10.3637)">
            <stop offset="0.300161" stop-color="#FFA13D" />
            <stop offset="1" stop-color="#FFA13D" stop-opacity="0" />
        </radialGradient>
        <radialGradient id="paint4_radial_3_200" cx="0" cy="0" r="1" gradientUnits="userSpaceOnUse"
            gradientTransform="translate(92.9819 34.7475) rotate(154.195) scale(13.2709 9.80153)">
            <stop offset="0.300161" stop-color="#FFA13D" />
            <stop offset="1" stop-color="#FFA13D" stop-opacity="0" />
        </radialGradient>
        <radialGradient id="paint5_radial_3_200" cx="0" cy="0" r="1" gradientUnits="userSpaceOnUse"
            gradientTransform="translate(95.8703 57.1984) rotate(-173.379) scale(14.8034 8.34225)">
            <stop offset="0.300161" stop-color="#FFA13D" />
            <stop offset="1" stop-color="#FFA13D" stop-opacity="0" />
        </radialGradient>
        <radialGradient id="paint6_radial_3_200" cx="0" cy="0" r="1" gradientUnits="userSpaceOnUse"
            gradientTransform="translate(82.61 74.3975) rotate(-43.9639) scale(13.4279 12.9362)">
            <stop stop-color="#E0762A" />
            <stop offset="1" stop-color="#E0762A" stop-opacity="0" />
        </radialGradient>
        <radialGradient id="paint7_radial_3_200" cx="0" cy="0" r="1" gradientUnits="userSpaceOnUse"
            gradientTransform="translate(20.3775 71.2466) rotate(-127.747) scale(10.2945 9.91753)">
            <stop stop-color="#E0762A" />
            <stop offset="1" stop-color="#E0762A" stop-opacity="0" />
        </radialGradient>
        <radialGradient id="paint8_radial_3_200" cx="0" cy="0" r="1" gradientUnits="userSpaceOnUse"
            gradientTransform="translate(6.32924 36.4544) rotate(25.2777) scale(10.454 12.6352)">
            <stop stop-color="#F0851D" />
            <stop offset="1" stop-color="#F0851D" stop-opacity="0" />
        </radialGradient>
        <radialGradient id="paint9_radial_3_200" cx="0" cy="0" r="1" gradientUnits="userSpaceOnUse"
            gradientTransform="translate(68.7312 89.3069) rotate(-142.487) scale(12.1883 11.4986)">
            <stop offset="0.336586" stop-color="#E3745B" />
            <stop offset="0.775" stop-color="#E3745B" stop-opacity="0" />
        </radialGradient>
        <radialGradient id="paint10_radial_3_200" cx="0" cy="0" r="1" gradientUnits="userSpaceOnUse"
            gradientTransform="translate(69.1647 30.4705) rotate(130.262) scale(54.6634 55.7028)">
            <stop offset="0.715" stop-color="#FFD13D" />
            <stop offset="1" stop-color="#DCA21C" />
        </radialGradient>
        <radialGradient id="paint11_radial_3_200" cx="0" cy="0" r="1" gradientUnits="userSpaceOnUse"
            gradientTransform="translate(29.442 51.7982) scale(10.0339)">
            <stop offset="0.25" stop-color="#ED501F" />
            <stop offset="0.89541" stop-color="#F18A42" stop-opacity="0" />
        </radialGradient>
        <radialGradient id="paint12_radial_3_200" cx="0" cy="0" r="1" gradientUnits="userSpaceOnUse"
            gradientTransform="translate(70.7547 51.7982) scale(10.0339 10.0339)">
            <stop offset="0.130208" stop-color="#FB6738" />
            <stop offset="0.89541" stop-color="#F18A42" stop-opacity="0" />
        </radialGradient>
        <linearGradient id="paint13_linear_3_200" x1="34.71" y1="59.8866" x2="67.109" y2="59.8866"
            gradientUnits="userSpaceOnUse">
            <stop stop-color="#31243C" />
            <stop offset="1" stop-color="#3F2950" />
        </linearGradient>
        <linearGradient id="paint14_linear_3_200" x1="67.1134" y1="55.9747" x2="65.2203"
            y2="57.7325" gradientUnits="userSpaceOnUse">
            <stop stop-color="#665C6D" />
            <stop offset="1" stop-color="#665C6D" stop-opacity="0" />
        </linearGradient>
        <linearGradient id="paint15_linear_3_200" x1="36.3934" y1="55.3803" x2="50.8562"
            y2="62.6891" gradientUnits="userSpaceOnUse">
            <stop stop-color="#4E4753" />
            <stop offset="1" stop-color="#4E4753" stop-opacity="0" />
        </linearGradient>
        <linearGradient id="paint16_linear_3_200" x1="66.4684" y1="54.9016" x2="48.6531"
            y2="63.7135" gradientUnits="userSpaceOnUse">
            <stop offset="0.0897352" stop-color="#5E5468" />
            <stop offset="1" stop-color="#5E5468" stop-opacity="0" />
        </linearGradient>
        <linearGradient id="paint17_linear_3_200" x1="28.9754" y1="39.4963" x2="46.1772"
            y2="39.4963" gradientUnits="userSpaceOnUse">
            <stop stop-color="#2E2931" />
            <stop offset="1" stop-color="#362A3F" />
        </linearGradient>
        <linearGradient id="paint18_linear_3_200" x1="42.0519" y1="42.1413" x2="34.5322" y2="40.985"
            gradientUnits="userSpaceOnUse">
            <stop stop-color="#524D53" />
            <stop offset="1" stop-color="#5C5463" stop-opacity="0" />
        </linearGradient>
        <linearGradient id="paint19_linear_3_200" x1="67.6531" y1="41.6094" x2="56.5653"
            y2="40.0122" gradientUnits="userSpaceOnUse">
            <stop stop-color="#61556C" />
            <stop offset="1" stop-color="#554A5F" />
        </linearGradient>
        <linearGradient id="paint20_linear_3_200" x1="62.5985" y1="42.4859" x2="36.1066"
            y2="52.5892" gradientUnits="userSpaceOnUse">
            <stop stop-color="#E78F00" />
            <stop offset="1" stop-color="#D07000" />
        </linearGradient>
        <radialGradient id="paint21_radial_3_200" cx="0" cy="0" r="1" gradientUnits="userSpaceOnUse"
            gradientTransform="translate(59.6546 30.6891) rotate(78.8614) scale(23.1605 47.9939)">
            <stop stop-color="#5F5B9B" />
            <stop offset="1" stop-color="#5C3085" />
        </radialGradient>
        <radialGradient id="paint22_radial_3_200" cx="0" cy="0" r="1" gradientUnits="userSpaceOnUse"
            gradientTransform="translate(64.865 40.6005) rotate(78.0636) scale(10.3883 11.6702)">
            <stop offset="0.776042" stop-color="#77579C" />
            <stop offset="0.9375" stop-color="#77579C" stop-opacity="0" />
        </radialGradient>
        <radialGradient id="paint23_radial_3_200" cx="0" cy="0" r="1" gradientUnits="userSpaceOnUse"
            gradientTransform="translate(61.0675 38.6957) rotate(-122.735) scale(8.81827 6.4731)">
            <stop offset="0.769354" stop-color="#4E3D92" />
            <stop offset="1" stop-color="#534687" stop-opacity="0" />
        </radialGradient>
        <radialGradient id="paint24_radial_3_200" cx="0" cy="0" r="1" gradientUnits="userSpaceOnUse"
            gradientTransform="translate(39.992 36.9294) rotate(121.845) scale(11.1577 12.6754)">
            <stop stop-color="#4C3D70" />
            <stop offset="1" stop-color="#361C5D" />
        </radialGradient>
        <radialGradient id="paint25_radial_3_200" cx="0" cy="0" r="1" gradientUnits="userSpaceOnUse"
            gradientTransform="translate(37.6963 37.2238) rotate(87.1376) scale(14.1467 21.0069)">
            <stop offset="0.647365" stop-color="#5B2B84" stop-opacity="0" />
            <stop offset="1" stop-color="#5B2B84" />
        </radialGradient>
        <radialGradient id="paint26_radial_3_200" cx="0" cy="0" r="1" gradientUnits="userSpaceOnUse"
            gradientTransform="translate(34.5172 51.4706) rotate(-99.5134) scale(21.7278 21.5168)">
            <stop offset="0.858612" stop-color="#2E1D57" stop-opacity="0" />
            <stop offset="1" stop-color="#20143D" />
        </radialGradient>
        <radialGradient id="paint27_radial_3_200" cx="0" cy="0" r="1" gradientUnits="userSpaceOnUse"
            gradientTransform="translate(36.3422 35.8109) rotate(102.225) scale(14.4569 13.568)">
            <stop offset="0.872281" stop-color="#2E1D57" stop-opacity="0" />
            <stop offset="1" stop-color="#20143D" stop-opacity="0.6" />
        </radialGradient>
        <linearGradient id="paint28_linear_3_200" x1="40.8428" y1="34.2552" x2="41.0813"
            y2="40.7604" gradientUnits="userSpaceOnUse">
            <stop stop-color="white" />
            <stop offset="0.973958" stop-color="white" stop-opacity="0" />
        </linearGradient>
        <radialGradient id="paint29_radial_3_200" cx="0" cy="0" r="1" gradientUnits="userSpaceOnUse"
            gradientTransform="translate(66.3073 36.1641) rotate(121.289) scale(12.4691 18.7297)">
            <stop stop-color="#4C3D70" />
            <stop offset="1" stop-color="#361C5D" />
        </radialGradient>
        <radialGradient id="paint30_radial_3_200" cx="0" cy="0" r="1" gradientUnits="userSpaceOnUse"
            gradientTransform="translate(62.3039 37.2238) rotate(92.8624) scale(14.1467 21.0069)">
            <stop offset="0.647365" stop-color="#5B2B84" stop-opacity="0" />
            <stop offset="1" stop-color="#5B2B84" />
        </radialGradient>
        <radialGradient id="paint31_radial_3_200" cx="0" cy="0" r="1" gradientUnits="userSpaceOnUse"
            gradientTransform="translate(64.9198 48.9392) rotate(-77.6023) scale(19.3489 19.1609)">
            <stop offset="0.858612" stop-color="#2E1D57" stop-opacity="0" />
            <stop offset="1" stop-color="#20143D" />
        </radialGradient>
        <radialGradient id="paint32_radial_3_200" cx="0" cy="0" r="1" gradientUnits="userSpaceOnUse"
            gradientTransform="translate(63.6578 35.8109) rotate(77.7749) scale(14.4569 13.568)">
            <stop offset="0.872281" stop-color="#2E1D57" stop-opacity="0" />
            <stop offset="1" stop-color="#20143D" stop-opacity="0.6" />
        </radialGradient>
        <linearGradient id="paint33_linear_3_200" x1="71.0492" y1="34.2552" x2="71.2877"
            y2="40.7604" gradientUnits="userSpaceOnUse">
            <stop stop-color="white" />
            <stop offset="0.973958" stop-color="white" stop-opacity="0" />
        </linearGradient>
    </defs>
</svg>