<svg width="164" height="32" viewBox="0 0 164 32" fill="none" xmlns="http://www.w3.org/2000/svg">
    <path
        d="M15.9995 29.9651C23.7312 29.9651 29.999 23.6973 29.999 15.9656C29.999 8.23388 23.7312 1.96609 15.9995 1.96609C8.26779 1.96609 2 8.23388 2 15.9656C2 23.6973 8.26779 29.9651 15.9995 29.9651Z"
        fill="url(#paint0_radial_9_441)" />
    <path
        d="M15.9995 29.9651C23.7312 29.9651 29.999 23.6973 29.999 15.9656C29.999 8.23388 23.7312 1.96609 15.9995 1.96609C8.26779 1.96609 2 8.23388 2 15.9656C2 23.6973 8.26779 29.9651 15.9995 29.9651Z"
        fill="url(#paint1_radial_9_441)" />
    <path
        d="M15.9995 29.9651C23.7312 29.9651 29.999 23.6973 29.999 15.9656C29.999 8.23388 23.7312 1.96609 15.9995 1.96609C8.26779 1.96609 2 8.23388 2 15.9656C2 23.6973 8.26779 29.9651 15.9995 29.9651Z"
        fill="url(#paint2_radial_9_441)" />
    <path
        d="M15.9995 29.9651C23.7312 29.9651 29.999 23.6973 29.999 15.9656C29.999 8.23388 23.7312 1.96609 15.9995 1.96609C8.26779 1.96609 2 8.23388 2 15.9656C2 23.6973 8.26779 29.9651 15.9995 29.9651Z"
        fill="url(#paint3_radial_9_441)" />
    <path
        d="M15.9995 29.9651C23.7312 29.9651 29.999 23.6973 29.999 15.9656C29.999 8.23388 23.7312 1.96609 15.9995 1.96609C8.26779 1.96609 2 8.23388 2 15.9656C2 23.6973 8.26779 29.9651 15.9995 29.9651Z"
        fill="url(#paint4_radial_9_441)" />
    <path
        d="M15.9995 29.9651C23.7312 29.9651 29.999 23.6973 29.999 15.9656C29.999 8.23388 23.7312 1.96609 15.9995 1.96609C8.26779 1.96609 2 8.23388 2 15.9656C2 23.6973 8.26779 29.9651 15.9995 29.9651Z"
        fill="url(#paint5_radial_9_441)" />
    <path
        d="M15.9995 29.9651C23.7312 29.9651 29.999 23.6973 29.999 15.9656C29.999 8.23388 23.7312 1.96609 15.9995 1.96609C8.26779 1.96609 2 8.23388 2 15.9656C2 23.6973 8.26779 29.9651 15.9995 29.9651Z"
        fill="url(#paint6_radial_9_441)" />
    <g filter="url(#filter0_f_9_441)">
        <path
            d="M29.6997 17.0343C29.5647 17.0118 29.426 17 29.2846 17C27.9056 17 26.7877 18.1179 26.7877 19.4969C26.7877 20.6066 27.5117 21.5473 28.5131 21.8723"
            stroke="url(#paint7_linear_9_441)" stroke-width="0.2" />
    </g>
    <path
        d="M29.9545 17.0909C29.8181 18.8057 29.3727 20.4335 28.6739 21.9186C27.5901 21.6461 26.7877 20.6652 26.7877 19.4969C26.7877 18.1179 27.9056 17 29.2846 17C29.5166 17 29.7413 17.0317 29.9545 17.0909Z"
        fill="url(#paint8_radial_9_441)" />
    <path
        d="M29.9545 17.0909C29.8181 18.8057 29.3727 20.4335 28.6739 21.9186C27.5901 21.6461 26.7877 20.6652 26.7877 19.4969C26.7877 18.1179 27.9056 17 29.2846 17C29.5166 17 29.7413 17.0317 29.9545 17.0909Z"
        fill="url(#paint9_radial_9_441)" />
    <path
        d="M29.9545 17.0909C29.8181 18.8057 29.3727 20.4335 28.6739 21.9186C27.5901 21.6461 26.7877 20.6652 26.7877 19.4969C26.7877 18.1179 27.9056 17 29.2846 17C29.5166 17 29.7413 17.0317 29.9545 17.0909Z"
        fill="url(#paint10_radial_9_441)" />
    <g filter="url(#filter1_f_9_441)">
        <path
            d="M19.7806 29.0918C19.5906 28.6498 19.4854 28.1628 19.4854 27.6512C19.4854 25.6347 21.12 24 23.1365 24C24.2889 24 25.3166 24.5339 25.9857 25.3677"
            stroke="url(#paint11_linear_9_441)" stroke-width="0.2" />
    </g>
    <path
        d="M26.1571 25.5994C24.4773 27.37 22.3394 28.7017 19.9333 29.4048C19.6477 28.8844 19.4854 28.2867 19.4854 27.6512C19.4854 25.6347 21.12 24 23.1365 24C24.3923 24 25.5001 24.634 26.1571 25.5994Z"
        fill="url(#paint12_radial_9_441)" />
    <path
        d="M26.1571 25.5994C24.4773 27.37 22.3394 28.7017 19.9333 29.4048C19.6477 28.8844 19.4854 28.2867 19.4854 27.6512C19.4854 25.6347 21.12 24 23.1365 24C24.3923 24 25.5001 24.634 26.1571 25.5994Z"
        fill="url(#paint13_radial_9_441)" />
    <path
        d="M26.1571 25.5994C24.4773 27.37 22.3394 28.7017 19.9333 29.4048C19.6477 28.8844 19.4854 28.2867 19.4854 27.6512C19.4854 25.6347 21.12 24 23.1365 24C24.3923 24 25.5001 24.634 26.1571 25.5994Z"
        fill="url(#paint14_radial_9_441)" />
    <path
        d="M26.1571 25.5994C24.4773 27.37 22.3394 28.7017 19.9333 29.4048C19.6477 28.8844 19.4854 28.2867 19.4854 27.6512C19.4854 25.6347 21.12 24 23.1365 24C24.3923 24 25.5001 24.634 26.1571 25.5994Z"
        fill="url(#paint15_radial_9_441)" />
    <g filter="url(#filter2_f_9_441)">
        <path
            d="M14.7894 22.615C15.8399 23.4374 16.1262 24.8262 15.4289 25.7167C14.7316 26.6073 13.3148 26.6625 12.2643 25.84C11.2138 25.0175 10.9275 23.6288 11.6248 22.7382C12.3221 21.8477 13.7389 21.7925 14.7894 22.615Z"
            stroke="url(#paint16_linear_9_441)" stroke-width="0.2" />
    </g>
    <path
        d="M14.7894 22.615C15.8399 23.4374 16.1262 24.8262 15.4289 25.7167C14.7316 26.6073 13.3148 26.6625 12.2643 25.84C11.2138 25.0175 10.9275 23.6288 11.6248 22.7382C12.3221 21.8477 13.7389 21.7925 14.7894 22.615Z"
        fill="url(#paint17_radial_9_441)" />
    <path
        d="M14.7894 22.615C15.8399 23.4374 16.1262 24.8262 15.4289 25.7167C14.7316 26.6073 13.3148 26.6625 12.2643 25.84C11.2138 25.0175 10.9275 23.6288 11.6248 22.7382C12.3221 21.8477 13.7389 21.7925 14.7894 22.615Z"
        fill="url(#paint18_radial_9_441)" />
    <path
        d="M14.7894 22.615C15.8399 23.4374 16.1262 24.8262 15.4289 25.7167C14.7316 26.6073 13.3148 26.6625 12.2643 25.84C11.2138 25.0175 10.9275 23.6288 11.6248 22.7382C12.3221 21.8477 13.7389 21.7925 14.7894 22.615Z"
        fill="url(#paint19_radial_9_441)" />
    <path
        d="M14.7894 22.615C15.8399 23.4374 16.1262 24.8262 15.4289 25.7167C14.7316 26.6073 13.3148 26.6625 12.2643 25.84C11.2138 25.0175 10.9275 23.6288 11.6248 22.7382C12.3221 21.8477 13.7389 21.7925 14.7894 22.615Z"
        fill="url(#paint20_radial_9_441)" />
    <g filter="url(#filter3_f_9_441)">
        <path
            d="M2.31482 15.0943C2.5809 15.0326 2.85813 15 3.14297 15C5.15947 15 6.79416 16.6347 6.79416 18.6512C6.79416 20.4562 5.48439 21.9553 3.76342 22.2499"
            stroke="url(#paint21_linear_9_441)" stroke-width="0.2" />
    </g>
    <path
        d="M2.02193 15.1753C2.37516 15.0615 2.7519 15 3.14301 15C5.1595 15 6.79419 16.6347 6.79419 18.6512C6.79419 20.5459 5.35102 22.1035 3.50396 22.2848C2.54205 20.3864 2 18.2393 2 15.9656C2 15.7004 2.00737 15.4369 2.02193 15.1753Z"
        fill="url(#paint22_radial_9_441)" />
    <path
        d="M2.02193 15.1753C2.37516 15.0615 2.7519 15 3.14301 15C5.1595 15 6.79419 16.6347 6.79419 18.6512C6.79419 20.5459 5.35102 22.1035 3.50396 22.2848C2.54205 20.3864 2 18.2393 2 15.9656C2 15.7004 2.00737 15.4369 2.02193 15.1753Z"
        fill="url(#paint23_radial_9_441)" />
    <path
        d="M2.02193 15.1753C2.37516 15.0615 2.7519 15 3.14301 15C5.1595 15 6.79419 16.6347 6.79419 18.6512C6.79419 20.5459 5.35102 22.1035 3.50396 22.2848C2.54205 20.3864 2 18.2393 2 15.9656C2 15.7004 2.00737 15.4369 2.02193 15.1753Z"
        fill="url(#paint24_radial_9_441)" />
    <g filter="url(#filter4_f_9_441)">
        <path
            d="M15.4925 8.00012C16.8715 8.00012 17.9894 6.88223 17.9894 5.50323C17.9894 4.12424 16.8715 3.00635 15.4925 3.00635C14.1135 3.00635 12.9956 4.12424 12.9956 5.50323C12.9956 6.88223 14.1135 8.00012 15.4925 8.00012Z"
            stroke="url(#paint25_linear_9_441)" stroke-width="0.3" />
    </g>
    <path
        d="M15.4925 8.00012C16.8715 8.00012 17.9894 6.88223 17.9894 5.50323C17.9894 4.12424 16.8715 3.00635 15.4925 3.00635C14.1135 3.00635 12.9956 4.12424 12.9956 5.50323C12.9956 6.88223 14.1135 8.00012 15.4925 8.00012Z"
        fill="url(#paint26_linear_9_441)" />
    <path
        d="M15.4925 8.00012C16.8715 8.00012 17.9894 6.88223 17.9894 5.50323C17.9894 4.12424 16.8715 3.00635 15.4925 3.00635C14.1135 3.00635 12.9956 4.12424 12.9956 5.50323C12.9956 6.88223 14.1135 8.00012 15.4925 8.00012Z"
        fill="url(#paint27_radial_9_441)" />
    <path
        d="M15.4925 8.00012C16.8715 8.00012 17.9894 6.88223 17.9894 5.50323C17.9894 4.12424 16.8715 3.00635 15.4925 3.00635C14.1135 3.00635 12.9956 4.12424 12.9956 5.50323C12.9956 6.88223 14.1135 8.00012 15.4925 8.00012Z"
        fill="url(#paint28_radial_9_441)" />
    <g filter="url(#filter5_f_9_441)">
        <path
            d="M7.66042 14.3583C7.80694 14.9654 8.22792 16.1185 9.57213 16.4513C9.7725 16.5009 9.96946 16.537 10.167 16.5642C10.1766 16.5655 10.1862 16.5666 10.1959 16.5675C13.0795 16.8378 14.9858 14.4002 15.0788 11.7484C15.0866 11.5286 15.2558 11.3427 15.4757 11.3398C15.5928 11.3384 15.7142 11.3385 15.8392 11.3407C16.0583 11.3445 16.2263 11.5299 16.2341 11.7488C16.3283 14.4005 18.2328 16.8379 21.1169 16.5675C21.1266 16.5666 21.1362 16.5655 21.1458 16.5642C21.3433 16.537 21.5403 16.5009 21.7407 16.4513C23.5215 16.0104 24.6262 14.84 25.1911 13.5846C25.1035 13.0535 24.9787 12.5389 24.8168 12.0452C24.6478 13.521 23.8575 13.7074 21.7407 14.2315C21.5665 14.2746 20.9711 14.6897 20.7934 14.7142C18.784 14.9025 18.2188 13.5846 17.0798 11.4802L17.0797 11.4593C17.0797 11.4496 17.0797 11.4399 17.0799 11.4303C17.1537 11.4399 17.2278 11.4504 17.3022 11.4619L17.4854 10.2726C17.6972 9.99974 17.9803 9.785 18.3068 9.65649C18.3836 9.62335 18.5631 9.54802 19.1179 9.44456C19.6904 9.33782 21.2188 9.33904 22.1516 9.33979L22.3598 9.3399C22.8523 9.3399 23.2996 9.48291 23.5885 9.61368C23.3525 9.28873 23.0927 8.98184 22.8091 8.69513C22.6618 8.67915 22.511 8.67008 22.3598 8.67008L22.1491 8.66996C21.6842 8.66959 21.0626 8.6691 20.4844 8.68222C19.9243 8.69493 19.0946 8.73064 18.7458 8.79567C18.1691 8.90317 17.9365 8.98931 17.8019 9.04686C17.4315 9.19443 17.1135 9.42192 16.8624 9.70872C16.6974 9.89727 16.4636 10.0232 16.2132 10.0121C15.8112 9.99426 15.4332 9.9963 15.0949 10.01C14.8457 10.0201 14.6135 9.8947 14.4491 9.70724C14.1982 9.42114 13.8807 9.19418 13.511 9.04686C13.3763 8.98931 13.1437 8.90317 12.5671 8.79567C12.2183 8.73064 11.3885 8.69493 10.8284 8.68222C10.2502 8.6691 9.62856 8.66959 9.16375 8.66996L9.15513 8.66997C8.93312 8.89242 8.72553 9.12715 8.53238 9.37317C8.66674 9.35232 8.80793 9.3399 8.95304 9.3399L9.16118 9.33979C10.094 9.33904 11.6224 9.33782 12.1949 9.44456C12.7498 9.54802 12.9293 9.62335 13.0059 9.65649C13.3205 9.78026 13.5947 9.98404 13.8036 10.2427L14.0326 11.4581C14.0872 11.4479 14.1544 11.437 14.2329 11.426C14.233 11.4371 14.2331 11.4481 14.2331 11.4593L14.233 11.4802C14.3534 14.3007 12.2053 16.0007 10.1959 15.8124C10.0182 15.7878 9.84481 15.756 9.67058 15.7128C8.13097 15.3316 8.24286 14.2006 7.80694 13.1234C7.7296 13.519 7.69548 13.9446 7.66042 14.3583Z"
            fill="url(#paint29_linear_9_441)" />
    </g>
    <path fill-rule="evenodd" clip-rule="evenodd"
        d="M13.8545 8.37703C14.2243 8.52435 14.5418 8.75131 14.7927 9.03741C14.9571 9.22487 15.1894 9.35027 15.4385 9.34018C15.7769 9.32647 16.1548 9.32443 16.5568 9.34224C16.8072 9.35334 17.041 9.22744 17.2061 9.03889C17.4571 8.75209 17.7751 8.5246 18.1454 8.37703C18.2801 8.31948 18.5127 8.23334 19.0893 8.12584C19.4381 8.06081 20.2679 8.0251 20.828 8.01239C21.4062 7.99927 22.0278 7.99976 22.4927 8.00013L22.7033 8.00025C23.5 8.00025 24.286 8.25196 24.5977 8.43982C25.2989 8.79566 25.9478 9.47595 25.9944 10.6466C25.9962 10.6641 25.9975 10.6818 25.9981 10.6995C26.0533 12.5002 24.9351 15.0757 22.0843 15.7815C21.8839 15.8311 21.687 15.8671 21.4894 15.8943C21.4798 15.8957 21.4702 15.8968 21.4606 15.8977C18.5764 16.168 16.6719 13.7307 16.5777 11.0789C16.5699 10.86 16.4019 10.6747 16.1828 10.6709C16.0578 10.6687 15.9364 10.6685 15.8193 10.67C15.5994 10.6729 15.4302 10.8587 15.4225 11.0785C15.3294 13.7304 13.423 16.168 10.5395 15.8977C10.5298 15.8968 10.5202 15.8957 10.5106 15.8943C10.3131 15.8671 10.1161 15.8311 9.91573 15.7815C7.06491 15.0757 5.94671 12.5002 6.00194 10.6995C6.00249 10.6818 6.00373 10.6641 6.00567 10.6466C6.0522 9.47595 6.70109 8.79566 7.40231 8.43982C7.71399 8.25196 8.49997 8.00025 9.29665 8.00025L9.50734 8.00013C9.97217 7.99976 10.5938 7.99927 11.1719 8.01239C11.7321 8.0251 12.5618 8.06081 12.9106 8.12584C13.4873 8.23334 13.7199 8.31948 13.8545 8.37703ZM6.95107 10.0507C7.11845 9.64301 7.42914 9.30987 7.84741 9.05777C8.08259 8.91602 8.6507 8.67007 9.29665 8.67007L9.50479 8.66996C10.4376 8.66921 11.966 8.66799 12.5385 8.77473C13.0934 8.87819 13.2729 8.95352 13.3496 8.98666C13.664 9.11043 13.9383 9.31421 14.1472 9.5729L14.3761 10.7883C14.4308 10.778 14.498 10.7671 14.5764 10.7562C14.5766 10.7672 14.5767 10.7783 14.5767 10.7894L14.5766 10.8103C14.697 13.6309 12.5489 15.3309 10.5395 15.1425C10.3618 15.118 10.1884 15.0861 10.0142 15.043C7.89735 14.5189 7.00864 12.8512 6.83956 11.3753C6.81352 11.148 6.80455 10.9253 6.81079 10.712L6.81097 10.706L6.81232 10.706L6.81257 10.6995C6.82189 10.466 6.86943 10.2495 6.95107 10.0507ZM17.4235 10.7604C17.4233 10.7701 17.4233 10.7797 17.4233 10.7894L17.4234 10.8103C17.303 13.6309 19.4511 15.3309 21.4606 15.1425C21.6382 15.118 21.8116 15.0861 21.9858 15.043C24.1027 14.5189 24.9914 12.8512 25.1604 11.3753C25.1865 11.148 25.1955 10.9253 25.1892 10.712L25.189 10.706L25.1877 10.706L25.1874 10.6995C25.1781 10.466 25.1306 10.2495 25.0489 10.0507C24.8815 9.64301 24.5709 9.30987 24.1526 9.05777C23.9174 8.91602 23.3493 8.67007 22.7033 8.67007L22.4952 8.66996C21.5624 8.66921 20.034 8.66799 19.4615 8.77473C18.9066 8.87819 18.7271 8.95352 18.6505 8.98666C18.3239 9.11517 18.0408 9.32991 17.8291 9.60282L17.6458 10.7921C17.5714 10.7806 17.4973 10.7701 17.4235 10.7604Z"
        fill="url(#paint30_radial_9_441)" />
    <path fill-rule="evenodd" clip-rule="evenodd"
        d="M13.8545 8.37703C14.2243 8.52435 14.5418 8.75131 14.7927 9.03741C14.9571 9.22487 15.1894 9.35027 15.4385 9.34018C15.7769 9.32647 16.1548 9.32443 16.5568 9.34224C16.8072 9.35334 17.041 9.22744 17.2061 9.03889C17.4571 8.75209 17.7751 8.5246 18.1454 8.37703C18.2801 8.31948 18.5127 8.23334 19.0893 8.12584C19.4381 8.06081 20.2679 8.0251 20.828 8.01239C21.4062 7.99927 22.0278 7.99976 22.4927 8.00013L22.7033 8.00025C23.5 8.00025 24.286 8.25196 24.5977 8.43982C25.2989 8.79566 25.9478 9.47595 25.9944 10.6466C25.9962 10.6641 25.9975 10.6818 25.9981 10.6995C26.0533 12.5002 24.9351 15.0757 22.0843 15.7815C21.8839 15.8311 21.687 15.8671 21.4894 15.8943C21.4798 15.8957 21.4702 15.8968 21.4606 15.8977C18.5764 16.168 16.6719 13.7307 16.5777 11.0789C16.5699 10.86 16.4019 10.6747 16.1828 10.6709C16.0578 10.6687 15.9364 10.6685 15.8193 10.67C15.5994 10.6729 15.4302 10.8587 15.4225 11.0785C15.3294 13.7304 13.423 16.168 10.5395 15.8977C10.5298 15.8968 10.5202 15.8957 10.5106 15.8943C10.3131 15.8671 10.1161 15.8311 9.91573 15.7815C7.06491 15.0757 5.94671 12.5002 6.00194 10.6995C6.00249 10.6818 6.00373 10.6641 6.00567 10.6466C6.0522 9.47595 6.70109 8.79566 7.40231 8.43982C7.71399 8.25196 8.49997 8.00025 9.29665 8.00025L9.50734 8.00013C9.97217 7.99976 10.5938 7.99927 11.1719 8.01239C11.7321 8.0251 12.5618 8.06081 12.9106 8.12584C13.4873 8.23334 13.7199 8.31948 13.8545 8.37703ZM6.95107 10.0507C7.11845 9.64301 7.42914 9.30987 7.84741 9.05777C8.08259 8.91602 8.6507 8.67007 9.29665 8.67007L9.50479 8.66996C10.4376 8.66921 11.966 8.66799 12.5385 8.77473C13.0934 8.87819 13.2729 8.95352 13.3496 8.98666C13.664 9.11043 13.9383 9.31421 14.1472 9.5729L14.3761 10.7883C14.4308 10.778 14.498 10.7671 14.5764 10.7562C14.5766 10.7672 14.5767 10.7783 14.5767 10.7894L14.5766 10.8103C14.697 13.6309 12.5489 15.3309 10.5395 15.1425C10.3618 15.118 10.1884 15.0861 10.0142 15.043C7.89735 14.5189 7.00864 12.8512 6.83956 11.3753C6.81352 11.148 6.80455 10.9253 6.81079 10.712L6.81097 10.706L6.81232 10.706L6.81257 10.6995C6.82189 10.466 6.86943 10.2495 6.95107 10.0507ZM17.4235 10.7604C17.4233 10.7701 17.4233 10.7797 17.4233 10.7894L17.4234 10.8103C17.303 13.6309 19.4511 15.3309 21.4606 15.1425C21.6382 15.118 21.8116 15.0861 21.9858 15.043C24.1027 14.5189 24.9914 12.8512 25.1604 11.3753C25.1865 11.148 25.1955 10.9253 25.1892 10.712L25.189 10.706L25.1877 10.706L25.1874 10.6995C25.1781 10.466 25.1306 10.2495 25.0489 10.0507C24.8815 9.64301 24.5709 9.30987 24.1526 9.05777C23.9174 8.91602 23.3493 8.67007 22.7033 8.67007L22.4952 8.66996C21.5624 8.66921 20.034 8.66799 19.4615 8.77473C18.9066 8.87819 18.7271 8.95352 18.6505 8.98666C18.3239 9.11517 18.0408 9.32991 17.8291 9.60282L17.6458 10.7921C17.5714 10.7806 17.4973 10.7701 17.4235 10.7604Z"
        fill="url(#paint31_radial_9_441)" />
    <path fill-rule="evenodd" clip-rule="evenodd"
        d="M13.8545 8.37703C14.2243 8.52435 14.5418 8.75131 14.7927 9.03741C14.9571 9.22487 15.1894 9.35027 15.4385 9.34018C15.7769 9.32647 16.1548 9.32443 16.5568 9.34224C16.8072 9.35334 17.041 9.22744 17.2061 9.03889C17.4571 8.75209 17.7751 8.5246 18.1454 8.37703C18.2801 8.31948 18.5127 8.23334 19.0893 8.12584C19.4381 8.06081 20.2679 8.0251 20.828 8.01239C21.4062 7.99927 22.0278 7.99976 22.4927 8.00013L22.7033 8.00025C23.5 8.00025 24.286 8.25196 24.5977 8.43982C25.2989 8.79566 25.9478 9.47595 25.9944 10.6466C25.9962 10.6641 25.9975 10.6818 25.9981 10.6995C26.0533 12.5002 24.9351 15.0757 22.0843 15.7815C21.8839 15.8311 21.687 15.8671 21.4894 15.8943C21.4798 15.8957 21.4702 15.8968 21.4606 15.8977C18.5764 16.168 16.6719 13.7307 16.5777 11.0789C16.5699 10.86 16.4019 10.6747 16.1828 10.6709C16.0578 10.6687 15.9364 10.6685 15.8193 10.67C15.5994 10.6729 15.4302 10.8587 15.4225 11.0785C15.3294 13.7304 13.423 16.168 10.5395 15.8977C10.5298 15.8968 10.5202 15.8957 10.5106 15.8943C10.3131 15.8671 10.1161 15.8311 9.91573 15.7815C7.06491 15.0757 5.94671 12.5002 6.00194 10.6995C6.00249 10.6818 6.00373 10.6641 6.00567 10.6466C6.0522 9.47595 6.70109 8.79566 7.40231 8.43982C7.71399 8.25196 8.49997 8.00025 9.29665 8.00025L9.50734 8.00013C9.97217 7.99976 10.5938 7.99927 11.1719 8.01239C11.7321 8.0251 12.5618 8.06081 12.9106 8.12584C13.4873 8.23334 13.7199 8.31948 13.8545 8.37703ZM6.95107 10.0507C7.11845 9.64301 7.42914 9.30987 7.84741 9.05777C8.08259 8.91602 8.6507 8.67007 9.29665 8.67007L9.50479 8.66996C10.4376 8.66921 11.966 8.66799 12.5385 8.77473C13.0934 8.87819 13.2729 8.95352 13.3496 8.98666C13.664 9.11043 13.9383 9.31421 14.1472 9.5729L14.3761 10.7883C14.4308 10.778 14.498 10.7671 14.5764 10.7562C14.5766 10.7672 14.5767 10.7783 14.5767 10.7894L14.5766 10.8103C14.697 13.6309 12.5489 15.3309 10.5395 15.1425C10.3618 15.118 10.1884 15.0861 10.0142 15.043C7.89735 14.5189 7.00864 12.8512 6.83956 11.3753C6.81352 11.148 6.80455 10.9253 6.81079 10.712L6.81097 10.706L6.81232 10.706L6.81257 10.6995C6.82189 10.466 6.86943 10.2495 6.95107 10.0507ZM17.4235 10.7604C17.4233 10.7701 17.4233 10.7797 17.4233 10.7894L17.4234 10.8103C17.303 13.6309 19.4511 15.3309 21.4606 15.1425C21.6382 15.118 21.8116 15.0861 21.9858 15.043C24.1027 14.5189 24.9914 12.8512 25.1604 11.3753C25.1865 11.148 25.1955 10.9253 25.1892 10.712L25.189 10.706L25.1877 10.706L25.1874 10.6995C25.1781 10.466 25.1306 10.2495 25.0489 10.0507C24.8815 9.64301 24.5709 9.30987 24.1526 9.05777C23.9174 8.91602 23.3493 8.67007 22.7033 8.67007L22.4952 8.66996C21.5624 8.66921 20.034 8.66799 19.4615 8.77473C18.9066 8.87819 18.7271 8.95352 18.6505 8.98666C18.3239 9.11517 18.0408 9.32991 17.8291 9.60282L17.6458 10.7921C17.5714 10.7806 17.4973 10.7701 17.4235 10.7604Z"
        fill="url(#paint32_radial_9_441)" />
    <path
        d="M7.84742 9.05778C8.08261 8.91603 8.65072 8.67008 9.29666 8.67008C9.36186 8.67008 9.43149 8.67002 9.5048 8.66996C10.4376 8.66922 11.966 8.668 12.5385 8.77474C13.0934 8.8782 13.2729 8.95353 13.3496 8.98668C14.0683 9.26954 14.5767 9.97028 14.5767 10.7894L14.5766 10.8103C14.697 13.6309 12.549 15.3309 10.5395 15.1425C10.3618 15.118 10.1884 15.0861 10.0142 15.043C7.56817 14.4374 6.76194 12.3048 6.81099 10.7057L6.81234 10.7061C6.83868 9.99062 7.22328 9.43396 7.84742 9.05778Z"
        fill="url(#paint33_radial_9_441)" />
    <path
        d="M7.84742 9.05778C8.08261 8.91603 8.65072 8.67008 9.29666 8.67008C9.36186 8.67008 9.43149 8.67002 9.5048 8.66996C10.4376 8.66922 11.966 8.668 12.5385 8.77474C13.0934 8.8782 13.2729 8.95353 13.3496 8.98668C14.0683 9.26954 14.5767 9.97028 14.5767 10.7894L14.5766 10.8103C14.697 13.6309 12.549 15.3309 10.5395 15.1425C10.3618 15.118 10.1884 15.0861 10.0142 15.043C7.56817 14.4374 6.76194 12.3048 6.81099 10.7057L6.81234 10.7061C6.83868 9.99062 7.22328 9.43396 7.84742 9.05778Z"
        fill="url(#paint34_radial_9_441)" />
    <path
        d="M7.84742 9.05778C8.08261 8.91603 8.65072 8.67008 9.29666 8.67008C9.36186 8.67008 9.43149 8.67002 9.5048 8.66996C10.4376 8.66922 11.966 8.668 12.5385 8.77474C13.0934 8.8782 13.2729 8.95353 13.3496 8.98668C14.0683 9.26954 14.5767 9.97028 14.5767 10.7894L14.5766 10.8103C14.697 13.6309 12.549 15.3309 10.5395 15.1425C10.3618 15.118 10.1884 15.0861 10.0142 15.043C7.56817 14.4374 6.76194 12.3048 6.81099 10.7057L6.81234 10.7061C6.83868 9.99062 7.22328 9.43396 7.84742 9.05778Z"
        fill="url(#paint35_radial_9_441)" />
    <path
        d="M7.84742 9.05778C8.08261 8.91603 8.65072 8.67008 9.29666 8.67008C9.36186 8.67008 9.43149 8.67002 9.5048 8.66996C10.4376 8.66922 11.966 8.668 12.5385 8.77474C13.0934 8.8782 13.2729 8.95353 13.3496 8.98668C14.0683 9.26954 14.5767 9.97028 14.5767 10.7894L14.5766 10.8103C14.697 13.6309 12.549 15.3309 10.5395 15.1425C10.3618 15.118 10.1884 15.0861 10.0142 15.043C7.56817 14.4374 6.76194 12.3048 6.81099 10.7057L6.81234 10.7061C6.83868 9.99062 7.22328 9.43396 7.84742 9.05778Z"
        fill="url(#paint36_radial_9_441)" />
    <path
        d="M13.2936 11.8381C13.7909 11.5968 13.948 10.8942 13.6445 10.2688C13.3411 9.64341 12.692 9.33203 12.1947 9.57332C11.6974 9.81462 11.5402 10.5172 11.8437 11.1426C12.1471 11.768 12.7963 12.0794 13.2936 11.8381Z"
        fill="url(#paint37_linear_9_441)" />
    <path
        d="M24.1526 9.05778C23.9174 8.91603 23.3493 8.67008 22.7033 8.67008C22.6382 8.67008 22.5685 8.67002 22.4952 8.66996C21.5624 8.66922 20.034 8.668 19.4615 8.77474C18.9066 8.8782 18.7272 8.95353 18.6505 8.98668C17.9317 9.26954 17.4233 9.97028 17.4233 10.7894L17.4234 10.8103C17.303 13.6309 19.4511 15.3309 21.4606 15.1425C21.6382 15.118 21.8116 15.0861 21.9858 15.043C24.4319 14.4374 25.2381 12.3048 25.1891 10.7057L25.1877 10.7061C25.1613 9.99062 24.7768 9.43396 24.1526 9.05778Z"
        fill="url(#paint38_radial_9_441)" />
    <path
        d="M24.1526 9.05778C23.9174 8.91603 23.3493 8.67008 22.7033 8.67008C22.6382 8.67008 22.5685 8.67002 22.4952 8.66996C21.5624 8.66922 20.034 8.668 19.4615 8.77474C18.9066 8.8782 18.7272 8.95353 18.6505 8.98668C17.9317 9.26954 17.4233 9.97028 17.4233 10.7894L17.4234 10.8103C17.303 13.6309 19.4511 15.3309 21.4606 15.1425C21.6382 15.118 21.8116 15.0861 21.9858 15.043C24.4319 14.4374 25.2381 12.3048 25.1891 10.7057L25.1877 10.7061C25.1613 9.99062 24.7768 9.43396 24.1526 9.05778Z"
        fill="url(#paint39_radial_9_441)" />
    <path
        d="M24.1526 9.05778C23.9174 8.91603 23.3493 8.67008 22.7033 8.67008C22.6382 8.67008 22.5685 8.67002 22.4952 8.66996C21.5624 8.66922 20.034 8.668 19.4615 8.77474C18.9066 8.8782 18.7272 8.95353 18.6505 8.98668C17.9317 9.26954 17.4233 9.97028 17.4233 10.7894L17.4234 10.8103C17.303 13.6309 19.4511 15.3309 21.4606 15.1425C21.6382 15.118 21.8116 15.0861 21.9858 15.043C24.4319 14.4374 25.2381 12.3048 25.1891 10.7057L25.1877 10.7061C25.1613 9.99062 24.7768 9.43396 24.1526 9.05778Z"
        fill="url(#paint40_radial_9_441)" />
    <path
        d="M24.1526 9.05778C23.9174 8.91603 23.3493 8.67008 22.7033 8.67008C22.6382 8.67008 22.5685 8.67002 22.4952 8.66996C21.5624 8.66922 20.034 8.668 19.4615 8.77474C18.9066 8.8782 18.7272 8.95353 18.6505 8.98668C17.9317 9.26954 17.4233 9.97028 17.4233 10.7894L17.4234 10.8103C17.303 13.6309 19.4511 15.3309 21.4606 15.1425C21.6382 15.118 21.8116 15.0861 21.9858 15.043C24.4319 14.4374 25.2381 12.3048 25.1891 10.7057L25.1877 10.7061C25.1613 9.99062 24.7768 9.43396 24.1526 9.05778Z"
        fill="url(#paint41_radial_9_441)" />
    <path
        d="M24.0336 11.8381C24.5309 11.5968 24.688 10.8942 24.3846 10.2688C24.0811 9.64341 23.432 9.33203 22.9347 9.57332C22.4374 9.81462 22.2802 10.5172 22.5837 11.1426C22.8871 11.768 23.5363 12.0794 24.0336 11.8381Z"
        fill="url(#paint42_linear_9_441)" />
    <g filter="url(#filter6_f_9_441)">
        <path fill-rule="evenodd" clip-rule="evenodd"
            d="M10.3997 16.8923C10.6926 16.5994 11.1675 16.5994 11.4604 16.8923C13.6175 19.0494 17.1126 19.0494 19.2697 16.8923C19.5626 16.5994 20.0375 16.5994 20.3304 16.8923C20.6233 17.1852 20.6233 17.66 20.3304 17.9529C17.5875 20.6958 13.1426 20.6958 10.3997 17.9529C10.1068 17.66 10.1068 17.1852 10.3997 16.8923Z"
            fill="url(#paint43_linear_9_441)" />
    </g>
    <path fill-rule="evenodd" clip-rule="evenodd"
        d="M10.9096 16.5798C11.2025 16.2869 11.6774 16.2869 11.9703 16.5798C14.1274 18.7369 17.6225 18.7369 19.7796 16.5798C20.0725 16.2869 20.5474 16.2869 20.8403 16.5798C21.1332 16.8727 21.1332 17.3475 20.8403 17.6404C18.0974 20.3833 13.6525 20.3833 10.9096 17.6404C10.6167 17.3475 10.6167 16.8727 10.9096 16.5798Z"
        fill="url(#paint44_linear_9_441)" />
    <g filter="url(#filter7_f_9_441)">
        <path
            d="M11.6339 17.2495C12.2384 17.8749 13.6512 18.8725 15.9257 18.8725C18.2003 18.8725 19.9095 17.7706 20.3056 17.2495"
            stroke="url(#paint45_linear_9_441)" stroke-width="0.5" stroke-linecap="round" />
    </g>
    <path
        d="M42.396 19.848L43.08 17.544C44.43 18.498 45.24 18.804 46.392 18.804C47.472 18.804 47.976 18.48 47.976 17.832C47.976 17.274 47.598 16.95 46.374 16.518L45.438 16.158C43.512 15.456 42.666 14.52 42.666 13.044C42.666 11.064 44.268 9.696 46.626 9.696C47.778 9.696 48.822 9.984 49.992 10.632L49.344 12.792C49.218 12.738 49.11 12.702 49.056 12.666C48.084 12.27 47.238 12.054 46.518 12.054C45.636 12.054 45.204 12.36 45.204 12.972C45.204 13.404 45.51 13.638 46.698 14.106L47.634 14.466C49.722 15.276 50.55 16.212 50.55 17.742C50.55 19.83 48.912 21.162 46.374 21.162C44.862 21.162 43.494 20.712 42.396 19.848ZM51.7732 12H54.2032V17.22C54.2032 18.408 54.5992 18.93 55.5352 18.93C56.4532 18.93 56.8492 18.408 56.8492 17.22V12H59.2792V17.22C59.2792 19.794 57.9832 21.162 55.5172 21.162C53.0692 21.162 51.7732 19.794 51.7732 17.22V12ZM63.0776 12V12.756C63.6536 12.09 64.2296 11.838 65.1296 11.838C66.1916 11.838 67.0376 12.216 67.6496 12.99C68.2616 12.198 69.0716 11.838 70.1696 11.838C72.3476 11.838 73.5716 13.188 73.5716 15.6V21H71.1416V15.762C71.1416 14.52 70.7996 14.052 69.8816 14.052C68.8556 14.052 68.4416 14.664 68.4416 16.176V21H66.0116V15.762C66.0116 14.538 65.6516 14.052 64.7516 14.052C63.7256 14.052 63.2936 14.682 63.2936 16.176L63.3116 21H60.8816V12H63.0776ZM77.5092 12V12.756C78.0852 12.09 78.6612 11.838 79.5612 11.838C80.6232 11.838 81.4692 12.216 82.0812 12.99C82.6932 12.198 83.5032 11.838 84.6012 11.838C86.7792 11.838 88.0032 13.188 88.0032 15.6V21H85.5732V15.762C85.5732 14.52 85.2312 14.052 84.3132 14.052C83.2872 14.052 82.8732 14.664 82.8732 16.176V21H80.4432V15.762C80.4432 14.538 80.0832 14.052 79.1832 14.052C78.1572 14.052 77.7252 14.682 77.7252 16.176L77.7432 21H75.3132V12H77.5092ZM96.8754 17.508H91.7814C92.0154 18.534 92.6094 19.002 93.6894 19.002C94.4634 19.002 94.8954 18.822 95.7054 18.174L96.9294 19.812C95.8854 20.784 94.9494 21.162 93.5274 21.162C90.9174 21.162 89.2974 19.416 89.2974 16.608C89.2974 13.728 90.8814 11.838 93.2754 11.838C94.6434 11.838 95.7234 12.414 96.3534 13.458C96.7674 14.142 96.9834 15.114 96.9834 16.266C96.9834 16.626 96.9834 16.68 96.8754 17.508ZM91.7454 15.6H94.6254C94.5894 14.592 94.1034 13.998 93.2574 13.998C92.4834 13.998 91.9794 14.52 91.7454 15.6ZM100.765 12V12.936C101.323 12.27 101.989 11.964 102.925 11.91H103.447V14.34H102.925C101.503 14.394 101.017 14.97 100.999 16.572V21H98.5691V12H100.765ZM112.354 11.856C114.802 11.856 116.17 13.53 116.17 16.5C116.17 19.488 114.784 21.144 112.3 21.144C109.798 21.144 108.412 19.488 108.412 16.5C108.412 13.458 109.78 11.856 112.354 11.856ZM112.264 12.81C110.482 12.81 109.474 14.196 109.474 16.608C109.474 18.948 110.446 20.19 112.282 20.19C114.136 20.19 115.108 18.948 115.108 16.608C115.108 14.16 114.1 12.81 112.264 12.81ZM122.478 8.652V9.57C122.064 9.498 121.722 9.462 121.344 9.462C119.958 9.462 119.328 10.164 119.328 11.712V12H122.118L121.722 12.936H119.346V21H118.302V11.712C118.302 9.57 119.274 8.526 121.272 8.526C121.668 8.526 122.064 8.562 122.478 8.652ZM134.599 17.814L135.823 19.74C134.671 20.73 133.501 21.162 131.935 21.162C128.785 21.162 126.931 19.092 126.931 15.528C126.931 11.892 128.839 9.696 132.025 9.696C133.375 9.696 134.311 10.038 135.697 11.082L134.437 13.044C133.375 12.27 132.871 12.072 132.007 12.072C130.405 12.072 129.505 13.296 129.505 15.456C129.505 17.634 130.405 18.786 132.079 18.786C132.979 18.786 133.735 18.48 134.599 17.814ZM140.476 11.838C143.086 11.838 144.598 13.548 144.598 16.5C144.598 19.434 143.068 21.162 140.458 21.162C137.848 21.162 136.336 19.434 136.336 16.446C136.336 13.566 137.884 11.838 140.476 11.838ZM140.476 14.052C139.36 14.052 138.802 14.916 138.802 16.59C138.802 18.192 139.324 18.948 140.476 18.948C141.592 18.948 142.132 18.192 142.132 16.608C142.132 14.916 141.574 14.052 140.476 14.052ZM151.449 8.688H153.843V21H151.611V20.298C151.089 20.874 150.387 21.162 149.505 21.162C147.111 21.162 145.671 19.398 145.671 16.446C145.671 13.566 147.057 11.838 149.361 11.838C150.225 11.838 150.819 12.072 151.449 12.666V8.688ZM149.757 14.052C148.623 14.052 148.137 14.808 148.137 16.554C148.137 18.264 148.605 18.948 149.793 18.948C150.981 18.948 151.449 18.282 151.449 16.608C151.449 14.862 150.909 14.052 149.757 14.052ZM162.916 17.508H157.822C158.056 18.534 158.65 19.002 159.73 19.002C160.504 19.002 160.936 18.822 161.746 18.174L162.97 19.812C161.926 20.784 160.99 21.162 159.568 21.162C156.958 21.162 155.338 19.416 155.338 16.608C155.338 13.728 156.922 11.838 159.316 11.838C160.684 11.838 161.764 12.414 162.394 13.458C162.808 14.142 163.024 15.114 163.024 16.266C163.024 16.626 163.024 16.68 162.916 17.508ZM157.786 15.6H160.666C160.63 14.592 160.144 13.998 159.298 13.998C158.524 13.998 158.02 14.52 157.786 15.6Z"
        fill="white" />
    <defs>
        <filter id="filter0_f_9_441" x="26.4877" y="16.7" width="3.42844" height="5.46741"
            filterUnits="userSpaceOnUse" color-interpolation-filters="sRGB">
            <feFlood flood-opacity="0" result="BackgroundImageFix" />
            <feBlend mode="normal" in="SourceGraphic" in2="BackgroundImageFix" result="shape" />
            <feGaussianBlur stdDeviation="0.1" result="effect1_foregroundBlur_9_441" />
        </filter>
        <filter id="filter1_f_9_441" x="19.1854" y="23.7" width="7.0783" height="5.63129"
            filterUnits="userSpaceOnUse" color-interpolation-filters="sRGB">
            <feFlood flood-opacity="0" result="BackgroundImageFix" />
            <feBlend mode="normal" in="SourceGraphic" in2="BackgroundImageFix" result="shape" />
            <feGaussianBlur stdDeviation="0.1" result="effect1_foregroundBlur_9_441" />
        </filter>
        <filter id="filter2_f_9_441" x="10.8432" y="21.6326" width="5.3673" height="5.18984"
            filterUnits="userSpaceOnUse" color-interpolation-filters="sRGB">
            <feFlood flood-opacity="0" result="BackgroundImageFix" />
            <feBlend mode="normal" in="SourceGraphic" in2="BackgroundImageFix" result="shape" />
            <feGaussianBlur stdDeviation="0.15" result="effect1_foregroundBlur_9_441" />
        </filter>
        <filter id="filter3_f_9_441" x="1.99224" y="14.6" width="5.20193" height="8.04849"
            filterUnits="userSpaceOnUse" color-interpolation-filters="sRGB">
            <feFlood flood-opacity="0" result="BackgroundImageFix" />
            <feBlend mode="normal" in="SourceGraphic" in2="BackgroundImageFix" result="shape" />
            <feGaussianBlur stdDeviation="0.15" result="effect1_foregroundBlur_9_441" />
        </filter>
        <filter id="filter4_f_9_441" x="12.5456" y="2.55635" width="5.89379" height="5.89376"
            filterUnits="userSpaceOnUse" color-interpolation-filters="sRGB">
            <feFlood flood-opacity="0" result="BackgroundImageFix" />
            <feBlend mode="normal" in="SourceGraphic" in2="BackgroundImageFix" result="shape" />
            <feGaussianBlur stdDeviation="0.15" result="effect1_foregroundBlur_9_441" />
        </filter>
        <filter id="filter5_f_9_441" x="6.85663" y="7.86605" width="19.1383" height="9.52581"
            filterUnits="userSpaceOnUse" color-interpolation-filters="sRGB">
            <feFlood flood-opacity="0" result="BackgroundImageFix" />
            <feBlend mode="normal" in="SourceGraphic" in2="BackgroundImageFix" result="shape" />
            <feGaussianBlur stdDeviation="0.401893" result="effect1_foregroundBlur_9_441" />
        </filter>
        <filter id="filter6_f_9_441" x="9.18002" y="15.6726" width="12.3701" height="5.33746"
            filterUnits="userSpaceOnUse" color-interpolation-filters="sRGB">
            <feFlood flood-opacity="0" result="BackgroundImageFix" />
            <feBlend mode="normal" in="SourceGraphic" in2="BackgroundImageFix" result="shape" />
            <feGaussianBlur stdDeviation="0.5" result="effect1_foregroundBlur_9_441" />
        </filter>
        <filter id="filter7_f_9_441" x="10.8839" y="16.4995" width="10.1717" height="3.12299"
            filterUnits="userSpaceOnUse" color-interpolation-filters="sRGB">
            <feFlood flood-opacity="0" result="BackgroundImageFix" />
            <feBlend mode="normal" in="SourceGraphic" in2="BackgroundImageFix" result="shape" />
            <feGaussianBlur stdDeviation="0.25" result="effect1_foregroundBlur_9_441" />
        </filter>
        <radialGradient id="paint0_radial_9_441" cx="0" cy="0" r="1" gradientUnits="userSpaceOnUse"
            gradientTransform="translate(24.6218 9.55314) rotate(135.952) scale(21.858 24.4467)">
            <stop stop-color="#FFF6A6" />
            <stop offset="0.870037" stop-color="#F6B246" />
        </radialGradient>
        <radialGradient id="paint1_radial_9_441" cx="0" cy="0" r="1" gradientUnits="userSpaceOnUse"
            gradientTransform="translate(23.5312 19.6021) rotate(-155.287) scale(22.8347 27.1137)">
            <stop offset="0.683178" stop-color="#BA9D76" stop-opacity="0" />
            <stop offset="1" stop-color="#BA9D76" />
        </radialGradient>
        <radialGradient id="paint2_radial_9_441" cx="0" cy="0" r="1" gradientUnits="userSpaceOnUse"
            gradientTransform="translate(8.68089 27.8523) rotate(-54.4053) scale(13.7694 26.2166)">
            <stop stop-color="#CA7044" />
            <stop offset="1" stop-color="#CA7044" stop-opacity="0" />
        </radialGradient>
        <radialGradient id="paint3_radial_9_441" cx="0" cy="0" r="1" gradientUnits="userSpaceOnUse"
            gradientTransform="translate(17.5625 13.0625) rotate(99.7962) scale(17.6321 18.0867)">
            <stop offset="0.863874" stop-color="#C07583" stop-opacity="0" />
            <stop offset="1" stop-color="#C07583" />
        </radialGradient>
        <radialGradient id="paint4_radial_9_441" cx="0" cy="0" r="1" gradientUnits="userSpaceOnUse"
            gradientTransform="translate(23.25 21.375) rotate(97.8707) scale(8.67178)">
            <stop stop-color="#FFC94E" />
            <stop offset="1" stop-color="#FFC94E" stop-opacity="0" />
        </radialGradient>
        <radialGradient id="paint5_radial_9_441" cx="0" cy="0" r="1" gradientUnits="userSpaceOnUse"
            gradientTransform="translate(8.3125 15.1875) rotate(46.5208) scale(4.9957)">
            <stop stop-color="#EB7F4D" />
            <stop offset="0.959931" stop-color="#EB7F4D" stop-opacity="0" />
        </radialGradient>
        <radialGradient id="paint6_radial_9_441" cx="0" cy="0" r="1" gradientUnits="userSpaceOnUse"
            gradientTransform="translate(23.0625 15.5) rotate(110.659) scale(4.0745)">
            <stop stop-color="#FFA95E" />
            <stop offset="1" stop-color="#FFB370" stop-opacity="0" />
        </radialGradient>
        <linearGradient id="paint7_linear_9_441" x1="29.1562" y1="16.7187" x2="27.5937" y2="22"
            gradientUnits="userSpaceOnUse">
            <stop stop-color="#F2BE70" />
            <stop offset="1" stop-color="#FFEC98" />
        </linearGradient>
        <radialGradient id="paint8_radial_9_441" cx="0" cy="0" r="1" gradientUnits="userSpaceOnUse"
            gradientTransform="translate(26.3684 18.6316) rotate(14.7248) scale(2.07067 4.57582)">
            <stop stop-color="#FFE486" />
            <stop offset="1" stop-color="#FFD68B" />
        </radialGradient>
        <radialGradient id="paint9_radial_9_441" cx="0" cy="0" r="1" gradientUnits="userSpaceOnUse"
            gradientTransform="translate(29.1579 19.7237) rotate(-112.782) scale(2.85426 3.23309)">
            <stop offset="0.795257" stop-color="#E3B065" stop-opacity="0" />
            <stop offset="0.944024" stop-color="#E3B065" />
        </radialGradient>
        <radialGradient id="paint10_radial_9_441" cx="0" cy="0" r="1" gradientUnits="userSpaceOnUse"
            gradientTransform="translate(29.5895 18.4437) rotate(118.811) scale(3.72923 3.20041)">
            <stop offset="0.846426" stop-color="#FFF1A6" stop-opacity="0" />
            <stop offset="1" stop-color="#FFF1A6" />
        </radialGradient>
        <linearGradient id="paint11_linear_9_441" x1="24.3439" y1="24" x2="18.7644" y2="28.2351"
            gradientUnits="userSpaceOnUse">
            <stop stop-color="#DFA055" />
            <stop offset="1" stop-color="#E1945D" />
        </linearGradient>
        <radialGradient id="paint12_radial_9_441" cx="0" cy="0" r="1" gradientUnits="userSpaceOnUse"
            gradientTransform="translate(22.8212 24) rotate(95.3771) scale(5.42873 8.14923)">
            <stop stop-color="#FEB862" />
            <stop offset="1" stop-color="#D78B6C" />
        </radialGradient>
        <radialGradient id="paint13_radial_9_441" cx="0" cy="0" r="1" gradientUnits="userSpaceOnUse"
            gradientTransform="translate(21.612 24) rotate(61.633) scale(4.59394 12.0167)">
            <stop offset="0.727047" stop-color="#D8A294" stop-opacity="0" />
            <stop offset="1" stop-color="#D8A294" />
        </radialGradient>
        <radialGradient id="paint14_radial_9_441" cx="0" cy="0" r="1" gradientUnits="userSpaceOnUse"
            gradientTransform="translate(23.5232 27.5709) rotate(155.573) scale(4.4348 3.92197)">
            <stop offset="0.662245" stop-color="#EFA970" stop-opacity="0" />
            <stop offset="0.978537" stop-color="#EFA970" />
        </radialGradient>
        <radialGradient id="paint15_radial_9_441" cx="0" cy="0" r="1" gradientUnits="userSpaceOnUse"
            gradientTransform="translate(22.6427 28.5388) rotate(-67.9692) scale(5.027 5.20621)">
            <stop offset="0.777969" stop-color="#C17967" stop-opacity="0" />
            <stop offset="0.950812" stop-color="#C17967" />
        </radialGradient>
        <linearGradient id="paint16_linear_9_441" x1="14.8413" y1="22.7416" x2="12.2525"
            y2="25.8132" gradientUnits="userSpaceOnUse">
            <stop stop-color="#D47C4B" />
            <stop offset="1" stop-color="#E28050" />
        </linearGradient>
        <radialGradient id="paint17_radial_9_441" cx="0" cy="0" r="1" gradientUnits="userSpaceOnUse"
            gradientTransform="translate(13.8437 22.6563) rotate(99.8844) scale(3.82294 3.97651)">
            <stop stop-color="#D97C5E" />
            <stop offset="1" stop-color="#F79965" />
        </radialGradient>
        <radialGradient id="paint18_radial_9_441" cx="0" cy="0" r="1" gradientUnits="userSpaceOnUse"
            gradientTransform="translate(14.229 22.9304) rotate(110.163) scale(3.72007 3.18028)">
            <stop offset="0.742386" stop-color="#FFA969" stop-opacity="0" />
            <stop offset="1" stop-color="#FFA969" />
        </radialGradient>
        <radialGradient id="paint19_radial_9_441" cx="0" cy="0" r="1" gradientUnits="userSpaceOnUse"
            gradientTransform="translate(13.1666 24.9637) rotate(-104.912) scale(3.48795 3.28978)">
            <stop offset="0.625503" stop-color="#C16653" stop-opacity="0" />
            <stop offset="1" stop-color="#C16653" />
        </radialGradient>
        <radialGradient id="paint20_radial_9_441" cx="0" cy="0" r="1" gradientUnits="userSpaceOnUse"
            gradientTransform="translate(15.81 26.1463) rotate(-158.194) scale(2.45915 2.55794)">
            <stop stop-color="#CE8050" />
            <stop offset="1" stop-color="#CE8050" stop-opacity="0" />
        </radialGradient>
        <linearGradient id="paint21_linear_9_441" x1="4.55449" y1="15" x2="4.55449" y2="22.2499"
            gradientUnits="userSpaceOnUse">
            <stop stop-color="#A2723B" />
            <stop offset="1" stop-color="#AC6E43" />
        </linearGradient>
        <radialGradient id="paint22_radial_9_441" cx="0" cy="0" r="1" gradientUnits="userSpaceOnUse"
            gradientTransform="translate(1.61102 15.5904) rotate(58.6636) scale(7.83768 5.15808)">
            <stop stop-color="#A98861" />
            <stop offset="1" stop-color="#B1724D" />
        </radialGradient>
        <radialGradient id="paint23_radial_9_441" cx="0" cy="0" r="1" gradientUnits="userSpaceOnUse"
            gradientTransform="translate(2.8868 19.2691) rotate(-58.7652) scale(4.99283 4.56979)">
            <stop offset="0.695704" stop-color="#9C6544" stop-opacity="0" />
            <stop offset="1" stop-color="#9C6544" />
        </radialGradient>
        <radialGradient id="paint24_radial_9_441" cx="0" cy="0" r="1" gradientUnits="userSpaceOnUse"
            gradientTransform="translate(4.3971 17.2433) rotate(90) scale(5.04143 3.31783)">
            <stop offset="0.821343" stop-color="#AF7D6F" stop-opacity="0" />
            <stop offset="1" stop-color="#AF7D6F" />
        </radialGradient>
        <linearGradient id="paint25_linear_9_441" x1="14.7642" y1="5.50323" x2="17.9894"
            y2="5.50323" gradientUnits="userSpaceOnUse">
            <stop stop-color="#FFE27E" />
            <stop offset="1" stop-color="#F1B966" />
        </linearGradient>
        <linearGradient id="paint26_linear_9_441" x1="18.25" y1="5.50324" x2="12.9956" y2="5.50324"
            gradientUnits="userSpaceOnUse">
            <stop stop-color="#FFC770" />
            <stop offset="1" stop-color="#FFDF81" />
        </linearGradient>
        <radialGradient id="paint27_radial_9_441" cx="0" cy="0" r="1" gradientUnits="userSpaceOnUse"
            gradientTransform="translate(14.875 5.50323) scale(3.28125 3.94765)">
            <stop offset="0.6" stop-color="#C59853" stop-opacity="0" />
            <stop offset="1" stop-color="#C59853" />
        </radialGradient>
        <radialGradient id="paint28_radial_9_441" cx="0" cy="0" r="1" gradientUnits="userSpaceOnUse"
            gradientTransform="translate(17.9894 5.50324) rotate(180) scale(4.99377 3.78436)">
            <stop offset="0.898995" stop-color="#FFF4A4" stop-opacity="0" />
            <stop offset="1" stop-color="#FFF4A4" />
        </radialGradient>
        <linearGradient id="paint29_linear_9_441" x1="20.4795" y1="12.629" x2="11.0601" y2="16.2213"
            gradientUnits="userSpaceOnUse">
            <stop stop-color="#E78F00" />
            <stop offset="1" stop-color="#D07000" />
        </linearGradient>
        <radialGradient id="paint30_radial_9_441" cx="0" cy="0" r="1" gradientUnits="userSpaceOnUse"
            gradientTransform="translate(19.4327 8.43458) rotate(78.8614) scale(8.23485 17.0645)">
            <stop stop-color="#5F5B9B" />
            <stop offset="1" stop-color="#5C3085" />
        </radialGradient>
        <radialGradient id="paint31_radial_9_441" cx="0" cy="0" r="1" gradientUnits="userSpaceOnUse"
            gradientTransform="translate(21.2853 11.9586) rotate(78.0636) scale(3.6936 4.1494)">
            <stop offset="0.776042" stop-color="#77579C" />
            <stop offset="0.9375" stop-color="#77579C" stop-opacity="0" />
        </radialGradient>
        <radialGradient id="paint32_radial_9_441" cx="0" cy="0" r="1" gradientUnits="userSpaceOnUse"
            gradientTransform="translate(19.9351 11.2813) rotate(-122.735) scale(3.13539 2.30155)">
            <stop offset="0.769354" stop-color="#4E3D92" />
            <stop offset="1" stop-color="#534687" stop-opacity="0" />
        </radialGradient>
        <radialGradient id="paint33_radial_9_441" cx="0" cy="0" r="1" gradientUnits="userSpaceOnUse"
            gradientTransform="translate(12.4416 10.6534) rotate(121.845) scale(3.96719 4.50681)">
            <stop stop-color="#4C3D70" />
            <stop offset="1" stop-color="#361C5D" />
        </radialGradient>
        <radialGradient id="paint34_radial_9_441" cx="0" cy="0" r="1" gradientUnits="userSpaceOnUse"
            gradientTransform="translate(11.6253 10.758) rotate(87.1376) scale(5.02993 7.46911)">
            <stop offset="0.647365" stop-color="#5B2B84" stop-opacity="0" />
            <stop offset="1" stop-color="#5B2B84" />
        </radialGradient>
        <radialGradient id="paint35_radial_9_441" cx="0" cy="0" r="1" gradientUnits="userSpaceOnUse"
            gradientTransform="translate(10.495 15.8236) rotate(-99.5134) scale(7.72545 7.65043)">
            <stop offset="0.858612" stop-color="#2E1D57" stop-opacity="0" />
            <stop offset="1" stop-color="#20143D" />
        </radialGradient>
        <radialGradient id="paint36_radial_9_441" cx="0" cy="0" r="1" gradientUnits="userSpaceOnUse"
            gradientTransform="translate(11.1439 10.2557) rotate(102.225) scale(5.14022 4.82419)">
            <stop offset="0.872281" stop-color="#2E1D57" stop-opacity="0" />
            <stop offset="1" stop-color="#20143D" stop-opacity="0.6" />
        </radialGradient>
        <linearGradient id="paint37_linear_9_441" x1="12.7441" y1="9.70254" x2="12.8289"
            y2="12.0155" gradientUnits="userSpaceOnUse">
            <stop stop-color="white" />
            <stop offset="0.973958" stop-color="white" stop-opacity="0" />
        </linearGradient>
        <radialGradient id="paint38_radial_9_441" cx="0" cy="0" r="1" gradientUnits="userSpaceOnUse"
            gradientTransform="translate(21.7982 10.3813) rotate(121.289) scale(4.43346 6.65943)">
            <stop stop-color="#4C3D70" />
            <stop offset="1" stop-color="#361C5D" />
        </radialGradient>
        <radialGradient id="paint39_radial_9_441" cx="0" cy="0" r="1" gradientUnits="userSpaceOnUse"
            gradientTransform="translate(20.3747 10.758) rotate(92.8624) scale(5.02993 7.46911)">
            <stop offset="0.647365" stop-color="#5B2B84" stop-opacity="0" />
            <stop offset="1" stop-color="#5B2B84" />
        </radialGradient>
        <radialGradient id="paint40_radial_9_441" cx="0" cy="0" r="1" gradientUnits="userSpaceOnUse"
            gradientTransform="translate(21.3048 14.9235) rotate(-77.6023) scale(6.8796 6.81275)">
            <stop offset="0.858612" stop-color="#2E1D57" stop-opacity="0" />
            <stop offset="1" stop-color="#20143D" />
        </radialGradient>
        <radialGradient id="paint41_radial_9_441" cx="0" cy="0" r="1" gradientUnits="userSpaceOnUse"
            gradientTransform="translate(20.8561 10.2557) rotate(77.7749) scale(5.14022 4.82419)">
            <stop offset="0.872281" stop-color="#2E1D57" stop-opacity="0" />
            <stop offset="1" stop-color="#20143D" stop-opacity="0.6" />
        </radialGradient>
        <linearGradient id="paint42_linear_9_441" x1="23.4841" y1="9.70254" x2="23.5689"
            y2="12.0155" gradientUnits="userSpaceOnUse">
            <stop stop-color="white" />
            <stop offset="0.973958" stop-color="white" stop-opacity="0" />
        </linearGradient>
        <linearGradient id="paint43_linear_9_441" x1="10.1801" y1="17.6876" x2="15.3651"
            y2="20.0101" gradientUnits="userSpaceOnUse">
            <stop stop-color="#B2673E" />
            <stop offset="1" stop-color="#BA6E47" />
        </linearGradient>
        <linearGradient id="paint44_linear_9_441" x1="15.8749" y1="17.7904" x2="15.8749"
            y2="19.6976" gradientUnits="userSpaceOnUse">
            <stop stop-color="#4A393E" />
            <stop offset="1" stop-color="#391E47" />
        </linearGradient>
        <linearGradient id="paint45_linear_9_441" x1="13.0722" y1="17.7707" x2="17.5123"
            y2="18.6462" gradientUnits="userSpaceOnUse">
            <stop stop-color="#463E4C" />
            <stop offset="1" stop-color="#4F425A" />
        </linearGradient>
    </defs>
</svg>