<svg width="164" height="32" viewBox="0 0 164 32" fill="none" xmlns="http://www.w3.org/2000/svg">
    <g filter="url(#filter0_i_8_275)">
        <path
            d="M13.5525 3.1143C15.0837 1.39068 17.1656 1.665 18.4978 3.1143L19.3102 4.05491C19.5915 4.36096 19.9986 4.51967 20.4128 4.48479L21.8572 4.05491C23.8259 3.63287 25.615 5.10162 25.615 7.38287V8.24224C25.6567 8.71136 26.0665 9.02938 26.4897 9.23606L27.7947 9.78131C29.6823 10.7032 30.154 12.8907 28.779 14.7266L28.3884 15.2422C28.038 15.7159 28.11 16.3376 28.4587 16.8126L28.8493 17.3594C30.2712 19.1094 29.4695 21.5104 27.461 22.3492L26.3377 22.8184C25.9145 22.9951 25.7488 23.2984 25.6697 23.7501L25.5915 25.2188C25.3181 27.2344 23.5279 28.1449 22.0915 27.9415L20.3806 27.4844C19.9697 27.4262 19.4587 27.5626 19.1853 27.9922L18.5681 28.836C17.0368 30.5626 14.9701 30.2755 13.9275 29.2657L12.7889 27.8868C12.4908 27.5981 12.115 27.3516 11.6651 27.5214L9.94309 27.9922C8.52142 28.1936 6.84738 27.1006 6.57943 25.69L6.38059 23.6485C6.29988 23.2236 6.01968 22.8635 5.62765 22.6808L4.41967 22.2657C2.60313 21.4192 1.99471 19.3698 3.03772 17.6585L3.71857 16.717C3.99205 16.2683 3.97904 15.7014 3.68529 15.2657L3.17747 14.5469C1.74 12.5001 2.73386 10.2122 4.86397 9.52633L5.33377 9.37506C5.8523 9.2081 6.35318 8.77748 6.39627 8.23444L6.50089 6.91619C6.67069 4.77644 8.62321 3.54863 10.6769 4.17295L11.3415 4.37501C11.9821 4.62501 12.4841 4.4121 12.8337 4.03126L13.5525 3.1143Z"
            fill="url(#paint0_linear_8_275)" />
        <path
            d="M13.5525 3.1143C15.0837 1.39068 17.1656 1.665 18.4978 3.1143L19.3102 4.05491C19.5915 4.36096 19.9986 4.51967 20.4128 4.48479L21.8572 4.05491C23.8259 3.63287 25.615 5.10162 25.615 7.38287V8.24224C25.6567 8.71136 26.0665 9.02938 26.4897 9.23606L27.7947 9.78131C29.6823 10.7032 30.154 12.8907 28.779 14.7266L28.3884 15.2422C28.038 15.7159 28.11 16.3376 28.4587 16.8126L28.8493 17.3594C30.2712 19.1094 29.4695 21.5104 27.461 22.3492L26.3377 22.8184C25.9145 22.9951 25.7488 23.2984 25.6697 23.7501L25.5915 25.2188C25.3181 27.2344 23.5279 28.1449 22.0915 27.9415L20.3806 27.4844C19.9697 27.4262 19.4587 27.5626 19.1853 27.9922L18.5681 28.836C17.0368 30.5626 14.9701 30.2755 13.9275 29.2657L12.7889 27.8868C12.4908 27.5981 12.115 27.3516 11.6651 27.5214L9.94309 27.9922C8.52142 28.1936 6.84738 27.1006 6.57943 25.69L6.38059 23.6485C6.29988 23.2236 6.01968 22.8635 5.62765 22.6808L4.41967 22.2657C2.60313 21.4192 1.99471 19.3698 3.03772 17.6585L3.71857 16.717C3.99205 16.2683 3.97904 15.7014 3.68529 15.2657L3.17747 14.5469C1.74 12.5001 2.73386 10.2122 4.86397 9.52633L5.33377 9.37506C5.8523 9.2081 6.35318 8.77748 6.39627 8.23444L6.50089 6.91619C6.67069 4.77644 8.62321 3.54863 10.6769 4.17295L11.3415 4.37501C11.9821 4.62501 12.4841 4.4121 12.8337 4.03126L13.5525 3.1143Z"
            fill="url(#paint1_radial_8_275)" />
        <path
            d="M13.5525 3.1143C15.0837 1.39068 17.1656 1.665 18.4978 3.1143L19.3102 4.05491C19.5915 4.36096 19.9986 4.51967 20.4128 4.48479L21.8572 4.05491C23.8259 3.63287 25.615 5.10162 25.615 7.38287V8.24224C25.6567 8.71136 26.0665 9.02938 26.4897 9.23606L27.7947 9.78131C29.6823 10.7032 30.154 12.8907 28.779 14.7266L28.3884 15.2422C28.038 15.7159 28.11 16.3376 28.4587 16.8126L28.8493 17.3594C30.2712 19.1094 29.4695 21.5104 27.461 22.3492L26.3377 22.8184C25.9145 22.9951 25.7488 23.2984 25.6697 23.7501L25.5915 25.2188C25.3181 27.2344 23.5279 28.1449 22.0915 27.9415L20.3806 27.4844C19.9697 27.4262 19.4587 27.5626 19.1853 27.9922L18.5681 28.836C17.0368 30.5626 14.9701 30.2755 13.9275 29.2657L12.7889 27.8868C12.4908 27.5981 12.115 27.3516 11.6651 27.5214L9.94309 27.9922C8.52142 28.1936 6.84738 27.1006 6.57943 25.69L6.38059 23.6485C6.29988 23.2236 6.01968 22.8635 5.62765 22.6808L4.41967 22.2657C2.60313 21.4192 1.99471 19.3698 3.03772 17.6585L3.71857 16.717C3.99205 16.2683 3.97904 15.7014 3.68529 15.2657L3.17747 14.5469C1.74 12.5001 2.73386 10.2122 4.86397 9.52633L5.33377 9.37506C5.8523 9.2081 6.35318 8.77748 6.39627 8.23444L6.50089 6.91619C6.67069 4.77644 8.62321 3.54863 10.6769 4.17295L11.3415 4.37501C11.9821 4.62501 12.4841 4.4121 12.8337 4.03126L13.5525 3.1143Z"
            fill="url(#paint2_radial_8_275)" />
        <path
            d="M13.5525 3.1143C15.0837 1.39068 17.1656 1.665 18.4978 3.1143L19.3102 4.05491C19.5915 4.36096 19.9986 4.51967 20.4128 4.48479L21.8572 4.05491C23.8259 3.63287 25.615 5.10162 25.615 7.38287V8.24224C25.6567 8.71136 26.0665 9.02938 26.4897 9.23606L27.7947 9.78131C29.6823 10.7032 30.154 12.8907 28.779 14.7266L28.3884 15.2422C28.038 15.7159 28.11 16.3376 28.4587 16.8126L28.8493 17.3594C30.2712 19.1094 29.4695 21.5104 27.461 22.3492L26.3377 22.8184C25.9145 22.9951 25.7488 23.2984 25.6697 23.7501L25.5915 25.2188C25.3181 27.2344 23.5279 28.1449 22.0915 27.9415L20.3806 27.4844C19.9697 27.4262 19.4587 27.5626 19.1853 27.9922L18.5681 28.836C17.0368 30.5626 14.9701 30.2755 13.9275 29.2657L12.7889 27.8868C12.4908 27.5981 12.115 27.3516 11.6651 27.5214L9.94309 27.9922C8.52142 28.1936 6.84738 27.1006 6.57943 25.69L6.38059 23.6485C6.29988 23.2236 6.01968 22.8635 5.62765 22.6808L4.41967 22.2657C2.60313 21.4192 1.99471 19.3698 3.03772 17.6585L3.71857 16.717C3.99205 16.2683 3.97904 15.7014 3.68529 15.2657L3.17747 14.5469C1.74 12.5001 2.73386 10.2122 4.86397 9.52633L5.33377 9.37506C5.8523 9.2081 6.35318 8.77748 6.39627 8.23444L6.50089 6.91619C6.67069 4.77644 8.62321 3.54863 10.6769 4.17295L11.3415 4.37501C11.9821 4.62501 12.4841 4.4121 12.8337 4.03126L13.5525 3.1143Z"
            fill="url(#paint3_radial_8_275)" />
        <path
            d="M13.5525 3.1143C15.0837 1.39068 17.1656 1.665 18.4978 3.1143L19.3102 4.05491C19.5915 4.36096 19.9986 4.51967 20.4128 4.48479L21.8572 4.05491C23.8259 3.63287 25.615 5.10162 25.615 7.38287V8.24224C25.6567 8.71136 26.0665 9.02938 26.4897 9.23606L27.7947 9.78131C29.6823 10.7032 30.154 12.8907 28.779 14.7266L28.3884 15.2422C28.038 15.7159 28.11 16.3376 28.4587 16.8126L28.8493 17.3594C30.2712 19.1094 29.4695 21.5104 27.461 22.3492L26.3377 22.8184C25.9145 22.9951 25.7488 23.2984 25.6697 23.7501L25.5915 25.2188C25.3181 27.2344 23.5279 28.1449 22.0915 27.9415L20.3806 27.4844C19.9697 27.4262 19.4587 27.5626 19.1853 27.9922L18.5681 28.836C17.0368 30.5626 14.9701 30.2755 13.9275 29.2657L12.7889 27.8868C12.4908 27.5981 12.115 27.3516 11.6651 27.5214L9.94309 27.9922C8.52142 28.1936 6.84738 27.1006 6.57943 25.69L6.38059 23.6485C6.29988 23.2236 6.01968 22.8635 5.62765 22.6808L4.41967 22.2657C2.60313 21.4192 1.99471 19.3698 3.03772 17.6585L3.71857 16.717C3.99205 16.2683 3.97904 15.7014 3.68529 15.2657L3.17747 14.5469C1.74 12.5001 2.73386 10.2122 4.86397 9.52633L5.33377 9.37506C5.8523 9.2081 6.35318 8.77748 6.39627 8.23444L6.50089 6.91619C6.67069 4.77644 8.62321 3.54863 10.6769 4.17295L11.3415 4.37501C11.9821 4.62501 12.4841 4.4121 12.8337 4.03126L13.5525 3.1143Z"
            fill="url(#paint4_radial_8_275)" />
        <path
            d="M13.5525 3.1143C15.0837 1.39068 17.1656 1.665 18.4978 3.1143L19.3102 4.05491C19.5915 4.36096 19.9986 4.51967 20.4128 4.48479L21.8572 4.05491C23.8259 3.63287 25.615 5.10162 25.615 7.38287V8.24224C25.6567 8.71136 26.0665 9.02938 26.4897 9.23606L27.7947 9.78131C29.6823 10.7032 30.154 12.8907 28.779 14.7266L28.3884 15.2422C28.038 15.7159 28.11 16.3376 28.4587 16.8126L28.8493 17.3594C30.2712 19.1094 29.4695 21.5104 27.461 22.3492L26.3377 22.8184C25.9145 22.9951 25.7488 23.2984 25.6697 23.7501L25.5915 25.2188C25.3181 27.2344 23.5279 28.1449 22.0915 27.9415L20.3806 27.4844C19.9697 27.4262 19.4587 27.5626 19.1853 27.9922L18.5681 28.836C17.0368 30.5626 14.9701 30.2755 13.9275 29.2657L12.7889 27.8868C12.4908 27.5981 12.115 27.3516 11.6651 27.5214L9.94309 27.9922C8.52142 28.1936 6.84738 27.1006 6.57943 25.69L6.38059 23.6485C6.29988 23.2236 6.01968 22.8635 5.62765 22.6808L4.41967 22.2657C2.60313 21.4192 1.99471 19.3698 3.03772 17.6585L3.71857 16.717C3.99205 16.2683 3.97904 15.7014 3.68529 15.2657L3.17747 14.5469C1.74 12.5001 2.73386 10.2122 4.86397 9.52633L5.33377 9.37506C5.8523 9.2081 6.35318 8.77748 6.39627 8.23444L6.50089 6.91619C6.67069 4.77644 8.62321 3.54863 10.6769 4.17295L11.3415 4.37501C11.9821 4.62501 12.4841 4.4121 12.8337 4.03126L13.5525 3.1143Z"
            fill="url(#paint5_radial_8_275)" />
        <path
            d="M13.5525 3.1143C15.0837 1.39068 17.1656 1.665 18.4978 3.1143L19.3102 4.05491C19.5915 4.36096 19.9986 4.51967 20.4128 4.48479L21.8572 4.05491C23.8259 3.63287 25.615 5.10162 25.615 7.38287V8.24224C25.6567 8.71136 26.0665 9.02938 26.4897 9.23606L27.7947 9.78131C29.6823 10.7032 30.154 12.8907 28.779 14.7266L28.3884 15.2422C28.038 15.7159 28.11 16.3376 28.4587 16.8126L28.8493 17.3594C30.2712 19.1094 29.4695 21.5104 27.461 22.3492L26.3377 22.8184C25.9145 22.9951 25.7488 23.2984 25.6697 23.7501L25.5915 25.2188C25.3181 27.2344 23.5279 28.1449 22.0915 27.9415L20.3806 27.4844C19.9697 27.4262 19.4587 27.5626 19.1853 27.9922L18.5681 28.836C17.0368 30.5626 14.9701 30.2755 13.9275 29.2657L12.7889 27.8868C12.4908 27.5981 12.115 27.3516 11.6651 27.5214L9.94309 27.9922C8.52142 28.1936 6.84738 27.1006 6.57943 25.69L6.38059 23.6485C6.29988 23.2236 6.01968 22.8635 5.62765 22.6808L4.41967 22.2657C2.60313 21.4192 1.99471 19.3698 3.03772 17.6585L3.71857 16.717C3.99205 16.2683 3.97904 15.7014 3.68529 15.2657L3.17747 14.5469C1.74 12.5001 2.73386 10.2122 4.86397 9.52633L5.33377 9.37506C5.8523 9.2081 6.35318 8.77748 6.39627 8.23444L6.50089 6.91619C6.67069 4.77644 8.62321 3.54863 10.6769 4.17295L11.3415 4.37501C11.9821 4.62501 12.4841 4.4121 12.8337 4.03126L13.5525 3.1143Z"
            fill="url(#paint6_radial_8_275)" />
        <path
            d="M13.5525 3.1143C15.0837 1.39068 17.1656 1.665 18.4978 3.1143L19.3102 4.05491C19.5915 4.36096 19.9986 4.51967 20.4128 4.48479L21.8572 4.05491C23.8259 3.63287 25.615 5.10162 25.615 7.38287V8.24224C25.6567 8.71136 26.0665 9.02938 26.4897 9.23606L27.7947 9.78131C29.6823 10.7032 30.154 12.8907 28.779 14.7266L28.3884 15.2422C28.038 15.7159 28.11 16.3376 28.4587 16.8126L28.8493 17.3594C30.2712 19.1094 29.4695 21.5104 27.461 22.3492L26.3377 22.8184C25.9145 22.9951 25.7488 23.2984 25.6697 23.7501L25.5915 25.2188C25.3181 27.2344 23.5279 28.1449 22.0915 27.9415L20.3806 27.4844C19.9697 27.4262 19.4587 27.5626 19.1853 27.9922L18.5681 28.836C17.0368 30.5626 14.9701 30.2755 13.9275 29.2657L12.7889 27.8868C12.4908 27.5981 12.115 27.3516 11.6651 27.5214L9.94309 27.9922C8.52142 28.1936 6.84738 27.1006 6.57943 25.69L6.38059 23.6485C6.29988 23.2236 6.01968 22.8635 5.62765 22.6808L4.41967 22.2657C2.60313 21.4192 1.99471 19.3698 3.03772 17.6585L3.71857 16.717C3.99205 16.2683 3.97904 15.7014 3.68529 15.2657L3.17747 14.5469C1.74 12.5001 2.73386 10.2122 4.86397 9.52633L5.33377 9.37506C5.8523 9.2081 6.35318 8.77748 6.39627 8.23444L6.50089 6.91619C6.67069 4.77644 8.62321 3.54863 10.6769 4.17295L11.3415 4.37501C11.9821 4.62501 12.4841 4.4121 12.8337 4.03126L13.5525 3.1143Z"
            fill="url(#paint7_radial_8_275)" />
        <path
            d="M13.5525 3.1143C15.0837 1.39068 17.1656 1.665 18.4978 3.1143L19.3102 4.05491C19.5915 4.36096 19.9986 4.51967 20.4128 4.48479L21.8572 4.05491C23.8259 3.63287 25.615 5.10162 25.615 7.38287V8.24224C25.6567 8.71136 26.0665 9.02938 26.4897 9.23606L27.7947 9.78131C29.6823 10.7032 30.154 12.8907 28.779 14.7266L28.3884 15.2422C28.038 15.7159 28.11 16.3376 28.4587 16.8126L28.8493 17.3594C30.2712 19.1094 29.4695 21.5104 27.461 22.3492L26.3377 22.8184C25.9145 22.9951 25.7488 23.2984 25.6697 23.7501L25.5915 25.2188C25.3181 27.2344 23.5279 28.1449 22.0915 27.9415L20.3806 27.4844C19.9697 27.4262 19.4587 27.5626 19.1853 27.9922L18.5681 28.836C17.0368 30.5626 14.9701 30.2755 13.9275 29.2657L12.7889 27.8868C12.4908 27.5981 12.115 27.3516 11.6651 27.5214L9.94309 27.9922C8.52142 28.1936 6.84738 27.1006 6.57943 25.69L6.38059 23.6485C6.29988 23.2236 6.01968 22.8635 5.62765 22.6808L4.41967 22.2657C2.60313 21.4192 1.99471 19.3698 3.03772 17.6585L3.71857 16.717C3.99205 16.2683 3.97904 15.7014 3.68529 15.2657L3.17747 14.5469C1.74 12.5001 2.73386 10.2122 4.86397 9.52633L5.33377 9.37506C5.8523 9.2081 6.35318 8.77748 6.39627 8.23444L6.50089 6.91619C6.67069 4.77644 8.62321 3.54863 10.6769 4.17295L11.3415 4.37501C11.9821 4.62501 12.4841 4.4121 12.8337 4.03126L13.5525 3.1143Z"
            fill="url(#paint8_radial_8_275)" />
        <path
            d="M13.5525 3.1143C15.0837 1.39068 17.1656 1.665 18.4978 3.1143L19.3102 4.05491C19.5915 4.36096 19.9986 4.51967 20.4128 4.48479L21.8572 4.05491C23.8259 3.63287 25.615 5.10162 25.615 7.38287V8.24224C25.6567 8.71136 26.0665 9.02938 26.4897 9.23606L27.7947 9.78131C29.6823 10.7032 30.154 12.8907 28.779 14.7266L28.3884 15.2422C28.038 15.7159 28.11 16.3376 28.4587 16.8126L28.8493 17.3594C30.2712 19.1094 29.4695 21.5104 27.461 22.3492L26.3377 22.8184C25.9145 22.9951 25.7488 23.2984 25.6697 23.7501L25.5915 25.2188C25.3181 27.2344 23.5279 28.1449 22.0915 27.9415L20.3806 27.4844C19.9697 27.4262 19.4587 27.5626 19.1853 27.9922L18.5681 28.836C17.0368 30.5626 14.9701 30.2755 13.9275 29.2657L12.7889 27.8868C12.4908 27.5981 12.115 27.3516 11.6651 27.5214L9.94309 27.9922C8.52142 28.1936 6.84738 27.1006 6.57943 25.69L6.38059 23.6485C6.29988 23.2236 6.01968 22.8635 5.62765 22.6808L4.41967 22.2657C2.60313 21.4192 1.99471 19.3698 3.03772 17.6585L3.71857 16.717C3.99205 16.2683 3.97904 15.7014 3.68529 15.2657L3.17747 14.5469C1.74 12.5001 2.73386 10.2122 4.86397 9.52633L5.33377 9.37506C5.8523 9.2081 6.35318 8.77748 6.39627 8.23444L6.50089 6.91619C6.67069 4.77644 8.62321 3.54863 10.6769 4.17295L11.3415 4.37501C11.9821 4.62501 12.4841 4.4121 12.8337 4.03126L13.5525 3.1143Z"
            fill="url(#paint9_radial_8_275)" />
    </g>
    <g filter="url(#filter1_d_8_275)">
        <path
            d="M16.0363 26.7174C21.9695 26.7174 26.7792 21.9076 26.7792 15.9744C26.7792 10.0412 21.9695 5.23145 16.0363 5.23145C10.1031 5.23145 5.29333 10.0412 5.29333 15.9744C5.29333 21.9076 10.1031 26.7174 16.0363 26.7174Z"
            fill="url(#paint10_radial_8_275)" />
    </g>
    <g opacity="0.44" filter="url(#filter2_f_8_275)">
        <path
            d="M9.42625 19.5398C11.061 19.5398 12.3862 18.2145 12.3862 16.5798C12.3862 14.945 11.061 13.6198 9.42625 13.6198C7.79148 13.6198 6.46625 14.945 6.46625 16.5798C6.46625 18.2145 7.79148 19.5398 9.42625 19.5398Z"
            fill="url(#paint11_radial_8_275)" />
    </g>
    <g opacity="0.44" filter="url(#filter3_f_8_275)">
        <path
            d="M22.6463 19.5398C24.2811 19.5398 25.6063 18.2145 25.6063 16.5798C25.6063 14.945 24.2811 13.6198 22.6463 13.6198C21.0116 13.6198 19.6863 14.945 19.6863 16.5798C19.6863 18.2145 21.0116 19.5398 22.6463 19.5398Z"
            fill="url(#paint12_radial_8_275)" />
    </g>
    <g filter="url(#filter4_f_8_275)">
        <path fill-rule="evenodd" clip-rule="evenodd"
            d="M11.071 18.0906C11.3639 17.7977 11.8388 17.7977 12.1316 18.0906C14.2888 20.2477 17.7839 20.2477 19.941 18.0906C20.2339 17.7977 20.7088 17.7977 21.0016 18.0906C21.2945 18.3835 21.2945 18.8584 21.0016 19.1513C18.2588 21.8942 13.8139 21.8942 11.071 19.1513C10.7781 18.8584 10.7781 18.3835 11.071 18.0906Z"
            fill="#D6961E" />
    </g>
    <g filter="url(#filter5_i_8_275)">
        <path fill-rule="evenodd" clip-rule="evenodd"
            d="M11.3259 17.7194C11.6188 17.4265 12.0937 17.4265 12.3866 17.7194C14.5437 19.8765 18.0388 19.8765 20.1959 17.7194C20.4888 17.4265 20.9637 17.4265 21.2566 17.7194C21.5495 18.0123 21.5495 18.4872 21.2566 18.7801C18.5137 21.523 14.0688 21.523 11.3259 18.7801C11.033 18.4872 11.033 18.0123 11.3259 17.7194Z"
            fill="url(#paint13_linear_8_275)" />
        <path fill-rule="evenodd" clip-rule="evenodd"
            d="M11.3259 17.7194C11.6188 17.4265 12.0937 17.4265 12.3866 17.7194C14.5437 19.8765 18.0388 19.8765 20.1959 17.7194C20.4888 17.4265 20.9637 17.4265 21.2566 17.7194C21.5495 18.0123 21.5495 18.4872 21.2566 18.7801C18.5137 21.523 14.0688 21.523 11.3259 18.7801C11.033 18.4872 11.033 18.0123 11.3259 17.7194Z"
            fill="url(#paint14_linear_8_275)" />
    </g>
    <g filter="url(#filter6_f_8_275)">
        <path d="M11.8911 18.2734C13.3316 19.622 17.1015 21.51 20.6569 18.2734"
            stroke="url(#paint15_linear_8_275)" stroke-width="0.6" stroke-linecap="round" />
        <path d="M11.8911 18.2734C13.3316 19.622 17.1015 21.51 20.6569 18.2734"
            stroke="url(#paint16_linear_8_275)" stroke-width="0.6" stroke-linecap="round" />
    </g>
    <g filter="url(#filter7_f_8_275)">
        <path fill-rule="evenodd" clip-rule="evenodd"
            d="M11.8727 12.8398C11.3325 12.8398 10.8763 13.1682 10.6932 13.6348C10.554 13.9896 10.1535 14.1644 9.79864 14.0251C9.44382 13.8859 9.26906 13.4854 9.40829 13.1306C9.79573 12.1432 10.7566 11.4595 11.8727 11.4595C13.0435 11.4595 14.0386 12.2195 14.387 13.2772C14.5063 13.6392 14.3095 14.0293 13.9474 14.1486C13.5854 14.2679 13.1953 14.071 13.076 13.709C12.9091 13.2024 12.4319 12.8398 11.8727 12.8398Z"
            fill="#C68D0F" />
    </g>
    <path fill-rule="evenodd" clip-rule="evenodd"
        d="M12.0063 12.6598C11.4193 12.6598 10.9235 13.0167 10.7245 13.5238C10.5732 13.9093 10.1379 14.0993 9.75236 13.948C9.36677 13.7967 9.17685 13.3614 9.32815 12.9758C9.74919 11.9029 10.7934 11.1598 12.0063 11.1598C13.2786 11.1598 14.36 11.9857 14.7387 13.1351C14.8683 13.5286 14.6544 13.9525 14.261 14.0821C13.8676 14.2117 13.4436 13.9979 13.314 13.6044C13.1326 13.0538 12.614 12.6598 12.0063 12.6598Z"
        fill="url(#paint17_linear_8_275)" />
    <g filter="url(#filter8_f_8_275)">
        <path fill-rule="evenodd" clip-rule="evenodd"
            d="M20.5321 12.8398C19.9919 12.8398 19.5356 13.1682 19.3526 13.6348C19.2133 13.9896 18.8128 14.1644 18.458 14.0251C18.1032 13.8859 17.9284 13.4854 18.0677 13.1306C18.4551 12.1432 19.4159 11.4595 20.5321 11.4595C21.7028 11.4595 22.698 12.2195 23.0464 13.2772C23.1656 13.6392 22.9688 14.0293 22.6068 14.1486C22.2448 14.2679 21.8546 14.071 21.7354 13.709C21.5685 13.2024 21.0913 12.8398 20.5321 12.8398Z"
            fill="#C68D0F" />
    </g>
    <g filter="url(#filter9_i_8_275)">
        <path fill-rule="evenodd" clip-rule="evenodd"
            d="M20.6263 12.6598C20.0393 12.6598 19.5435 13.0167 19.3445 13.5238C19.1932 13.9093 18.7579 14.0993 18.3724 13.948C17.9868 13.7967 17.7968 13.3614 17.9481 12.9758C18.3692 11.9029 19.4134 11.1598 20.6263 11.1598C21.8986 11.1598 22.98 11.9857 23.3587 13.1351C23.4883 13.5286 23.2744 13.9525 22.881 14.0821C22.4876 14.2117 22.0636 13.9979 21.934 13.6044C21.7526 13.0538 21.234 12.6598 20.6263 12.6598Z"
            fill="#422E51" />
    </g>
    <g filter="url(#filter10_f_8_275)">
        <path d="M14.1625 13.4852C14.0511 12.8165 13.3526 11.5385 11.4504 11.7763"
            stroke="url(#paint18_linear_8_275)" stroke-width="0.5" stroke-linecap="round" />
    </g>
    <g opacity="0.5" filter="url(#filter11_f_8_275)">
        <path
            d="M18.7522 13.1128C18.936 12.6777 19.5722 11.8185 20.6458 11.8626C21.7195 11.9067 22.5701 12.647 22.7969 13.1128"
            stroke="url(#paint19_linear_8_275)" stroke-width="0.5" stroke-linecap="round" />
    </g>
    <g filter="url(#filter12_f_8_275)">
        <path
            d="M8.49437 15.1519C8.62624 15.6982 9.00512 16.7361 10.2149 17.0356C10.3952 17.0803 10.5725 17.1127 10.7503 17.1372C10.7589 17.1384 10.7676 17.1394 10.7763 17.1402C13.3715 17.3834 15.0872 15.1896 15.171 12.8029C15.1779 12.6051 15.3302 12.4379 15.5281 12.4353C15.6335 12.4339 15.7428 12.4341 15.8553 12.436C16.0524 12.4395 16.2037 12.6063 16.2107 12.8033C16.2954 15.1899 18.0095 17.3835 20.6052 17.1402C20.6139 17.1394 20.6226 17.1384 20.6312 17.1372C20.809 17.1127 20.9863 17.0803 21.1666 17.0356C22.7693 16.6388 23.7636 15.5854 24.272 14.4556C24.1932 13.9776 24.0809 13.5145 23.9351 13.0701C23.783 14.3983 23.0718 14.5661 21.1666 15.0377C21.0098 15.0765 20.4739 15.4501 20.3141 15.4722C18.5056 15.6417 17.9969 14.4556 16.9718 12.5616L16.9717 12.5427C16.9717 12.534 16.9718 12.5253 16.9719 12.5166C17.0383 12.5253 17.105 12.5348 17.172 12.5451L17.3369 11.4748C17.5275 11.2292 17.7823 11.0359 18.0762 10.9203C18.1452 10.8904 18.3067 10.8226 18.8061 10.7295C19.3214 10.6334 20.6969 10.6345 21.5365 10.6352L21.7238 10.6353C22.1671 10.6353 22.5697 10.764 22.8297 10.8817C22.6173 10.5893 22.3834 10.3131 22.1282 10.055C21.9956 10.0406 21.8599 10.0325 21.7238 10.0325L21.5342 10.0324C21.1158 10.032 20.5564 10.0316 20.036 10.0434C19.5319 10.0548 18.7851 10.087 18.4712 10.1455C17.9522 10.2423 17.7428 10.3198 17.6217 10.3716C17.2884 10.5044 17.0021 10.7091 16.7762 10.9673C16.6277 11.137 16.4172 11.2503 16.1919 11.2403C15.8301 11.2242 15.4899 11.2261 15.1854 11.2384C14.9612 11.2475 14.7521 11.1346 14.6042 10.9659C14.3784 10.7084 14.0926 10.5042 13.7599 10.3716C13.6387 10.3198 13.4293 10.2423 12.9104 10.1455C12.5965 10.087 11.8496 10.0548 11.3455 10.0434C10.8252 10.0316 10.2657 10.032 9.84737 10.0324L9.83962 10.0324C9.6398 10.2326 9.45297 10.4438 9.27913 10.6653C9.40006 10.6465 9.52713 10.6353 9.65773 10.6353L9.84506 10.6352C10.6846 10.6345 12.0601 10.6334 12.5754 10.7295C13.0748 10.8226 13.2363 10.8904 13.3053 10.9203C13.5884 11.0316 13.8352 11.215 14.0233 11.4479L14.2293 12.5417C14.2785 12.5325 14.3389 12.5227 14.4096 12.5128C14.4097 12.5228 14.4098 12.5327 14.4098 12.5427L14.4097 12.5616C14.518 15.1001 12.5848 16.6301 10.7763 16.4605C10.6164 16.4385 10.4603 16.4098 10.3035 16.371C8.91787 16.0279 9.01857 15.01 8.62624 14.0404C8.55664 14.3965 8.52593 14.7796 8.49437 15.1519Z"
            fill="url(#paint20_linear_8_275)" />
    </g>
    <path fill-rule="evenodd" clip-rule="evenodd"
        d="M14.0691 9.76874C14.4019 9.90132 14.6877 10.1056 14.9134 10.3631C15.0614 10.5318 15.2704 10.6447 15.4946 10.6356C15.7992 10.6232 16.1394 10.6214 16.5011 10.6374C16.7265 10.6474 16.9369 10.5341 17.0854 10.3644C17.3114 10.1063 17.5976 9.90155 17.9309 9.76874C18.0521 9.71694 18.2615 9.63942 18.7804 9.54267C19.0943 9.48414 19.8411 9.45201 20.3452 9.44056C20.8655 9.42875 21.425 9.4292 21.8434 9.42953L22.033 9.42964C22.75 9.42964 23.4574 9.65618 23.738 9.82525C24.369 10.1455 24.953 10.7578 24.9949 11.8114C24.9966 11.8271 24.9978 11.843 24.9983 11.859C25.048 13.4796 24.0416 15.7975 21.4759 16.4327C21.2955 16.4774 21.1183 16.5098 20.9405 16.5343C20.9319 16.5355 20.9232 16.5365 20.9145 16.5373C18.3187 16.7806 16.6047 14.587 16.5199 12.2004C16.5129 12.0034 16.3617 11.8366 16.1646 11.8332C16.0521 11.8312 15.9428 11.8311 15.8374 11.8324C15.6395 11.835 15.4872 12.0023 15.4802 12.2001C15.3965 14.5868 13.6807 16.7806 11.0855 16.5373C11.0768 16.5365 11.0682 16.5355 11.0595 16.5343C10.8818 16.5098 10.7045 16.4774 10.5242 16.4327C7.95842 15.7975 6.95203 13.4796 7.00175 11.859C7.00224 11.843 7.00336 11.8271 7.0051 11.8114C7.04698 10.7578 7.63098 10.1455 8.26208 9.82525C8.54259 9.65618 9.24998 9.42964 9.96698 9.42964L10.1566 9.42953C10.5749 9.4292 11.1344 9.42875 11.6548 9.44056C12.1589 9.45201 12.9057 9.48414 13.2196 9.54267C13.7385 9.63942 13.9479 9.71694 14.0691 9.76874ZM7.85596 11.275C8.0066 10.9081 8.28622 10.6083 8.66267 10.3814C8.87434 10.2538 9.38563 10.0325 9.96698 10.0325L10.1543 10.0324C10.9939 10.0317 12.3694 10.0306 12.8846 10.1267C13.3841 10.2198 13.5456 10.2876 13.6146 10.3174C13.8976 10.4288 14.1444 10.6122 14.3325 10.845L14.5385 11.9389C14.5877 11.9296 14.6482 11.9198 14.7188 11.91C14.7189 11.9199 14.7191 11.9299 14.7191 11.9399L14.7189 11.9587C14.8273 14.4972 12.894 16.0272 11.0855 15.8577C10.9257 15.8356 10.7696 15.8069 10.6128 15.7681C8.70761 15.2965 7.90777 13.7955 7.7556 12.4672C7.73217 12.2626 7.72409 12.0622 7.72971 11.8702L7.72988 11.8648L7.73109 11.8648L7.73131 11.859C7.7397 11.6488 7.78249 11.454 7.85596 11.275ZM17.2811 11.9138C17.281 11.9225 17.2809 11.9312 17.2809 11.9399L17.2811 11.9587C17.1727 14.4972 19.106 16.0272 20.9145 15.8577C21.0744 15.8356 21.2304 15.8069 21.3872 15.7681C23.2924 15.2965 24.0922 13.7955 24.2444 12.4672C24.2679 12.2626 24.2759 12.0622 24.2703 11.8702L24.2701 11.8648L24.2689 11.8648L24.2687 11.859C24.2603 11.6488 24.2175 11.454 24.144 11.275C23.9934 10.9081 23.7138 10.6083 23.3374 10.3814C23.1257 10.2538 22.6144 10.0325 22.033 10.0325L21.8457 10.0324C21.0061 10.0317 19.6306 10.0306 19.1154 10.1267C18.6159 10.2198 18.4544 10.2876 18.3854 10.3174C18.0915 10.4331 17.8367 10.6263 17.6461 10.8719L17.4812 11.9423C17.4143 11.932 17.3476 11.9225 17.2811 11.9138Z"
        fill="url(#paint21_radial_8_275)" />
    <path fill-rule="evenodd" clip-rule="evenodd"
        d="M14.0691 9.76874C14.4019 9.90132 14.6877 10.1056 14.9134 10.3631C15.0614 10.5318 15.2704 10.6447 15.4946 10.6356C15.7992 10.6232 16.1394 10.6214 16.5011 10.6374C16.7265 10.6474 16.9369 10.5341 17.0854 10.3644C17.3114 10.1063 17.5976 9.90155 17.9309 9.76874C18.0521 9.71694 18.2615 9.63942 18.7804 9.54267C19.0943 9.48414 19.8411 9.45201 20.3452 9.44056C20.8655 9.42875 21.425 9.4292 21.8434 9.42953L22.033 9.42964C22.75 9.42964 23.4574 9.65618 23.738 9.82525C24.369 10.1455 24.953 10.7578 24.9949 11.8114C24.9966 11.8271 24.9978 11.843 24.9983 11.859C25.048 13.4796 24.0416 15.7975 21.4759 16.4327C21.2955 16.4774 21.1183 16.5098 20.9405 16.5343C20.9319 16.5355 20.9232 16.5365 20.9145 16.5373C18.3187 16.7806 16.6047 14.587 16.5199 12.2004C16.5129 12.0034 16.3617 11.8366 16.1646 11.8332C16.0521 11.8312 15.9428 11.8311 15.8374 11.8324C15.6395 11.835 15.4872 12.0023 15.4802 12.2001C15.3965 14.5868 13.6807 16.7806 11.0855 16.5373C11.0768 16.5365 11.0682 16.5355 11.0595 16.5343C10.8818 16.5098 10.7045 16.4774 10.5242 16.4327C7.95842 15.7975 6.95203 13.4796 7.00175 11.859C7.00224 11.843 7.00336 11.8271 7.0051 11.8114C7.04698 10.7578 7.63098 10.1455 8.26208 9.82525C8.54259 9.65618 9.24998 9.42964 9.96698 9.42964L10.1566 9.42953C10.5749 9.4292 11.1344 9.42875 11.6548 9.44056C12.1589 9.45201 12.9057 9.48414 13.2196 9.54267C13.7385 9.63942 13.9479 9.71694 14.0691 9.76874ZM7.85596 11.275C8.0066 10.9081 8.28622 10.6083 8.66267 10.3814C8.87434 10.2538 9.38563 10.0325 9.96698 10.0325L10.1543 10.0324C10.9939 10.0317 12.3694 10.0306 12.8846 10.1267C13.3841 10.2198 13.5456 10.2876 13.6146 10.3174C13.8976 10.4288 14.1444 10.6122 14.3325 10.845L14.5385 11.9389C14.5877 11.9296 14.6482 11.9198 14.7188 11.91C14.7189 11.9199 14.7191 11.9299 14.7191 11.9399L14.7189 11.9587C14.8273 14.4972 12.894 16.0272 11.0855 15.8577C10.9257 15.8356 10.7696 15.8069 10.6128 15.7681C8.70761 15.2965 7.90777 13.7955 7.7556 12.4672C7.73217 12.2626 7.72409 12.0622 7.72971 11.8702L7.72988 11.8648L7.73109 11.8648L7.73131 11.859C7.7397 11.6488 7.78249 11.454 7.85596 11.275ZM17.2811 11.9138C17.281 11.9225 17.2809 11.9312 17.2809 11.9399L17.2811 11.9587C17.1727 14.4972 19.106 16.0272 20.9145 15.8577C21.0744 15.8356 21.2304 15.8069 21.3872 15.7681C23.2924 15.2965 24.0922 13.7955 24.2444 12.4672C24.2679 12.2626 24.2759 12.0622 24.2703 11.8702L24.2701 11.8648L24.2689 11.8648L24.2687 11.859C24.2603 11.6488 24.2175 11.454 24.144 11.275C23.9934 10.9081 23.7138 10.6083 23.3374 10.3814C23.1257 10.2538 22.6144 10.0325 22.033 10.0325L21.8457 10.0324C21.0061 10.0317 19.6306 10.0306 19.1154 10.1267C18.6159 10.2198 18.4544 10.2876 18.3854 10.3174C18.0915 10.4331 17.8367 10.6263 17.6461 10.8719L17.4812 11.9423C17.4143 11.932 17.3476 11.9225 17.2811 11.9138Z"
        fill="url(#paint22_radial_8_275)" />
    <path fill-rule="evenodd" clip-rule="evenodd"
        d="M14.0691 9.76874C14.4019 9.90132 14.6877 10.1056 14.9134 10.3631C15.0614 10.5318 15.2704 10.6447 15.4946 10.6356C15.7992 10.6232 16.1394 10.6214 16.5011 10.6374C16.7265 10.6474 16.9369 10.5341 17.0854 10.3644C17.3114 10.1063 17.5976 9.90155 17.9309 9.76874C18.0521 9.71694 18.2615 9.63942 18.7804 9.54267C19.0943 9.48414 19.8411 9.45201 20.3452 9.44056C20.8655 9.42875 21.425 9.4292 21.8434 9.42953L22.033 9.42964C22.75 9.42964 23.4574 9.65618 23.738 9.82525C24.369 10.1455 24.953 10.7578 24.9949 11.8114C24.9966 11.8271 24.9978 11.843 24.9983 11.859C25.048 13.4796 24.0416 15.7975 21.4759 16.4327C21.2955 16.4774 21.1183 16.5098 20.9405 16.5343C20.9319 16.5355 20.9232 16.5365 20.9145 16.5373C18.3187 16.7806 16.6047 14.587 16.5199 12.2004C16.5129 12.0034 16.3617 11.8366 16.1646 11.8332C16.0521 11.8312 15.9428 11.8311 15.8374 11.8324C15.6395 11.835 15.4872 12.0023 15.4802 12.2001C15.3965 14.5868 13.6807 16.7806 11.0855 16.5373C11.0768 16.5365 11.0682 16.5355 11.0595 16.5343C10.8818 16.5098 10.7045 16.4774 10.5242 16.4327C7.95842 15.7975 6.95203 13.4796 7.00175 11.859C7.00224 11.843 7.00336 11.8271 7.0051 11.8114C7.04698 10.7578 7.63098 10.1455 8.26208 9.82525C8.54259 9.65618 9.24998 9.42964 9.96698 9.42964L10.1566 9.42953C10.5749 9.4292 11.1344 9.42875 11.6548 9.44056C12.1589 9.45201 12.9057 9.48414 13.2196 9.54267C13.7385 9.63942 13.9479 9.71694 14.0691 9.76874ZM7.85596 11.275C8.0066 10.9081 8.28622 10.6083 8.66267 10.3814C8.87434 10.2538 9.38563 10.0325 9.96698 10.0325L10.1543 10.0324C10.9939 10.0317 12.3694 10.0306 12.8846 10.1267C13.3841 10.2198 13.5456 10.2876 13.6146 10.3174C13.8976 10.4288 14.1444 10.6122 14.3325 10.845L14.5385 11.9389C14.5877 11.9296 14.6482 11.9198 14.7188 11.91C14.7189 11.9199 14.7191 11.9299 14.7191 11.9399L14.7189 11.9587C14.8273 14.4972 12.894 16.0272 11.0855 15.8577C10.9257 15.8356 10.7696 15.8069 10.6128 15.7681C8.70761 15.2965 7.90777 13.7955 7.7556 12.4672C7.73217 12.2626 7.72409 12.0622 7.72971 11.8702L7.72988 11.8648L7.73109 11.8648L7.73131 11.859C7.7397 11.6488 7.78249 11.454 7.85596 11.275ZM17.2811 11.9138C17.281 11.9225 17.2809 11.9312 17.2809 11.9399L17.2811 11.9587C17.1727 14.4972 19.106 16.0272 20.9145 15.8577C21.0744 15.8356 21.2304 15.8069 21.3872 15.7681C23.2924 15.2965 24.0922 13.7955 24.2444 12.4672C24.2679 12.2626 24.2759 12.0622 24.2703 11.8702L24.2701 11.8648L24.2689 11.8648L24.2687 11.859C24.2603 11.6488 24.2175 11.454 24.144 11.275C23.9934 10.9081 23.7138 10.6083 23.3374 10.3814C23.1257 10.2538 22.6144 10.0325 22.033 10.0325L21.8457 10.0324C21.0061 10.0317 19.6306 10.0306 19.1154 10.1267C18.6159 10.2198 18.4544 10.2876 18.3854 10.3174C18.0915 10.4331 17.8367 10.6263 17.6461 10.8719L17.4812 11.9423C17.4143 11.932 17.3476 11.9225 17.2811 11.9138Z"
        fill="url(#paint23_radial_8_275)" />
    <path
        d="M8.66268 10.3814C8.87435 10.2538 9.38565 10.0325 9.96699 10.0325C10.0257 10.0325 10.0883 10.0324 10.1543 10.0324C10.9939 10.0317 12.3694 10.0306 12.8846 10.1267C13.3841 10.2198 13.5456 10.2876 13.6147 10.3174C14.2615 10.572 14.7191 11.2027 14.7191 11.9399L14.7189 11.9587C14.8273 14.4972 12.8941 16.0272 11.0855 15.8577C10.9257 15.8356 10.7696 15.8069 10.6128 15.7681C8.41136 15.2231 7.68575 13.3038 7.72989 11.8645L7.73111 11.8649C7.75482 11.221 8.10095 10.72 8.66268 10.3814Z"
        fill="url(#paint24_radial_8_275)" />
    <path
        d="M8.66268 10.3814C8.87435 10.2538 9.38565 10.0325 9.96699 10.0325C10.0257 10.0325 10.0883 10.0324 10.1543 10.0324C10.9939 10.0317 12.3694 10.0306 12.8846 10.1267C13.3841 10.2198 13.5456 10.2876 13.6147 10.3174C14.2615 10.572 14.7191 11.2027 14.7191 11.9399L14.7189 11.9587C14.8273 14.4972 12.8941 16.0272 11.0855 15.8577C10.9257 15.8356 10.7696 15.8069 10.6128 15.7681C8.41136 15.2231 7.68575 13.3038 7.72989 11.8645L7.73111 11.8649C7.75482 11.221 8.10095 10.72 8.66268 10.3814Z"
        fill="url(#paint25_radial_8_275)" />
    <path
        d="M8.66268 10.3814C8.87435 10.2538 9.38565 10.0325 9.96699 10.0325C10.0257 10.0325 10.0883 10.0324 10.1543 10.0324C10.9939 10.0317 12.3694 10.0306 12.8846 10.1267C13.3841 10.2198 13.5456 10.2876 13.6147 10.3174C14.2615 10.572 14.7191 11.2027 14.7191 11.9399L14.7189 11.9587C14.8273 14.4972 12.8941 16.0272 11.0855 15.8577C10.9257 15.8356 10.7696 15.8069 10.6128 15.7681C8.41136 15.2231 7.68575 13.3038 7.72989 11.8645L7.73111 11.8649C7.75482 11.221 8.10095 10.72 8.66268 10.3814Z"
        fill="url(#paint26_radial_8_275)" />
    <path
        d="M8.66268 10.3814C8.87435 10.2538 9.38565 10.0325 9.96699 10.0325C10.0257 10.0325 10.0883 10.0324 10.1543 10.0324C10.9939 10.0317 12.3694 10.0306 12.8846 10.1267C13.3841 10.2198 13.5456 10.2876 13.6147 10.3174C14.2615 10.572 14.7191 11.2027 14.7191 11.9399L14.7189 11.9587C14.8273 14.4972 12.8941 16.0272 11.0855 15.8577C10.9257 15.8356 10.7696 15.8069 10.6128 15.7681C8.41136 15.2231 7.68575 13.3038 7.72989 11.8645L7.73111 11.8649C7.75482 11.221 8.10095 10.72 8.66268 10.3814Z"
        fill="url(#paint27_radial_8_275)" />
    <path
        d="M13.5642 12.8837C14.0118 12.6665 14.1532 12.0342 13.8801 11.4713C13.607 10.9085 13.0228 10.6282 12.5752 10.8454C12.1276 11.0625 11.9862 11.6949 12.2593 12.2577C12.5324 12.8206 13.1166 13.1009 13.5642 12.8837Z"
        fill="url(#paint28_linear_8_275)" />
    <path
        d="M23.3374 10.3814C23.1257 10.2538 22.6144 10.0325 22.033 10.0325C21.9744 10.0325 21.9117 10.0324 21.8457 10.0324C21.0061 10.0317 19.6306 10.0306 19.1154 10.1267C18.6159 10.2198 18.4544 10.2876 18.3854 10.3174C17.7385 10.572 17.2809 11.2027 17.2809 11.9399L17.2811 11.9587C17.1727 14.4972 19.106 16.0272 20.9145 15.8577C21.0744 15.8356 21.2304 15.8069 21.3872 15.7681C23.5887 15.2231 24.3143 13.3038 24.2701 11.8645L24.2689 11.8649C24.2452 11.221 23.8991 10.72 23.3374 10.3814Z"
        fill="url(#paint29_radial_8_275)" />
    <path
        d="M23.3374 10.3814C23.1257 10.2538 22.6144 10.0325 22.033 10.0325C21.9744 10.0325 21.9117 10.0324 21.8457 10.0324C21.0061 10.0317 19.6306 10.0306 19.1154 10.1267C18.6159 10.2198 18.4544 10.2876 18.3854 10.3174C17.7385 10.572 17.2809 11.2027 17.2809 11.9399L17.2811 11.9587C17.1727 14.4972 19.106 16.0272 20.9145 15.8577C21.0744 15.8356 21.2304 15.8069 21.3872 15.7681C23.5887 15.2231 24.3143 13.3038 24.2701 11.8645L24.2689 11.8649C24.2452 11.221 23.8991 10.72 23.3374 10.3814Z"
        fill="url(#paint30_radial_8_275)" />
    <path
        d="M23.3374 10.3814C23.1257 10.2538 22.6144 10.0325 22.033 10.0325C21.9744 10.0325 21.9117 10.0324 21.8457 10.0324C21.0061 10.0317 19.6306 10.0306 19.1154 10.1267C18.6159 10.2198 18.4544 10.2876 18.3854 10.3174C17.7385 10.572 17.2809 11.2027 17.2809 11.9399L17.2811 11.9587C17.1727 14.4972 19.106 16.0272 20.9145 15.8577C21.0744 15.8356 21.2304 15.8069 21.3872 15.7681C23.5887 15.2231 24.3143 13.3038 24.2701 11.8645L24.2689 11.8649C24.2452 11.221 23.8991 10.72 23.3374 10.3814Z"
        fill="url(#paint31_radial_8_275)" />
    <path
        d="M23.3374 10.3814C23.1257 10.2538 22.6144 10.0325 22.033 10.0325C21.9744 10.0325 21.9117 10.0324 21.8457 10.0324C21.0061 10.0317 19.6306 10.0306 19.1154 10.1267C18.6159 10.2198 18.4544 10.2876 18.3854 10.3174C17.7385 10.572 17.2809 11.2027 17.2809 11.9399L17.2811 11.9587C17.1727 14.4972 19.106 16.0272 20.9145 15.8577C21.0744 15.8356 21.2304 15.8069 21.3872 15.7681C23.5887 15.2231 24.3143 13.3038 24.2701 11.8645L24.2689 11.8649C24.2452 11.221 23.8991 10.72 23.3374 10.3814Z"
        fill="url(#paint32_radial_8_275)" />
    <path
        d="M23.2302 12.8837C23.6778 12.6665 23.8192 12.0342 23.5461 11.4713C23.273 10.9085 22.6888 10.6282 22.2412 10.8454C21.7937 11.0625 21.6522 11.6949 21.9253 12.2577C22.1984 12.8206 22.7827 13.1009 23.2302 12.8837Z"
        fill="url(#paint33_linear_8_275)" />
    <path
        d="M42.396 19.848L43.08 17.544C44.43 18.498 45.24 18.804 46.392 18.804C47.472 18.804 47.976 18.48 47.976 17.832C47.976 17.274 47.598 16.95 46.374 16.518L45.438 16.158C43.512 15.456 42.666 14.52 42.666 13.044C42.666 11.064 44.268 9.696 46.626 9.696C47.778 9.696 48.822 9.984 49.992 10.632L49.344 12.792C49.218 12.738 49.11 12.702 49.056 12.666C48.084 12.27 47.238 12.054 46.518 12.054C45.636 12.054 45.204 12.36 45.204 12.972C45.204 13.404 45.51 13.638 46.698 14.106L47.634 14.466C49.722 15.276 50.55 16.212 50.55 17.742C50.55 19.83 48.912 21.162 46.374 21.162C44.862 21.162 43.494 20.712 42.396 19.848ZM51.7732 12H54.2032V17.22C54.2032 18.408 54.5992 18.93 55.5352 18.93C56.4532 18.93 56.8492 18.408 56.8492 17.22V12H59.2792V17.22C59.2792 19.794 57.9832 21.162 55.5172 21.162C53.0692 21.162 51.7732 19.794 51.7732 17.22V12ZM63.0776 12V12.756C63.6536 12.09 64.2296 11.838 65.1296 11.838C66.1916 11.838 67.0376 12.216 67.6496 12.99C68.2616 12.198 69.0716 11.838 70.1696 11.838C72.3476 11.838 73.5716 13.188 73.5716 15.6V21H71.1416V15.762C71.1416 14.52 70.7996 14.052 69.8816 14.052C68.8556 14.052 68.4416 14.664 68.4416 16.176V21H66.0116V15.762C66.0116 14.538 65.6516 14.052 64.7516 14.052C63.7256 14.052 63.2936 14.682 63.2936 16.176L63.3116 21H60.8816V12H63.0776ZM77.5092 12V12.756C78.0852 12.09 78.6612 11.838 79.5612 11.838C80.6232 11.838 81.4692 12.216 82.0812 12.99C82.6932 12.198 83.5032 11.838 84.6012 11.838C86.7792 11.838 88.0032 13.188 88.0032 15.6V21H85.5732V15.762C85.5732 14.52 85.2312 14.052 84.3132 14.052C83.2872 14.052 82.8732 14.664 82.8732 16.176V21H80.4432V15.762C80.4432 14.538 80.0832 14.052 79.1832 14.052C78.1572 14.052 77.7252 14.682 77.7252 16.176L77.7432 21H75.3132V12H77.5092ZM96.8754 17.508H91.7814C92.0154 18.534 92.6094 19.002 93.6894 19.002C94.4634 19.002 94.8954 18.822 95.7054 18.174L96.9294 19.812C95.8854 20.784 94.9494 21.162 93.5274 21.162C90.9174 21.162 89.2974 19.416 89.2974 16.608C89.2974 13.728 90.8814 11.838 93.2754 11.838C94.6434 11.838 95.7234 12.414 96.3534 13.458C96.7674 14.142 96.9834 15.114 96.9834 16.266C96.9834 16.626 96.9834 16.68 96.8754 17.508ZM91.7454 15.6H94.6254C94.5894 14.592 94.1034 13.998 93.2574 13.998C92.4834 13.998 91.9794 14.52 91.7454 15.6ZM100.765 12V12.936C101.323 12.27 101.989 11.964 102.925 11.91H103.447V14.34H102.925C101.503 14.394 101.017 14.97 100.999 16.572V21H98.5691V12H100.765ZM112.354 11.856C114.802 11.856 116.17 13.53 116.17 16.5C116.17 19.488 114.784 21.144 112.3 21.144C109.798 21.144 108.412 19.488 108.412 16.5C108.412 13.458 109.78 11.856 112.354 11.856ZM112.264 12.81C110.482 12.81 109.474 14.196 109.474 16.608C109.474 18.948 110.446 20.19 112.282 20.19C114.136 20.19 115.108 18.948 115.108 16.608C115.108 14.16 114.1 12.81 112.264 12.81ZM122.478 8.652V9.57C122.064 9.498 121.722 9.462 121.344 9.462C119.958 9.462 119.328 10.164 119.328 11.712V12H122.118L121.722 12.936H119.346V21H118.302V11.712C118.302 9.57 119.274 8.526 121.272 8.526C121.668 8.526 122.064 8.562 122.478 8.652ZM134.599 17.814L135.823 19.74C134.671 20.73 133.501 21.162 131.935 21.162C128.785 21.162 126.931 19.092 126.931 15.528C126.931 11.892 128.839 9.696 132.025 9.696C133.375 9.696 134.311 10.038 135.697 11.082L134.437 13.044C133.375 12.27 132.871 12.072 132.007 12.072C130.405 12.072 129.505 13.296 129.505 15.456C129.505 17.634 130.405 18.786 132.079 18.786C132.979 18.786 133.735 18.48 134.599 17.814ZM140.476 11.838C143.086 11.838 144.598 13.548 144.598 16.5C144.598 19.434 143.068 21.162 140.458 21.162C137.848 21.162 136.336 19.434 136.336 16.446C136.336 13.566 137.884 11.838 140.476 11.838ZM140.476 14.052C139.36 14.052 138.802 14.916 138.802 16.59C138.802 18.192 139.324 18.948 140.476 18.948C141.592 18.948 142.132 18.192 142.132 16.608C142.132 14.916 141.574 14.052 140.476 14.052ZM151.449 8.688H153.843V21H151.611V20.298C151.089 20.874 150.387 21.162 149.505 21.162C147.111 21.162 145.671 19.398 145.671 16.446C145.671 13.566 147.057 11.838 149.361 11.838C150.225 11.838 150.819 12.072 151.449 12.666V8.688ZM149.757 14.052C148.623 14.052 148.137 14.808 148.137 16.554C148.137 18.264 148.605 18.948 149.793 18.948C150.981 18.948 151.449 18.282 151.449 16.608C151.449 14.862 150.909 14.052 149.757 14.052ZM162.916 17.508H157.822C158.056 18.534 158.65 19.002 159.73 19.002C160.504 19.002 160.936 18.822 161.746 18.174L162.97 19.812C161.926 20.784 160.99 21.162 159.568 21.162C156.958 21.162 155.338 19.416 155.338 16.608C155.338 13.728 156.922 11.838 159.316 11.838C160.684 11.838 161.764 12.414 162.394 13.458C162.808 14.142 163.024 15.114 163.024 16.266C163.024 16.626 163.024 16.68 162.916 17.508ZM157.786 15.6H160.666C160.63 14.592 160.144 13.998 159.298 13.998C158.524 13.998 158.02 14.52 157.786 15.6Z"
        fill="#1A2430" />
    <defs>
        <filter id="filter0_i_8_275" x="2.50189" y="1.67224" width="27.3188" height="28.4055"
            filterUnits="userSpaceOnUse" color-interpolation-filters="sRGB">
            <feFlood flood-opacity="0" result="BackgroundImageFix" />
            <feBlend mode="normal" in="SourceGraphic" in2="BackgroundImageFix" result="shape" />
            <feColorMatrix in="SourceAlpha" type="matrix"
                values="0 0 0 0 0 0 0 0 0 0 0 0 0 0 0 0 0 0 127 0" result="hardAlpha" />
            <feOffset dx="0.25" dy="-0.25" />
            <feGaussianBlur stdDeviation="0.25" />
            <feComposite in2="hardAlpha" operator="arithmetic" k2="-1" k3="1" />
            <feColorMatrix type="matrix"
                values="0 0 0 0 0.85098 0 0 0 0 0.447059 0 0 0 0 0.196078 0 0 0 1 0" />
            <feBlend mode="normal" in2="shape" result="effect1_innerShadow_8_275" />
        </filter>
        <filter id="filter1_d_8_275" x="4.69333" y="5.23145" width="22.0859" height="22.086"
            filterUnits="userSpaceOnUse" color-interpolation-filters="sRGB">
            <feFlood flood-opacity="0" result="BackgroundImageFix" />
            <feColorMatrix in="SourceAlpha" type="matrix"
                values="0 0 0 0 0 0 0 0 0 0 0 0 0 0 0 0 0 0 127 0" result="hardAlpha" />
            <feOffset dx="-0.3" dy="0.3" />
            <feGaussianBlur stdDeviation="0.15" />
            <feComposite in2="hardAlpha" operator="out" />
            <feColorMatrix type="matrix"
                values="0 0 0 0 0.921569 0 0 0 0 0.47451 0 0 0 0 0.133333 0 0 0 1 0" />
            <feBlend mode="normal" in2="BackgroundImageFix" result="effect1_dropShadow_8_275" />
            <feBlend mode="normal" in="SourceGraphic" in2="effect1_dropShadow_8_275" result="shape" />
        </filter>
        <filter id="filter2_f_8_275" x="5.96625" y="13.1198" width="6.91995" height="6.92001"
            filterUnits="userSpaceOnUse" color-interpolation-filters="sRGB">
            <feFlood flood-opacity="0" result="BackgroundImageFix" />
            <feBlend mode="normal" in="SourceGraphic" in2="BackgroundImageFix" result="shape" />
            <feGaussianBlur stdDeviation="0.25" result="effect1_foregroundBlur_8_275" />
        </filter>
        <filter id="filter3_f_8_275" x="19.1863" y="13.1198" width="6.92" height="6.92001"
            filterUnits="userSpaceOnUse" color-interpolation-filters="sRGB">
            <feFlood flood-opacity="0" result="BackgroundImageFix" />
            <feBlend mode="normal" in="SourceGraphic" in2="BackgroundImageFix" result="shape" />
            <feGaussianBlur stdDeviation="0.25" result="effect1_foregroundBlur_8_275" />
        </filter>
        <filter id="filter4_f_8_275" x="10.3513" y="17.3709" width="11.3699" height="4.33755"
            filterUnits="userSpaceOnUse" color-interpolation-filters="sRGB">
            <feFlood flood-opacity="0" result="BackgroundImageFix" />
            <feBlend mode="normal" in="SourceGraphic" in2="BackgroundImageFix" result="shape" />
            <feGaussianBlur stdDeviation="0.25" result="effect1_foregroundBlur_8_275" />
        </filter>
        <filter id="filter5_i_8_275" x="11.1062" y="17.2497" width="10.6201" height="3.58755"
            filterUnits="userSpaceOnUse" color-interpolation-filters="sRGB">
            <feFlood flood-opacity="0" result="BackgroundImageFix" />
            <feBlend mode="normal" in="SourceGraphic" in2="BackgroundImageFix" result="shape" />
            <feColorMatrix in="SourceAlpha" type="matrix"
                values="0 0 0 0 0 0 0 0 0 0 0 0 0 0 0 0 0 0 127 0" result="hardAlpha" />
            <feOffset dx="0.25" dy="-0.25" />
            <feGaussianBlur stdDeviation="0.5" />
            <feComposite in2="hardAlpha" operator="arithmetic" k2="-1" k3="1" />
            <feColorMatrix type="matrix"
                values="0 0 0 0 0.203922 0 0 0 0 0.168627 0 0 0 0 0.180392 0 0 0 1 0" />
            <feBlend mode="normal" in2="shape" result="effect1_innerShadow_8_275" />
        </filter>
        <filter id="filter6_f_8_275" x="10.9911" y="17.3734" width="10.5658" height="3.58705"
            filterUnits="userSpaceOnUse" color-interpolation-filters="sRGB">
            <feFlood flood-opacity="0" result="BackgroundImageFix" />
            <feBlend mode="normal" in="SourceGraphic" in2="BackgroundImageFix" result="shape" />
            <feGaussianBlur stdDeviation="0.3" result="effect1_foregroundBlur_8_275" />
        </filter>
        <filter id="filter7_f_8_275" x="8.96041" y="11.0595" width="5.86145" height="3.52394"
            filterUnits="userSpaceOnUse" color-interpolation-filters="sRGB">
            <feFlood flood-opacity="0" result="BackgroundImageFix" />
            <feBlend mode="normal" in="SourceGraphic" in2="BackgroundImageFix" result="shape" />
            <feGaussianBlur stdDeviation="0.2" result="effect1_foregroundBlur_8_275" />
        </filter>
        <filter id="filter8_f_8_275" x="17.6198" y="11.0595" width="5.86142" height="3.52394"
            filterUnits="userSpaceOnUse" color-interpolation-filters="sRGB">
            <feFlood flood-opacity="0" result="BackgroundImageFix" />
            <feBlend mode="normal" in="SourceGraphic" in2="BackgroundImageFix" result="shape" />
            <feGaussianBlur stdDeviation="0.2" result="effect1_foregroundBlur_8_275" />
        </filter>
        <filter id="filter9_i_8_275" x="17.8961" y="11.0098" width="5.90047" height="3.11017"
            filterUnits="userSpaceOnUse" color-interpolation-filters="sRGB">
            <feFlood flood-opacity="0" result="BackgroundImageFix" />
            <feBlend mode="normal" in="SourceGraphic" in2="BackgroundImageFix" result="shape" />
            <feColorMatrix in="SourceAlpha" type="matrix"
                values="0 0 0 0 0 0 0 0 0 0 0 0 0 0 0 0 0 0 127 0" result="hardAlpha" />
            <feOffset dx="0.4" dy="-0.15" />
            <feGaussianBlur stdDeviation="0.25" />
            <feComposite in2="hardAlpha" operator="arithmetic" k2="-1" k3="1" />
            <feColorMatrix type="matrix"
                values="0 0 0 0 0.298039 0 0 0 0 0.196078 0 0 0 0 0.235294 0 0 0 1 0" />
            <feBlend mode="normal" in2="shape" result="effect1_innerShadow_8_275" />
        </filter>
        <filter id="filter10_f_8_275" x="10.7004" y="10.9972" width="4.21217" height="3.23801"
            filterUnits="userSpaceOnUse" color-interpolation-filters="sRGB">
            <feFlood flood-opacity="0" result="BackgroundImageFix" />
            <feBlend mode="normal" in="SourceGraphic" in2="BackgroundImageFix" result="shape" />
            <feGaussianBlur stdDeviation="0.25" result="effect1_foregroundBlur_8_275" />
        </filter>
        <filter id="filter11_f_8_275" x="18.0021" y="11.1109" width="5.54482" height="2.75192"
            filterUnits="userSpaceOnUse" color-interpolation-filters="sRGB">
            <feFlood flood-opacity="0" result="BackgroundImageFix" />
            <feBlend mode="normal" in="SourceGraphic" in2="BackgroundImageFix" result="shape" />
            <feGaussianBlur stdDeviation="0.25" result="effect1_foregroundBlur_8_275" />
        </filter>
        <filter id="filter12_f_8_275" x="7.77096" y="9.30885" width="17.2245" height="8.57325"
            filterUnits="userSpaceOnUse" color-interpolation-filters="sRGB">
            <feFlood flood-opacity="0" result="BackgroundImageFix" />
            <feBlend mode="normal" in="SourceGraphic" in2="BackgroundImageFix" result="shape" />
            <feGaussianBlur stdDeviation="0.361703" result="effect1_foregroundBlur_8_275" />
        </filter>
        <linearGradient id="paint0_linear_8_275" x1="24.38" y1="6.65025" x2="9.03" y2="26.2347"
            gradientUnits="userSpaceOnUse">
            <stop stop-color="#FC8B23" />
            <stop offset="1" stop-color="#E67639" />
        </linearGradient>
        <radialGradient id="paint1_radial_8_275" cx="0" cy="0" r="1" gradientUnits="userSpaceOnUse"
            gradientTransform="translate(18.6207 3.22067) rotate(138.155) scale(3.77864 3.33393)">
            <stop offset="0.300161" stop-color="#FFA13A" />
            <stop offset="1" stop-color="#FFA13A" stop-opacity="0" />
        </radialGradient>
        <radialGradient id="paint2_radial_8_275" cx="0" cy="0" r="1" gradientUnits="userSpaceOnUse"
            gradientTransform="translate(8.78952 2.0278) rotate(67.8105) scale(6.00715 5.30017)">
            <stop offset="0.300161" stop-color="#FF942A" />
            <stop offset="1" stop-color="#FF942A" stop-opacity="0" />
        </radialGradient>
        <radialGradient id="paint3_radial_8_275" cx="0" cy="0" r="1" gradientUnits="userSpaceOnUse"
            gradientTransform="translate(24.9227 7.63208) rotate(-164.745) scale(2.39513 3.31637)">
            <stop offset="0.300161" stop-color="#FFA13D" />
            <stop offset="1" stop-color="#FFA13D" stop-opacity="0" />
        </radialGradient>
        <radialGradient id="paint4_radial_8_275" cx="0" cy="0" r="1" gradientUnits="userSpaceOnUse"
            gradientTransform="translate(29.7542 11.1192) rotate(154.195) scale(4.24668 3.13649)">
            <stop offset="0.300161" stop-color="#FFA13D" />
            <stop offset="1" stop-color="#FFA13D" stop-opacity="0" />
        </radialGradient>
        <radialGradient id="paint5_radial_8_275" cx="0" cy="0" r="1" gradientUnits="userSpaceOnUse"
            gradientTransform="translate(30.6785 18.3035) rotate(-173.379) scale(4.73709 2.66952)">
            <stop offset="0.300161" stop-color="#FFA13D" />
            <stop offset="1" stop-color="#FFA13D" stop-opacity="0" />
        </radialGradient>
        <radialGradient id="paint6_radial_8_275" cx="0" cy="0" r="1" gradientUnits="userSpaceOnUse"
            gradientTransform="translate(26.4352 23.8072) rotate(-43.9639) scale(4.29693 4.13959)">
            <stop stop-color="#E0762A" />
            <stop offset="1" stop-color="#E0762A" stop-opacity="0" />
        </radialGradient>
        <radialGradient id="paint7_radial_8_275" cx="0" cy="0" r="1" gradientUnits="userSpaceOnUse"
            gradientTransform="translate(6.52079 22.7989) rotate(-127.747) scale(3.29424 3.17361)">
            <stop stop-color="#E0762A" />
            <stop offset="1" stop-color="#E0762A" stop-opacity="0" />
        </radialGradient>
        <radialGradient id="paint8_radial_8_275" cx="0" cy="0" r="1" gradientUnits="userSpaceOnUse"
            gradientTransform="translate(2.02536 11.6654) rotate(25.2777) scale(3.34528 4.04325)">
            <stop stop-color="#F0851D" />
            <stop offset="1" stop-color="#F0851D" stop-opacity="0" />
        </radialGradient>
        <radialGradient id="paint9_radial_8_275" cx="0" cy="0" r="1" gradientUnits="userSpaceOnUse"
            gradientTransform="translate(21.994 28.5782) rotate(-142.487) scale(3.90025 3.67954)">
            <stop offset="0.336586" stop-color="#E3745B" />
            <stop offset="0.775" stop-color="#E3745B" stop-opacity="0" />
        </radialGradient>
        <radialGradient id="paint10_radial_8_275" cx="0" cy="0" r="1" gradientUnits="userSpaceOnUse"
            gradientTransform="translate(22.1327 9.75055) rotate(130.262) scale(17.4923 17.8249)">
            <stop offset="0.715" stop-color="#FFD13D" />
            <stop offset="1" stop-color="#DCA21C" />
        </radialGradient>
        <radialGradient id="paint11_radial_8_275" cx="0" cy="0" r="1" gradientUnits="userSpaceOnUse"
            gradientTransform="translate(9.42145 16.5754) scale(3.21084)">
            <stop offset="0.25" stop-color="#ED501F" />
            <stop offset="0.89541" stop-color="#F18A42" stop-opacity="0" />
        </radialGradient>
        <radialGradient id="paint12_radial_8_275" cx="0" cy="0" r="1" gradientUnits="userSpaceOnUse"
            gradientTransform="translate(22.6415 16.5754) scale(3.21084)">
            <stop offset="0.130208" stop-color="#FB6738" />
            <stop offset="0.89541" stop-color="#F18A42" stop-opacity="0" />
        </radialGradient>
        <linearGradient id="paint13_linear_8_275" x1="11.1072" y1="19.1637" x2="21.4749"
            y2="19.1637" gradientUnits="userSpaceOnUse">
            <stop stop-color="#31243C" />
            <stop offset="1" stop-color="#3F2950" />
        </linearGradient>
        <linearGradient id="paint14_linear_8_275" x1="21.4763" y1="17.9119" x2="20.8705"
            y2="18.4744" gradientUnits="userSpaceOnUse">
            <stop stop-color="#665C6D" />
            <stop offset="1" stop-color="#665C6D" stop-opacity="0" />
        </linearGradient>
        <linearGradient id="paint15_linear_8_275" x1="11.6459" y1="17.7217" x2="16.274" y2="20.0605"
            gradientUnits="userSpaceOnUse">
            <stop stop-color="#4E4753" />
            <stop offset="1" stop-color="#4E4753" stop-opacity="0" />
        </linearGradient>
        <linearGradient id="paint16_linear_8_275" x1="21.2699" y1="17.5685" x2="15.569" y2="20.3883"
            gradientUnits="userSpaceOnUse">
            <stop offset="0.0897352" stop-color="#5E5468" />
            <stop offset="1" stop-color="#5E5468" stop-opacity="0" />
        </linearGradient>
        <linearGradient id="paint17_linear_8_275" x1="9.27214" y1="12.6388" x2="14.7767"
            y2="12.6388" gradientUnits="userSpaceOnUse">
            <stop stop-color="#2E2931" />
            <stop offset="1" stop-color="#362A3F" />
        </linearGradient>
        <linearGradient id="paint18_linear_8_275" x1="13.4566" y1="13.4852" x2="11.0503"
            y2="13.1152" gradientUnits="userSpaceOnUse">
            <stop stop-color="#524D53" />
            <stop offset="1" stop-color="#5C5463" stop-opacity="0" />
        </linearGradient>
        <linearGradient id="paint19_linear_8_275" x1="21.649" y1="13.315" x2="18.1009" y2="12.8039"
            gradientUnits="userSpaceOnUse">
            <stop stop-color="#61556C" />
            <stop offset="1" stop-color="#554A5F" />
        </linearGradient>
        <linearGradient id="paint20_linear_8_275" x1="20.0315" y1="13.5955" x2="11.5541"
            y2="16.8286" gradientUnits="userSpaceOnUse">
            <stop stop-color="#E78F00" />
            <stop offset="1" stop-color="#D07000" />
        </linearGradient>
        <radialGradient id="paint21_radial_8_275" cx="0" cy="0" r="1" gradientUnits="userSpaceOnUse"
            gradientTransform="translate(19.0895 9.82054) rotate(78.8614) scale(7.41136 15.358)">
            <stop stop-color="#5F5B9B" />
            <stop offset="1" stop-color="#5C3085" />
        </radialGradient>
        <radialGradient id="paint22_radial_8_275" cx="0" cy="0" r="1" gradientUnits="userSpaceOnUse"
            gradientTransform="translate(20.7568 12.9922) rotate(78.0636) scale(3.32424 3.73446)">
            <stop offset="0.776042" stop-color="#77579C" />
            <stop offset="0.9375" stop-color="#77579C" stop-opacity="0" />
        </radialGradient>
        <radialGradient id="paint23_radial_8_275" cx="0" cy="0" r="1" gradientUnits="userSpaceOnUse"
            gradientTransform="translate(19.5416 12.3826) rotate(-122.735) scale(2.82185 2.07139)">
            <stop offset="0.769354" stop-color="#4E3D92" />
            <stop offset="1" stop-color="#534687" stop-opacity="0" />
        </radialGradient>
        <radialGradient id="paint24_radial_8_275" cx="0" cy="0" r="1" gradientUnits="userSpaceOnUse"
            gradientTransform="translate(12.7975 11.8174) rotate(121.845) scale(3.57047 4.05613)">
            <stop stop-color="#4C3D70" />
            <stop offset="1" stop-color="#361C5D" />
        </radialGradient>
        <radialGradient id="paint25_radial_8_275" cx="0" cy="0" r="1" gradientUnits="userSpaceOnUse"
            gradientTransform="translate(12.0628 11.9116) rotate(87.1376) scale(4.52694 6.7222)">
            <stop offset="0.647365" stop-color="#5B2B84" stop-opacity="0" />
            <stop offset="1" stop-color="#5B2B84" />
        </radialGradient>
        <radialGradient id="paint26_radial_8_275" cx="0" cy="0" r="1" gradientUnits="userSpaceOnUse"
            gradientTransform="translate(11.0455 16.4706) rotate(-99.5134) scale(6.9529 6.88539)">
            <stop offset="0.858612" stop-color="#2E1D57" stop-opacity="0" />
            <stop offset="1" stop-color="#20143D" />
        </radialGradient>
        <radialGradient id="paint27_radial_8_275" cx="0" cy="0" r="1" gradientUnits="userSpaceOnUse"
            gradientTransform="translate(11.6295 11.4595) rotate(102.225) scale(4.6262 4.34177)">
            <stop offset="0.872281" stop-color="#2E1D57" stop-opacity="0" />
            <stop offset="1" stop-color="#20143D" stop-opacity="0.6" />
        </radialGradient>
        <linearGradient id="paint28_linear_8_275" x1="13.0697" y1="10.9617" x2="13.146" y2="13.0433"
            gradientUnits="userSpaceOnUse">
            <stop stop-color="white" />
            <stop offset="0.973958" stop-color="white" stop-opacity="0" />
        </linearGradient>
        <radialGradient id="paint29_radial_8_275" cx="0" cy="0" r="1" gradientUnits="userSpaceOnUse"
            gradientTransform="translate(21.2183 11.5725) rotate(121.289) scale(3.99012 5.99349)">
            <stop stop-color="#4C3D70" />
            <stop offset="1" stop-color="#361C5D" />
        </radialGradient>
        <radialGradient id="paint30_radial_8_275" cx="0" cy="0" r="1" gradientUnits="userSpaceOnUse"
            gradientTransform="translate(19.9372 11.9116) rotate(92.8624) scale(4.52694 6.7222)">
            <stop offset="0.647365" stop-color="#5B2B84" stop-opacity="0" />
            <stop offset="1" stop-color="#5B2B84" />
        </radialGradient>
        <radialGradient id="paint31_radial_8_275" cx="0" cy="0" r="1" gradientUnits="userSpaceOnUse"
            gradientTransform="translate(20.7743 15.6606) rotate(-77.6023) scale(6.19164 6.13147)">
            <stop offset="0.858612" stop-color="#2E1D57" stop-opacity="0" />
            <stop offset="1" stop-color="#20143D" />
        </radialGradient>
        <radialGradient id="paint32_radial_8_275" cx="0" cy="0" r="1" gradientUnits="userSpaceOnUse"
            gradientTransform="translate(20.3705 11.4595) rotate(77.7749) scale(4.6262 4.34177)">
            <stop offset="0.872281" stop-color="#2E1D57" stop-opacity="0" />
            <stop offset="1" stop-color="#20143D" stop-opacity="0.6" />
        </radialGradient>
        <linearGradient id="paint33_linear_8_275" x1="22.7357" y1="10.9617" x2="22.8121"
            y2="13.0433" gradientUnits="userSpaceOnUse">
            <stop stop-color="white" />
            <stop offset="0.973958" stop-color="white" stop-opacity="0" />
        </linearGradient>
    </defs>
</svg>