<svg width="1000" height="1000" viewBox="0 0 1000 1000" fill="none" xmlns="http://www.w3.org/2000/svg">
<path d="M499.984 936.409C741.6 936.409 937.469 740.541 937.469 498.925C937.469 257.309 741.6 61.4404 499.984 61.4404C258.368 61.4404 62.5 257.309 62.5 498.925C62.5 740.541 258.368 936.409 499.984 936.409Z" fill="url(#paint0_radial_5_19)"/>
<path d="M499.984 936.409C741.6 936.409 937.469 740.541 937.469 498.925C937.469 257.309 741.6 61.4404 499.984 61.4404C258.368 61.4404 62.5 257.309 62.5 498.925C62.5 740.541 258.368 936.409 499.984 936.409Z" fill="url(#paint1_radial_5_19)"/>
<path d="M499.984 936.409C741.6 936.409 937.469 740.541 937.469 498.925C937.469 257.309 741.6 61.4404 499.984 61.4404C258.368 61.4404 62.5 257.309 62.5 498.925C62.5 740.541 258.368 936.409 499.984 936.409Z" fill="url(#paint2_radial_5_19)"/>
<path d="M499.984 936.409C741.6 936.409 937.469 740.541 937.469 498.925C937.469 257.309 741.6 61.4404 499.984 61.4404C258.368 61.4404 62.5 257.309 62.5 498.925C62.5 740.541 258.368 936.409 499.984 936.409Z" fill="url(#paint3_radial_5_19)"/>
<path d="M499.984 936.409C741.6 936.409 937.469 740.541 937.469 498.925C937.469 257.309 741.6 61.4404 499.984 61.4404C258.368 61.4404 62.5 257.309 62.5 498.925C62.5 740.541 258.368 936.409 499.984 936.409Z" fill="url(#paint4_radial_5_19)"/>
<path d="M499.984 936.409C741.6 936.409 937.469 740.541 937.469 498.925C937.469 257.309 741.6 61.4404 499.984 61.4404C258.368 61.4404 62.5 257.309 62.5 498.925C62.5 740.541 258.368 936.409 499.984 936.409Z" fill="url(#paint5_radial_5_19)"/>
<path d="M499.984 936.409C741.6 936.409 937.469 740.541 937.469 498.925C937.469 257.309 741.6 61.4404 499.984 61.4404C258.368 61.4404 62.5 257.309 62.5 498.925C62.5 740.541 258.368 936.409 499.984 936.409Z" fill="url(#paint6_radial_5_19)"/>
<g filter="url(#filter0_f_5_19)">
<path d="M928.116 532.322C923.897 531.619 919.563 531.25 915.144 531.25C872.05 531.25 837.116 566.184 837.116 609.278C837.116 643.956 859.741 673.353 891.035 683.509" stroke="url(#paint7_linear_5_19)" stroke-width="0.2"/>
</g>
<path d="M936.078 534.091C931.816 587.678 917.897 638.547 896.06 684.956C862.191 676.441 837.116 645.788 837.116 609.278C837.116 566.184 872.05 531.25 915.144 531.25C922.394 531.25 929.416 532.241 936.078 534.091Z" fill="url(#paint8_radial_5_19)"/>
<path d="M936.078 534.091C931.816 587.678 917.897 638.547 896.06 684.956C862.191 676.441 837.116 645.788 837.116 609.278C837.116 566.184 872.05 531.25 915.144 531.25C922.394 531.25 929.416 532.241 936.078 534.091Z" fill="url(#paint9_radial_5_19)"/>
<path d="M936.078 534.091C931.816 587.678 917.897 638.547 896.06 684.956C862.191 676.441 837.116 645.788 837.116 609.278C837.116 566.184 872.05 531.25 915.144 531.25C922.394 531.25 929.416 532.241 936.078 534.091Z" fill="url(#paint10_radial_5_19)"/>
<g filter="url(#filter1_f_5_19)">
<path d="M618.144 909.119C612.206 895.306 608.919 880.087 608.919 864.1C608.919 801.084 660 750 723.016 750C759.028 750 791.144 766.684 812.053 792.741" stroke="url(#paint11_linear_5_19)" stroke-width="0.2"/>
</g>
<path d="M817.409 799.981C764.916 855.312 698.106 896.928 622.916 918.9C613.991 902.638 608.919 883.959 608.919 864.1C608.919 801.084 660 750 723.016 750C762.259 750 796.878 769.812 817.409 799.981Z" fill="url(#paint12_radial_5_19)"/>
<path d="M817.409 799.981C764.916 855.312 698.106 896.928 622.916 918.9C613.991 902.638 608.919 883.959 608.919 864.1C608.919 801.084 660 750 723.016 750C762.259 750 796.878 769.812 817.409 799.981Z" fill="url(#paint13_radial_5_19)"/>
<path d="M817.409 799.981C764.916 855.312 698.106 896.928 622.916 918.9C613.991 902.638 608.919 883.959 608.919 864.1C608.919 801.084 660 750 723.016 750C762.259 750 796.878 769.812 817.409 799.981Z" fill="url(#paint14_radial_5_19)"/>
<path d="M817.409 799.981C764.916 855.312 698.106 896.928 622.916 918.9C613.991 902.638 608.919 883.959 608.919 864.1C608.919 801.084 660 750 723.016 750C762.259 750 796.878 769.812 817.409 799.981Z" fill="url(#paint15_radial_5_19)"/>
<g filter="url(#filter2_f_5_19)">
<path d="M462.169 706.718C494.997 732.418 503.944 775.818 482.153 803.646C460.363 831.478 416.088 833.203 383.26 807.5C350.431 781.796 341.485 738.4 363.275 710.568C385.066 682.74 429.341 681.015 462.169 706.718Z" stroke="url(#paint16_linear_5_19)" stroke-width="0.2"/>
</g>
<path d="M462.169 706.718C494.997 732.418 503.944 775.818 482.153 803.646C460.363 831.478 416.088 833.203 383.26 807.5C350.431 781.796 341.485 738.4 363.275 710.568C385.066 682.74 429.341 681.015 462.169 706.718Z" fill="url(#paint17_radial_5_19)"/>
<path d="M462.169 706.718C494.997 732.418 503.944 775.818 482.153 803.646C460.363 831.478 416.088 833.203 383.26 807.5C350.431 781.796 341.485 738.4 363.275 710.568C385.066 682.74 429.341 681.015 462.169 706.718Z" fill="url(#paint18_radial_5_19)"/>
<path d="M462.169 706.718C494.997 732.418 503.944 775.818 482.153 803.646C460.363 831.478 416.088 833.203 383.26 807.5C350.431 781.796 341.485 738.4 363.275 710.568C385.066 682.74 429.341 681.015 462.169 706.718Z" fill="url(#paint19_radial_5_19)"/>
<path d="M462.169 706.718C494.997 732.418 503.944 775.818 482.153 803.646C460.363 831.478 416.088 833.203 383.26 807.5C350.431 781.796 341.485 738.4 363.275 710.568C385.066 682.74 429.341 681.015 462.169 706.718Z" fill="url(#paint20_radial_5_19)"/>
<g filter="url(#filter3_f_5_19)">
<path d="M72.3381 471.697C80.6531 469.769 89.3165 468.75 98.2178 468.75C161.233 468.75 212.317 519.834 212.317 582.85C212.317 639.256 171.387 686.103 117.607 695.309" stroke="url(#paint21_linear_5_19)" stroke-width="0.2"/>
</g>
<path d="M63.1853 474.228C74.2237 470.672 85.9969 468.75 98.2191 468.75C161.234 468.75 212.318 519.834 212.318 582.85C212.318 642.059 167.219 690.734 109.499 696.4C79.4391 637.075 62.5 569.978 62.5 498.925C62.5 490.638 62.7303 482.403 63.1853 474.228Z" fill="url(#paint22_radial_5_19)"/>
<path d="M63.1853 474.228C74.2237 470.672 85.9969 468.75 98.2191 468.75C161.234 468.75 212.318 519.834 212.318 582.85C212.318 642.059 167.219 690.734 109.499 696.4C79.4391 637.075 62.5 569.978 62.5 498.925C62.5 490.638 62.7303 482.403 63.1853 474.228Z" fill="url(#paint23_radial_5_19)"/>
<path d="M63.1853 474.228C74.2237 470.672 85.9969 468.75 98.2191 468.75C161.234 468.75 212.318 519.834 212.318 582.85C212.318 642.059 167.219 690.734 109.499 696.4C79.4391 637.075 62.5 569.978 62.5 498.925C62.5 490.638 62.7303 482.403 63.1853 474.228Z" fill="url(#paint24_radial_5_19)"/>
<g filter="url(#filter4_f_5_19)">
<path d="M484.141 250.004C527.235 250.004 562.169 215.07 562.169 171.976C562.169 128.882 527.235 93.9485 484.141 93.9485C441.047 93.9485 406.113 128.882 406.113 171.976C406.113 215.07 441.047 250.004 484.141 250.004Z" stroke="url(#paint25_linear_5_19)" stroke-width="0.3"/>
</g>
<path d="M484.141 250.004C527.235 250.004 562.169 215.07 562.169 171.976C562.169 128.882 527.235 93.9485 484.141 93.9485C441.047 93.9485 406.113 128.882 406.113 171.976C406.113 215.07 441.047 250.004 484.141 250.004Z" fill="url(#paint26_linear_5_19)"/>
<path d="M484.141 250.004C527.235 250.004 562.169 215.07 562.169 171.976C562.169 128.882 527.235 93.9485 484.141 93.9485C441.047 93.9485 406.113 128.882 406.113 171.976C406.113 215.07 441.047 250.004 484.141 250.004Z" fill="url(#paint27_radial_5_19)"/>
<path d="M484.141 250.004C527.235 250.004 562.169 215.07 562.169 171.976C562.169 128.882 527.235 93.9485 484.141 93.9485C441.047 93.9485 406.113 128.882 406.113 171.976C406.113 215.07 441.047 250.004 484.141 250.004Z" fill="url(#paint28_radial_5_19)"/>
<g filter="url(#filter5_f_5_19)">
<path d="M239.388 448.698C243.967 467.668 257.122 503.705 299.129 514.104C305.391 515.655 311.545 516.781 317.718 517.631C318.018 517.672 318.319 517.708 318.621 517.735C408.734 526.181 468.306 450.008 471.214 367.136C471.457 360.269 476.744 354.46 483.616 354.37C487.275 354.324 491.07 354.328 494.976 354.397C501.82 354.517 507.072 360.308 507.315 367.149C510.258 450.016 569.774 526.183 659.904 517.735C660.206 517.708 660.507 517.672 660.807 517.631C666.979 516.781 673.136 515.655 679.396 514.104C735.046 500.326 769.569 463.75 787.223 424.519C784.485 407.922 780.585 391.842 775.526 376.411C770.243 422.533 745.547 428.356 679.396 444.733C673.952 446.081 655.345 459.053 649.794 459.819C586.999 465.705 569.338 424.519 533.744 358.755L533.739 358.102C533.739 357.799 533.742 357.497 533.748 357.196C536.052 357.497 538.37 357.826 540.693 358.184L546.42 321.021C553.039 312.492 561.885 305.781 572.089 301.766C574.488 300.73 580.095 298.376 597.435 295.143C615.326 291.807 663.088 291.845 692.238 291.869L698.744 291.872C714.135 291.872 728.113 296.341 737.141 300.428C729.767 290.273 721.647 280.683 712.785 271.723C708.182 271.224 703.468 270.94 698.744 270.94L692.158 270.937C677.632 270.925 658.207 270.91 640.138 271.32C622.635 271.717 596.705 272.833 585.806 274.865C567.785 278.224 560.516 280.916 556.308 282.715C544.735 287.326 534.797 294.435 526.951 303.398C521.794 309.29 514.486 313.224 506.662 312.878C494.101 312.321 482.289 312.385 471.714 312.813C463.929 313.128 456.67 309.21 451.534 303.352C443.695 294.411 433.771 287.318 422.218 282.715C418.009 280.916 410.739 278.224 392.721 274.865C381.822 272.833 355.89 271.717 338.386 271.32C320.319 270.91 300.893 270.925 286.367 270.937H286.098C279.16 277.888 272.673 285.224 266.637 292.912C270.836 292.26 275.248 291.872 279.782 291.872L286.287 291.869C315.438 291.845 363.199 291.807 381.089 295.143C398.431 298.376 404.039 300.73 406.436 301.766C416.265 305.634 424.833 312.001 431.364 320.086L438.518 358.067C440.224 357.746 442.324 357.405 444.777 357.062C444.781 357.409 444.785 357.755 444.785 358.102L444.781 358.755C448.542 446.898 381.416 500.023 318.621 494.137C313.07 493.371 307.65 492.374 302.205 491.026C254.093 479.114 257.589 443.77 243.967 410.106C241.55 422.47 240.484 435.77 239.388 448.698Z" fill="url(#paint29_linear_5_19)"/>
</g>
<path fill-rule="evenodd" clip-rule="evenodd" d="M432.954 261.782C444.509 266.386 454.432 273.478 462.271 282.419C467.408 288.277 474.667 292.196 482.452 291.881C493.027 291.452 504.839 291.389 517.4 291.945C525.224 292.292 532.531 288.358 537.689 282.465C545.534 273.503 555.473 266.394 567.044 261.782C571.253 259.984 578.523 257.292 596.541 253.932C607.44 251.9 633.373 250.784 650.876 250.387C668.943 249.977 688.37 249.993 702.896 250.004L709.479 250.008C734.376 250.008 758.937 257.874 768.679 263.744C790.591 274.865 810.869 296.123 812.324 332.706C812.383 333.254 812.422 333.805 812.439 334.36C814.166 390.632 779.222 471.115 690.134 493.171C683.871 494.722 677.717 495.848 671.544 496.698C671.245 496.74 670.944 496.776 670.642 496.803C580.512 505.251 520.996 429.084 518.053 346.216C517.81 339.375 512.558 333.584 505.714 333.464C501.808 333.396 498.013 333.391 494.354 333.438C487.482 333.527 482.194 339.336 481.952 346.204C479.044 429.076 419.47 505.249 329.358 496.803C329.057 496.776 328.756 496.74 328.456 496.698C322.283 495.848 316.128 494.722 309.866 493.171C220.778 471.115 185.835 390.632 187.561 334.36C187.578 333.805 187.617 333.254 187.677 332.706C189.131 296.123 209.409 274.865 231.322 263.744C241.062 257.874 265.624 250.008 290.52 250.008L297.105 250.004C311.63 249.993 331.057 249.977 349.123 250.387C366.628 250.784 392.558 251.9 403.457 253.932C421.477 257.292 428.747 259.984 432.954 261.782ZM217.221 314.084C222.451 301.344 232.161 290.933 245.231 283.055C252.581 278.626 270.334 270.94 290.52 270.94L297.025 270.936C326.175 270.913 373.937 270.875 391.827 274.21C409.169 277.443 414.777 279.798 417.174 280.833C427.001 284.701 435.571 291.069 442.101 299.153L449.254 337.135C450.962 336.814 453.061 336.472 455.513 336.131C455.519 336.476 455.523 336.823 455.523 337.17L455.519 337.823C459.28 425.965 392.154 479.09 329.359 473.204C323.807 472.438 318.388 471.442 312.943 470.094C246.792 453.717 219.02 401.6 213.736 355.479C212.923 348.376 212.642 341.415 212.837 334.749L212.843 334.562L212.885 334.564L212.893 334.36C213.184 327.063 214.67 320.297 217.221 314.084ZM544.484 336.264C544.479 336.565 544.477 336.867 544.477 337.17L544.482 337.823C540.72 425.965 607.847 479.09 670.642 473.204C676.193 472.438 681.613 471.442 687.057 470.094C753.208 453.717 780.981 401.6 786.264 355.479C787.078 348.376 787.359 341.415 787.164 334.749L787.158 334.562L787.116 334.564L787.107 334.36C786.816 327.063 785.33 320.297 782.779 314.084C777.548 301.344 767.84 290.933 754.77 283.055C747.418 278.626 729.666 270.94 709.479 270.94L702.976 270.936C673.824 270.913 626.064 270.875 608.173 274.21C590.831 277.443 585.223 279.798 582.827 280.833C572.622 284.849 563.774 291.56 557.158 300.088L551.431 337.252C549.107 336.894 546.79 336.565 544.484 336.264Z" fill="url(#paint30_radial_5_19)"/>
<path fill-rule="evenodd" clip-rule="evenodd" d="M432.954 261.782C444.509 266.386 454.432 273.478 462.271 282.419C467.408 288.277 474.667 292.196 482.452 291.881C493.027 291.452 504.839 291.389 517.4 291.945C525.224 292.292 532.531 288.358 537.689 282.465C545.534 273.503 555.473 266.394 567.044 261.782C571.253 259.984 578.523 257.292 596.541 253.932C607.44 251.9 633.373 250.784 650.876 250.387C668.943 249.977 688.37 249.993 702.896 250.004L709.479 250.008C734.376 250.008 758.937 257.874 768.679 263.744C790.591 274.865 810.869 296.123 812.324 332.706C812.383 333.254 812.422 333.805 812.439 334.36C814.166 390.632 779.222 471.115 690.134 493.171C683.871 494.722 677.717 495.848 671.544 496.698C671.245 496.74 670.944 496.776 670.642 496.803C580.512 505.251 520.996 429.084 518.053 346.216C517.81 339.375 512.558 333.584 505.714 333.464C501.808 333.396 498.013 333.391 494.354 333.438C487.482 333.527 482.194 339.336 481.952 346.204C479.044 429.076 419.47 505.249 329.358 496.803C329.057 496.776 328.756 496.74 328.456 496.698C322.283 495.848 316.128 494.722 309.866 493.171C220.778 471.115 185.835 390.632 187.561 334.36C187.578 333.805 187.617 333.254 187.677 332.706C189.131 296.123 209.409 274.865 231.322 263.744C241.062 257.874 265.624 250.008 290.52 250.008L297.105 250.004C311.63 249.993 331.057 249.977 349.123 250.387C366.628 250.784 392.558 251.9 403.457 253.932C421.477 257.292 428.747 259.984 432.954 261.782ZM217.221 314.084C222.451 301.344 232.161 290.933 245.231 283.055C252.581 278.626 270.334 270.94 290.52 270.94L297.025 270.936C326.175 270.913 373.937 270.875 391.827 274.21C409.169 277.443 414.777 279.798 417.174 280.833C427.001 284.701 435.571 291.069 442.101 299.153L449.254 337.135C450.962 336.814 453.061 336.472 455.513 336.131C455.519 336.476 455.523 336.823 455.523 337.17L455.519 337.823C459.28 425.965 392.154 479.09 329.359 473.204C323.807 472.438 318.388 471.442 312.943 470.094C246.792 453.717 219.02 401.6 213.736 355.479C212.923 348.376 212.642 341.415 212.837 334.749L212.843 334.562L212.885 334.564L212.893 334.36C213.184 327.063 214.67 320.297 217.221 314.084ZM544.484 336.264C544.479 336.565 544.477 336.867 544.477 337.17L544.482 337.823C540.72 425.965 607.847 479.09 670.642 473.204C676.193 472.438 681.613 471.442 687.057 470.094C753.208 453.717 780.981 401.6 786.264 355.479C787.078 348.376 787.359 341.415 787.164 334.749L787.158 334.562L787.116 334.564L787.107 334.36C786.816 327.063 785.33 320.297 782.779 314.084C777.548 301.344 767.84 290.933 754.77 283.055C747.418 278.626 729.666 270.94 709.479 270.94L702.976 270.936C673.824 270.913 626.064 270.875 608.173 274.21C590.831 277.443 585.223 279.798 582.827 280.833C572.622 284.849 563.774 291.56 557.158 300.088L551.431 337.252C549.107 336.894 546.79 336.565 544.484 336.264Z" fill="url(#paint31_radial_5_19)"/>
<path fill-rule="evenodd" clip-rule="evenodd" d="M432.954 261.782C444.509 266.386 454.432 273.478 462.271 282.419C467.408 288.277 474.667 292.196 482.452 291.881C493.027 291.452 504.839 291.389 517.4 291.945C525.224 292.292 532.531 288.358 537.689 282.465C545.534 273.503 555.473 266.394 567.044 261.782C571.253 259.984 578.523 257.292 596.541 253.932C607.44 251.9 633.373 250.784 650.876 250.387C668.943 249.977 688.37 249.993 702.896 250.004L709.479 250.008C734.376 250.008 758.937 257.874 768.679 263.744C790.591 274.865 810.869 296.123 812.324 332.706C812.383 333.254 812.422 333.805 812.439 334.36C814.166 390.632 779.222 471.115 690.134 493.171C683.871 494.722 677.717 495.848 671.544 496.698C671.245 496.74 670.944 496.776 670.642 496.803C580.512 505.251 520.996 429.084 518.053 346.216C517.81 339.375 512.558 333.584 505.714 333.464C501.808 333.396 498.013 333.391 494.354 333.438C487.482 333.527 482.194 339.336 481.952 346.204C479.044 429.076 419.47 505.249 329.358 496.803C329.057 496.776 328.756 496.74 328.456 496.698C322.283 495.848 316.128 494.722 309.866 493.171C220.778 471.115 185.835 390.632 187.561 334.36C187.578 333.805 187.617 333.254 187.677 332.706C189.131 296.123 209.409 274.865 231.322 263.744C241.062 257.874 265.624 250.008 290.52 250.008L297.105 250.004C311.63 249.993 331.057 249.977 349.123 250.387C366.628 250.784 392.558 251.9 403.457 253.932C421.477 257.292 428.747 259.984 432.954 261.782ZM217.221 314.084C222.451 301.344 232.161 290.933 245.231 283.055C252.581 278.626 270.334 270.94 290.52 270.94L297.025 270.936C326.175 270.913 373.937 270.875 391.827 274.21C409.169 277.443 414.777 279.798 417.174 280.833C427.001 284.701 435.571 291.069 442.101 299.153L449.254 337.135C450.962 336.814 453.061 336.472 455.513 336.131C455.519 336.476 455.523 336.823 455.523 337.17L455.519 337.823C459.28 425.965 392.154 479.09 329.359 473.204C323.807 472.438 318.388 471.442 312.943 470.094C246.792 453.717 219.02 401.6 213.736 355.479C212.923 348.376 212.642 341.415 212.837 334.749L212.843 334.562L212.885 334.564L212.893 334.36C213.184 327.063 214.67 320.297 217.221 314.084ZM544.484 336.264C544.479 336.565 544.477 336.867 544.477 337.17L544.482 337.823C540.72 425.965 607.847 479.09 670.642 473.204C676.193 472.438 681.613 471.442 687.057 470.094C753.208 453.717 780.981 401.6 786.264 355.479C787.078 348.376 787.359 341.415 787.164 334.749L787.158 334.562L787.116 334.564L787.107 334.36C786.816 327.063 785.33 320.297 782.779 314.084C777.548 301.344 767.84 290.933 754.77 283.055C747.418 278.626 729.666 270.94 709.479 270.94L702.976 270.936C673.824 270.913 626.064 270.875 608.173 274.21C590.831 277.443 585.223 279.798 582.827 280.833C572.622 284.849 563.774 291.56 557.158 300.088L551.431 337.252C549.107 336.894 546.79 336.565 544.484 336.264Z" fill="url(#paint32_radial_5_19)"/>
<path d="M245.232 283.056C252.582 278.626 270.335 270.94 290.521 270.94C292.558 270.94 294.734 270.939 297.025 270.937C326.176 270.913 373.937 270.875 391.827 274.211C409.169 277.444 414.777 279.798 417.176 280.834C439.636 289.673 455.523 311.572 455.523 337.17L455.519 337.823C459.28 425.966 392.156 479.091 329.359 473.205C323.808 472.439 318.388 471.442 312.944 470.094C236.505 451.17 211.311 384.527 212.844 334.554L212.886 334.564C213.709 312.207 225.728 294.812 245.232 283.056Z" fill="url(#paint33_radial_5_19)"/>
<path d="M245.232 283.056C252.582 278.626 270.335 270.94 290.521 270.94C292.558 270.94 294.734 270.939 297.025 270.937C326.176 270.913 373.937 270.875 391.827 274.211C409.169 277.444 414.777 279.798 417.176 280.834C439.636 289.673 455.523 311.572 455.523 337.17L455.519 337.823C459.28 425.966 392.156 479.091 329.359 473.205C323.808 472.439 318.388 471.442 312.944 470.094C236.505 451.17 211.311 384.527 212.844 334.554L212.886 334.564C213.709 312.207 225.728 294.812 245.232 283.056Z" fill="url(#paint34_radial_5_19)"/>
<path d="M245.232 283.056C252.582 278.626 270.335 270.94 290.521 270.94C292.558 270.94 294.734 270.939 297.025 270.937C326.176 270.913 373.937 270.875 391.827 274.211C409.169 277.444 414.777 279.798 417.176 280.834C439.636 289.673 455.523 311.572 455.523 337.17L455.519 337.823C459.28 425.966 392.156 479.091 329.359 473.205C323.808 472.439 318.388 471.442 312.944 470.094C236.505 451.17 211.311 384.527 212.844 334.554L212.886 334.564C213.709 312.207 225.728 294.812 245.232 283.056Z" fill="url(#paint35_radial_5_19)"/>
<path d="M245.232 283.056C252.582 278.626 270.335 270.94 290.521 270.94C292.558 270.94 294.734 270.939 297.025 270.937C326.176 270.913 373.937 270.875 391.827 274.211C409.169 277.444 414.777 279.798 417.176 280.834C439.636 289.673 455.523 311.572 455.523 337.17L455.519 337.823C459.28 425.966 392.156 479.091 329.359 473.205C323.808 472.439 318.388 471.442 312.944 470.094C236.505 451.17 211.311 384.527 212.844 334.554L212.886 334.564C213.709 312.207 225.728 294.812 245.232 283.056Z" fill="url(#paint36_radial_5_19)"/>
<path d="M415.424 369.941C430.964 362.4 435.875 340.444 426.392 320.9C416.909 301.356 396.624 291.625 381.083 299.166C365.543 306.706 360.632 328.663 370.115 348.207C379.598 367.75 399.883 377.481 415.424 369.941Z" fill="url(#paint37_linear_5_19)"/>
<path d="M754.77 283.056C747.419 278.626 729.666 270.94 709.48 270.94C707.443 270.94 705.266 270.939 702.976 270.937C673.824 270.913 626.064 270.875 608.173 274.211C590.831 277.444 585.224 279.798 582.827 280.834C560.365 289.673 544.478 311.572 544.478 337.17L544.482 337.823C540.72 425.966 607.847 479.091 670.643 473.205C676.194 472.439 681.613 471.442 687.057 470.094C763.497 451.17 788.69 384.527 787.158 334.554L787.116 334.564C786.291 312.207 774.274 294.812 754.77 283.056Z" fill="url(#paint38_radial_5_19)"/>
<path d="M754.77 283.056C747.419 278.626 729.666 270.94 709.48 270.94C707.443 270.94 705.266 270.939 702.976 270.937C673.824 270.913 626.064 270.875 608.173 274.211C590.831 277.444 585.224 279.798 582.827 280.834C560.365 289.673 544.478 311.572 544.478 337.17L544.482 337.823C540.72 425.966 607.847 479.091 670.643 473.205C676.194 472.439 681.613 471.442 687.057 470.094C763.497 451.17 788.69 384.527 787.158 334.554L787.116 334.564C786.291 312.207 774.274 294.812 754.77 283.056Z" fill="url(#paint39_radial_5_19)"/>
<path d="M754.77 283.056C747.419 278.626 729.666 270.94 709.48 270.94C707.443 270.94 705.266 270.939 702.976 270.937C673.824 270.913 626.064 270.875 608.173 274.211C590.831 277.444 585.224 279.798 582.827 280.834C560.365 289.673 544.478 311.572 544.478 337.17L544.482 337.823C540.72 425.966 607.847 479.091 670.643 473.205C676.194 472.439 681.613 471.442 687.057 470.094C763.497 451.17 788.69 384.527 787.158 334.554L787.116 334.564C786.291 312.207 774.274 294.812 754.77 283.056Z" fill="url(#paint40_radial_5_19)"/>
<path d="M754.77 283.056C747.419 278.626 729.666 270.94 709.48 270.94C707.443 270.94 705.266 270.939 702.976 270.937C673.824 270.913 626.064 270.875 608.173 274.211C590.831 277.444 585.224 279.798 582.827 280.834C560.365 289.673 544.478 311.572 544.478 337.17L544.482 337.823C540.72 425.966 607.847 479.091 670.643 473.205C676.194 472.439 681.613 471.442 687.057 470.094C763.497 451.17 788.69 384.527 787.158 334.554L787.116 334.564C786.291 312.207 774.274 294.812 754.77 283.056Z" fill="url(#paint41_radial_5_19)"/>
<path d="M751.05 369.941C766.59 362.4 771.501 340.444 762.018 320.9C752.535 301.356 732.249 291.625 716.709 299.166C701.168 306.706 696.258 328.663 705.741 348.207C715.224 367.75 735.509 377.481 751.05 369.941Z" fill="url(#paint42_linear_5_19)"/>
<g filter="url(#filter6_f_5_19)">
<path fill-rule="evenodd" clip-rule="evenodd" d="M324.991 527.885C334.144 518.732 348.984 518.732 358.137 527.885C425.547 595.294 534.769 595.294 602.178 527.885C611.331 518.732 626.172 518.732 635.325 527.885C644.478 537.038 644.478 551.875 635.325 561.028C549.609 646.744 410.706 646.744 324.991 561.028C315.837 551.875 315.837 537.038 324.991 527.885Z" fill="url(#paint43_linear_5_19)"/>
</g>
<path fill-rule="evenodd" clip-rule="evenodd" d="M340.925 518.119C350.078 508.966 364.919 508.966 374.072 518.119C441.481 585.528 550.703 585.528 618.113 518.119C627.266 508.966 642.106 508.966 651.259 518.119C660.413 527.272 660.413 542.11 651.259 551.263C565.544 636.978 426.641 636.978 340.925 551.263C331.772 542.11 331.772 527.272 340.925 518.119Z" fill="url(#paint44_linear_5_19)"/>
<g filter="url(#filter7_f_5_19)">
<path d="M363.559 539.047C382.45 558.591 426.6 589.766 497.678 589.766C568.759 589.766 622.172 555.332 634.55 539.047" stroke="url(#paint45_linear_5_19)" stroke-width="0.5" stroke-linecap="round"/>
</g>
<defs>
<filter id="filter0_f_5_19" x="836.816" y="530.95" width="91.5165" height="152.854" filterUnits="userSpaceOnUse" color-interpolation-filters="sRGB">
<feFlood flood-opacity="0" result="BackgroundImageFix"/>
<feBlend mode="normal" in="SourceGraphic" in2="BackgroundImageFix" result="shape"/>
<feGaussianBlur stdDeviation="0.1" result="effect1_foregroundBlur_5_19"/>
</filter>
<filter id="filter1_f_5_19" x="608.619" y="749.7" width="203.712" height="159.659" filterUnits="userSpaceOnUse" color-interpolation-filters="sRGB">
<feFlood flood-opacity="0" result="BackgroundImageFix"/>
<feBlend mode="normal" in="SourceGraphic" in2="BackgroundImageFix" result="shape"/>
<feGaussianBlur stdDeviation="0.1" result="effect1_foregroundBlur_5_19"/>
</filter>
<filter id="filter2_f_5_19" x="350.964" y="688.115" width="143.501" height="137.988" filterUnits="userSpaceOnUse" color-interpolation-filters="sRGB">
<feFlood flood-opacity="0" result="BackgroundImageFix"/>
<feBlend mode="normal" in="SourceGraphic" in2="BackgroundImageFix" result="shape"/>
<feGaussianBlur stdDeviation="0.15" result="effect1_foregroundBlur_5_19"/>
</filter>
<filter id="filter3_f_5_19" x="72.0154" y="468.35" width="140.702" height="227.358" filterUnits="userSpaceOnUse" color-interpolation-filters="sRGB">
<feFlood flood-opacity="0" result="BackgroundImageFix"/>
<feBlend mode="normal" in="SourceGraphic" in2="BackgroundImageFix" result="shape"/>
<feGaussianBlur stdDeviation="0.15" result="effect1_foregroundBlur_5_19"/>
</filter>
<filter id="filter4_f_5_19" x="405.663" y="93.4986" width="156.956" height="156.955" filterUnits="userSpaceOnUse" color-interpolation-filters="sRGB">
<feFlood flood-opacity="0" result="BackgroundImageFix"/>
<feBlend mode="normal" in="SourceGraphic" in2="BackgroundImageFix" result="shape"/>
<feGaussianBlur stdDeviation="0.15" result="effect1_foregroundBlur_5_19"/>
</filter>
<filter id="filter5_f_5_19" x="238.584" y="270.129" width="549.443" height="249.052" filterUnits="userSpaceOnUse" color-interpolation-filters="sRGB">
<feFlood flood-opacity="0" result="BackgroundImageFix"/>
<feBlend mode="normal" in="SourceGraphic" in2="BackgroundImageFix" result="shape"/>
<feGaussianBlur stdDeviation="0.401893" result="effect1_foregroundBlur_5_19"/>
</filter>
<filter id="filter6_f_5_19" x="317.125" y="520.02" width="326.064" height="106.295" filterUnits="userSpaceOnUse" color-interpolation-filters="sRGB">
<feFlood flood-opacity="0" result="BackgroundImageFix"/>
<feBlend mode="normal" in="SourceGraphic" in2="BackgroundImageFix" result="shape"/>
<feGaussianBlur stdDeviation="0.5" result="effect1_foregroundBlur_5_19"/>
</filter>
<filter id="filter7_f_5_19" x="362.809" y="538.297" width="272.491" height="52.219" filterUnits="userSpaceOnUse" color-interpolation-filters="sRGB">
<feFlood flood-opacity="0" result="BackgroundImageFix"/>
<feBlend mode="normal" in="SourceGraphic" in2="BackgroundImageFix" result="shape"/>
<feGaussianBlur stdDeviation="0.25" result="effect1_foregroundBlur_5_19"/>
</filter>
<radialGradient id="paint0_radial_5_19" cx="0" cy="0" r="1" gradientUnits="userSpaceOnUse" gradientTransform="translate(769.431 298.536) rotate(135.952) scale(683.062 763.959)">
<stop stop-color="#FFF6A6"/>
<stop offset="0.870037" stop-color="#F6B246"/>
</radialGradient>
<radialGradient id="paint1_radial_5_19" cx="0" cy="0" r="1" gradientUnits="userSpaceOnUse" gradientTransform="translate(735.35 612.565) rotate(-155.287) scale(713.584 847.303)">
<stop offset="0.683178" stop-color="#BA9D76" stop-opacity="0"/>
<stop offset="1" stop-color="#BA9D76"/>
</radialGradient>
<radialGradient id="paint2_radial_5_19" cx="0" cy="0" r="1" gradientUnits="userSpaceOnUse" gradientTransform="translate(271.278 870.384) rotate(-54.4053) scale(430.294 819.269)">
<stop stop-color="#CA7044"/>
<stop offset="1" stop-color="#CA7044" stop-opacity="0"/>
</radialGradient>
<radialGradient id="paint3_radial_5_19" cx="0" cy="0" r="1" gradientUnits="userSpaceOnUse" gradientTransform="translate(548.828 408.203) rotate(99.7962) scale(551.003 565.209)">
<stop offset="0.863874" stop-color="#C07583" stop-opacity="0"/>
<stop offset="1" stop-color="#C07583"/>
</radialGradient>
<radialGradient id="paint4_radial_5_19" cx="0" cy="0" r="1" gradientUnits="userSpaceOnUse" gradientTransform="translate(726.563 667.969) rotate(97.8707) scale(270.993 270.993)">
<stop stop-color="#FFC94E"/>
<stop offset="1" stop-color="#FFC94E" stop-opacity="0"/>
</radialGradient>
<radialGradient id="paint5_radial_5_19" cx="0" cy="0" r="1" gradientUnits="userSpaceOnUse" gradientTransform="translate(259.766 474.609) rotate(46.5208) scale(156.116 156.116)">
<stop stop-color="#EB7F4D"/>
<stop offset="0.959931" stop-color="#EB7F4D" stop-opacity="0"/>
</radialGradient>
<radialGradient id="paint6_radial_5_19" cx="0" cy="0" r="1" gradientUnits="userSpaceOnUse" gradientTransform="translate(720.703 484.375) rotate(110.659) scale(127.328 127.328)">
<stop stop-color="#FFA95E"/>
<stop offset="1" stop-color="#FFB370" stop-opacity="0"/>
</radialGradient>
<linearGradient id="paint7_linear_5_19" x1="911.131" y1="522.459" x2="862.303" y2="687.5" gradientUnits="userSpaceOnUse">
<stop stop-color="#F2BE70"/>
<stop offset="1" stop-color="#FFEC98"/>
</linearGradient>
<radialGradient id="paint8_radial_5_19" cx="0" cy="0" r="1" gradientUnits="userSpaceOnUse" gradientTransform="translate(824.013 582.237) rotate(14.7248) scale(64.7084 142.994)">
<stop stop-color="#FFE486"/>
<stop offset="1" stop-color="#FFD68B"/>
</radialGradient>
<radialGradient id="paint9_radial_5_19" cx="0" cy="0" r="1" gradientUnits="userSpaceOnUse" gradientTransform="translate(911.185 616.366) rotate(-112.782) scale(89.1956 101.034)">
<stop offset="0.795257" stop-color="#E3B065" stop-opacity="0"/>
<stop offset="0.944024" stop-color="#E3B065"/>
</radialGradient>
<radialGradient id="paint10_radial_5_19" cx="0" cy="0" r="1" gradientUnits="userSpaceOnUse" gradientTransform="translate(924.672 576.366) rotate(118.811) scale(116.538 100.013)">
<stop offset="0.846426" stop-color="#FFF1A6" stop-opacity="0"/>
<stop offset="1" stop-color="#FFF1A6"/>
</radialGradient>
<linearGradient id="paint11_linear_5_19" x1="760.747" y1="750" x2="586.387" y2="882.347" gradientUnits="userSpaceOnUse">
<stop stop-color="#DFA055"/>
<stop offset="1" stop-color="#E1945D"/>
</linearGradient>
<radialGradient id="paint12_radial_5_19" cx="0" cy="0" r="1" gradientUnits="userSpaceOnUse" gradientTransform="translate(713.162 750) rotate(95.3771) scale(169.648 254.663)">
<stop stop-color="#FEB862"/>
<stop offset="1" stop-color="#D78B6C"/>
</radialGradient>
<radialGradient id="paint13_radial_5_19" cx="0" cy="0" r="1" gradientUnits="userSpaceOnUse" gradientTransform="translate(675.375 750) rotate(61.633) scale(143.561 375.522)">
<stop offset="0.727047" stop-color="#D8A294" stop-opacity="0"/>
<stop offset="1" stop-color="#D8A294"/>
</radialGradient>
<radialGradient id="paint14_radial_5_19" cx="0" cy="0" r="1" gradientUnits="userSpaceOnUse" gradientTransform="translate(735.1 861.591) rotate(155.573) scale(138.588 122.562)">
<stop offset="0.662245" stop-color="#EFA970" stop-opacity="0"/>
<stop offset="0.978537" stop-color="#EFA970"/>
</radialGradient>
<radialGradient id="paint15_radial_5_19" cx="0" cy="0" r="1" gradientUnits="userSpaceOnUse" gradientTransform="translate(707.584 891.838) rotate(-67.9692) scale(157.094 162.694)">
<stop offset="0.777969" stop-color="#C17967" stop-opacity="0"/>
<stop offset="0.950812" stop-color="#C17967"/>
</radialGradient>
<linearGradient id="paint16_linear_5_19" x1="463.791" y1="710.675" x2="382.891" y2="806.662" gradientUnits="userSpaceOnUse">
<stop stop-color="#D47C4B"/>
<stop offset="1" stop-color="#E28050"/>
</linearGradient>
<radialGradient id="paint17_radial_5_19" cx="0" cy="0" r="1" gradientUnits="userSpaceOnUse" gradientTransform="translate(432.616 708.009) rotate(99.8844) scale(119.467 124.266)">
<stop stop-color="#D97C5E"/>
<stop offset="1" stop-color="#F79965"/>
</radialGradient>
<radialGradient id="paint18_radial_5_19" cx="0" cy="0" r="1" gradientUnits="userSpaceOnUse" gradientTransform="translate(444.656 716.575) rotate(110.163) scale(116.252 99.3838)">
<stop offset="0.742386" stop-color="#FFA969" stop-opacity="0"/>
<stop offset="1" stop-color="#FFA969"/>
</radialGradient>
<radialGradient id="paint19_radial_5_19" cx="0" cy="0" r="1" gradientUnits="userSpaceOnUse" gradientTransform="translate(411.456 780.115) rotate(-104.912) scale(108.998 102.806)">
<stop offset="0.625503" stop-color="#C16653" stop-opacity="0"/>
<stop offset="1" stop-color="#C16653"/>
</radialGradient>
<radialGradient id="paint20_radial_5_19" cx="0" cy="0" r="1" gradientUnits="userSpaceOnUse" gradientTransform="translate(494.063 817.071) rotate(-158.194) scale(76.8484 79.9356)">
<stop stop-color="#CE8050"/>
<stop offset="1" stop-color="#CE8050" stop-opacity="0"/>
</radialGradient>
<linearGradient id="paint21_linear_5_19" x1="142.328" y1="468.75" x2="142.328" y2="695.309" gradientUnits="userSpaceOnUse">
<stop stop-color="#A2723B"/>
<stop offset="1" stop-color="#AC6E43"/>
</linearGradient>
<radialGradient id="paint22_radial_5_19" cx="0" cy="0" r="1" gradientUnits="userSpaceOnUse" gradientTransform="translate(50.3444 487.2) rotate(58.6636) scale(244.927 161.19)">
<stop stop-color="#A98861"/>
<stop offset="1" stop-color="#B1724D"/>
</radialGradient>
<radialGradient id="paint23_radial_5_19" cx="0" cy="0" r="1" gradientUnits="userSpaceOnUse" gradientTransform="translate(90.2125 602.159) rotate(-58.7652) scale(156.026 142.806)">
<stop offset="0.695704" stop-color="#9C6544" stop-opacity="0"/>
<stop offset="1" stop-color="#9C6544"/>
</radialGradient>
<radialGradient id="paint24_radial_5_19" cx="0" cy="0" r="1" gradientUnits="userSpaceOnUse" gradientTransform="translate(137.409 538.853) rotate(90) scale(157.545 103.682)">
<stop offset="0.821343" stop-color="#AF7D6F" stop-opacity="0"/>
<stop offset="1" stop-color="#AF7D6F"/>
</radialGradient>
<linearGradient id="paint25_linear_5_19" x1="461.381" y1="171.976" x2="562.169" y2="171.976" gradientUnits="userSpaceOnUse">
<stop stop-color="#FFE27E"/>
<stop offset="1" stop-color="#F1B966"/>
</linearGradient>
<linearGradient id="paint26_linear_5_19" x1="570.313" y1="171.976" x2="406.113" y2="171.976" gradientUnits="userSpaceOnUse">
<stop stop-color="#FFC770"/>
<stop offset="1" stop-color="#FFDF81"/>
</linearGradient>
<radialGradient id="paint27_radial_5_19" cx="0" cy="0" r="1" gradientUnits="userSpaceOnUse" gradientTransform="translate(464.844 171.976) scale(102.539 123.364)">
<stop offset="0.6" stop-color="#C59853" stop-opacity="0"/>
<stop offset="1" stop-color="#C59853"/>
</radialGradient>
<radialGradient id="paint28_radial_5_19" cx="0" cy="0" r="1" gradientUnits="userSpaceOnUse" gradientTransform="translate(562.169 171.976) rotate(180) scale(156.055 118.261)">
<stop offset="0.898995" stop-color="#FFF4A4" stop-opacity="0"/>
<stop offset="1" stop-color="#FFF4A4"/>
</radialGradient>
<linearGradient id="paint29_linear_5_19" x1="639.984" y1="394.656" x2="345.628" y2="506.916" gradientUnits="userSpaceOnUse">
<stop stop-color="#E78F00"/>
<stop offset="1" stop-color="#D07000"/>
</linearGradient>
<radialGradient id="paint30_radial_5_19" cx="0" cy="0" r="1" gradientUnits="userSpaceOnUse" gradientTransform="translate(607.273 263.581) rotate(78.8614) scale(257.339 533.265)">
<stop stop-color="#5F5B9B"/>
<stop offset="1" stop-color="#5C3085"/>
</radialGradient>
<radialGradient id="paint31_radial_5_19" cx="0" cy="0" r="1" gradientUnits="userSpaceOnUse" gradientTransform="translate(665.167 373.706) rotate(78.0636) scale(115.425 129.669)">
<stop offset="0.776042" stop-color="#77579C"/>
<stop offset="0.9375" stop-color="#77579C" stop-opacity="0"/>
</radialGradient>
<radialGradient id="paint32_radial_5_19" cx="0" cy="0" r="1" gradientUnits="userSpaceOnUse" gradientTransform="translate(622.972 352.542) rotate(-122.735) scale(97.9808 71.9233)">
<stop offset="0.769354" stop-color="#4E3D92"/>
<stop offset="1" stop-color="#534687" stop-opacity="0"/>
</radialGradient>
<radialGradient id="paint33_radial_5_19" cx="0" cy="0" r="1" gradientUnits="userSpaceOnUse" gradientTransform="translate(388.801 332.918) rotate(121.845) scale(123.975 140.838)">
<stop stop-color="#4C3D70"/>
<stop offset="1" stop-color="#361C5D"/>
</radialGradient>
<radialGradient id="paint34_radial_5_19" cx="0" cy="0" r="1" gradientUnits="userSpaceOnUse" gradientTransform="translate(363.292 336.189) rotate(87.1376) scale(157.185 233.41)">
<stop offset="0.647365" stop-color="#5B2B84" stop-opacity="0"/>
<stop offset="1" stop-color="#5B2B84"/>
</radialGradient>
<radialGradient id="paint35_radial_5_19" cx="0" cy="0" r="1" gradientUnits="userSpaceOnUse" gradientTransform="translate(327.969 494.486) rotate(-99.5134) scale(241.42 239.076)">
<stop offset="0.858612" stop-color="#2E1D57" stop-opacity="0"/>
<stop offset="1" stop-color="#20143D"/>
</radialGradient>
<radialGradient id="paint36_radial_5_19" cx="0" cy="0" r="1" gradientUnits="userSpaceOnUse" gradientTransform="translate(348.247 320.49) rotate(102.225) scale(160.632 150.756)">
<stop offset="0.872281" stop-color="#2E1D57" stop-opacity="0"/>
<stop offset="1" stop-color="#20143D" stop-opacity="0.6"/>
</radialGradient>
<linearGradient id="paint37_linear_5_19" x1="398.254" y1="303.204" x2="400.904" y2="375.484" gradientUnits="userSpaceOnUse">
<stop stop-color="white"/>
<stop offset="0.973958" stop-color="white" stop-opacity="0"/>
</linearGradient>
<radialGradient id="paint38_radial_5_19" cx="0" cy="0" r="1" gradientUnits="userSpaceOnUse" gradientTransform="translate(681.192 324.415) rotate(121.289) scale(138.546 208.107)">
<stop stop-color="#4C3D70"/>
<stop offset="1" stop-color="#361C5D"/>
</radialGradient>
<radialGradient id="paint39_radial_5_19" cx="0" cy="0" r="1" gradientUnits="userSpaceOnUse" gradientTransform="translate(636.71 336.189) rotate(92.8624) scale(157.185 233.41)">
<stop offset="0.647365" stop-color="#5B2B84" stop-opacity="0"/>
<stop offset="1" stop-color="#5B2B84"/>
</radialGradient>
<radialGradient id="paint40_radial_5_19" cx="0" cy="0" r="1" gradientUnits="userSpaceOnUse" gradientTransform="translate(665.776 466.36) rotate(-77.6023) scale(214.987 212.898)">
<stop offset="0.858612" stop-color="#2E1D57" stop-opacity="0"/>
<stop offset="1" stop-color="#20143D"/>
</radialGradient>
<radialGradient id="paint41_radial_5_19" cx="0" cy="0" r="1" gradientUnits="userSpaceOnUse" gradientTransform="translate(651.754 320.49) rotate(77.7749) scale(160.632 150.756)">
<stop offset="0.872281" stop-color="#2E1D57" stop-opacity="0"/>
<stop offset="1" stop-color="#20143D" stop-opacity="0.6"/>
</radialGradient>
<linearGradient id="paint42_linear_5_19" x1="733.879" y1="303.204" x2="736.529" y2="375.484" gradientUnits="userSpaceOnUse">
<stop stop-color="white"/>
<stop offset="0.973958" stop-color="white" stop-opacity="0"/>
</linearGradient>
<linearGradient id="paint43_linear_5_19" x1="318.128" y1="552.738" x2="480.159" y2="625.316" gradientUnits="userSpaceOnUse">
<stop stop-color="#B2673E"/>
<stop offset="1" stop-color="#BA6E47"/>
</linearGradient>
<linearGradient id="paint44_linear_5_19" x1="496.091" y1="555.95" x2="496.091" y2="615.55" gradientUnits="userSpaceOnUse">
<stop stop-color="#4A393E"/>
<stop offset="1" stop-color="#391E47"/>
</linearGradient>
<linearGradient id="paint45_linear_5_19" x1="408.506" y1="555.335" x2="547.259" y2="582.694" gradientUnits="userSpaceOnUse">
<stop stop-color="#463E4C"/>
<stop offset="1" stop-color="#4F425A"/>
</linearGradient>
</defs>
</svg>
