<svg width="1000" height="1000" viewBox="0 0 1000 1000" fill="none" xmlns="http://www.w3.org/2000/svg">
<g filter="url(#filter0_i_1_2)">
<path d="M423.515 97.3219C471.365 43.4588 536.425 52.0313 578.056 97.3219L603.444 126.716C612.234 136.28 624.956 141.24 637.9 140.15L683.037 126.716C744.559 113.527 800.469 159.426 800.469 230.715V257.57C801.772 272.23 814.578 282.168 827.803 288.627L868.584 305.666C927.572 334.475 942.312 402.834 899.344 460.206L887.137 476.319C876.187 491.122 878.437 510.55 889.334 525.394L901.54 542.481C945.975 597.169 920.922 672.2 858.156 698.413L823.053 713.075C809.828 718.597 804.65 728.075 802.178 742.191L799.734 788.088C791.19 851.075 735.247 879.528 690.359 873.172L636.894 858.888C624.053 857.069 608.084 861.331 599.541 874.756L580.253 901.125C532.4 955.081 467.815 946.109 435.234 914.553L399.653 871.463C390.337 862.441 378.594 854.738 364.534 860.044L310.721 874.756C266.294 881.05 213.981 846.894 205.607 802.813L199.393 739.016C196.871 725.738 188.115 714.484 175.864 708.775L138.115 695.803C81.3477 669.35 62.3346 605.306 94.9286 551.828L116.205 522.406C124.751 508.384 124.345 490.669 115.165 477.053L99.2958 454.591C54.3749 390.628 85.433 319.131 151.999 297.698L166.68 292.971C182.884 287.753 198.537 274.296 199.883 257.326L203.153 216.131C208.459 149.264 269.475 110.895 333.653 130.405L354.422 136.719C374.441 144.532 390.128 137.878 401.053 125.977L423.515 97.3219Z" fill="url(#paint0_linear_1_2)"/>
<path d="M423.515 97.3219C471.365 43.4588 536.425 52.0313 578.056 97.3219L603.444 126.716C612.234 136.28 624.956 141.24 637.9 140.15L683.037 126.716C744.559 113.527 800.469 159.426 800.469 230.715V257.57C801.772 272.23 814.578 282.168 827.803 288.627L868.584 305.666C927.572 334.475 942.312 402.834 899.344 460.206L887.137 476.319C876.187 491.122 878.437 510.55 889.334 525.394L901.54 542.481C945.975 597.169 920.922 672.2 858.156 698.413L823.053 713.075C809.828 718.597 804.65 728.075 802.178 742.191L799.734 788.088C791.19 851.075 735.247 879.528 690.359 873.172L636.894 858.888C624.053 857.069 608.084 861.331 599.541 874.756L580.253 901.125C532.4 955.081 467.815 946.109 435.234 914.553L399.653 871.463C390.337 862.441 378.594 854.738 364.534 860.044L310.721 874.756C266.294 881.05 213.981 846.894 205.607 802.813L199.393 739.016C196.871 725.738 188.115 714.484 175.864 708.775L138.115 695.803C81.3477 669.35 62.3346 605.306 94.9286 551.828L116.205 522.406C124.751 508.384 124.345 490.669 115.165 477.053L99.2958 454.591C54.3749 390.628 85.433 319.131 151.999 297.698L166.68 292.971C182.884 287.753 198.537 274.296 199.883 257.326L203.153 216.131C208.459 149.264 269.475 110.895 333.653 130.405L354.422 136.719C374.441 144.532 390.128 137.878 401.053 125.977L423.515 97.3219Z" fill="url(#paint1_radial_1_2)"/>
<path d="M423.515 97.3219C471.365 43.4588 536.425 52.0313 578.056 97.3219L603.444 126.716C612.234 136.28 624.956 141.24 637.9 140.15L683.037 126.716C744.559 113.527 800.469 159.426 800.469 230.715V257.57C801.772 272.23 814.578 282.168 827.803 288.627L868.584 305.666C927.572 334.475 942.312 402.834 899.344 460.206L887.137 476.319C876.187 491.122 878.437 510.55 889.334 525.394L901.54 542.481C945.975 597.169 920.922 672.2 858.156 698.413L823.053 713.075C809.828 718.597 804.65 728.075 802.178 742.191L799.734 788.088C791.19 851.075 735.247 879.528 690.359 873.172L636.894 858.888C624.053 857.069 608.084 861.331 599.541 874.756L580.253 901.125C532.4 955.081 467.815 946.109 435.234 914.553L399.653 871.463C390.337 862.441 378.594 854.738 364.534 860.044L310.721 874.756C266.294 881.05 213.981 846.894 205.607 802.813L199.393 739.016C196.871 725.738 188.115 714.484 175.864 708.775L138.115 695.803C81.3477 669.35 62.3346 605.306 94.9286 551.828L116.205 522.406C124.751 508.384 124.345 490.669 115.165 477.053L99.2958 454.591C54.3749 390.628 85.433 319.131 151.999 297.698L166.68 292.971C182.884 287.753 198.537 274.296 199.883 257.326L203.153 216.131C208.459 149.264 269.475 110.895 333.653 130.405L354.422 136.719C374.441 144.532 390.128 137.878 401.053 125.977L423.515 97.3219Z" fill="url(#paint2_radial_1_2)"/>
<path d="M423.515 97.3219C471.365 43.4588 536.425 52.0313 578.056 97.3219L603.444 126.716C612.234 136.28 624.956 141.24 637.9 140.15L683.037 126.716C744.559 113.527 800.469 159.426 800.469 230.715V257.57C801.772 272.23 814.578 282.168 827.803 288.627L868.584 305.666C927.572 334.475 942.312 402.834 899.344 460.206L887.137 476.319C876.187 491.122 878.437 510.55 889.334 525.394L901.54 542.481C945.975 597.169 920.922 672.2 858.156 698.413L823.053 713.075C809.828 718.597 804.65 728.075 802.178 742.191L799.734 788.088C791.19 851.075 735.247 879.528 690.359 873.172L636.894 858.888C624.053 857.069 608.084 861.331 599.541 874.756L580.253 901.125C532.4 955.081 467.815 946.109 435.234 914.553L399.653 871.463C390.337 862.441 378.594 854.738 364.534 860.044L310.721 874.756C266.294 881.05 213.981 846.894 205.607 802.813L199.393 739.016C196.871 725.738 188.115 714.484 175.864 708.775L138.115 695.803C81.3477 669.35 62.3346 605.306 94.9286 551.828L116.205 522.406C124.751 508.384 124.345 490.669 115.165 477.053L99.2958 454.591C54.3749 390.628 85.433 319.131 151.999 297.698L166.68 292.971C182.884 287.753 198.537 274.296 199.883 257.326L203.153 216.131C208.459 149.264 269.475 110.895 333.653 130.405L354.422 136.719C374.441 144.532 390.128 137.878 401.053 125.977L423.515 97.3219Z" fill="url(#paint3_radial_1_2)"/>
<path d="M423.515 97.3219C471.365 43.4588 536.425 52.0313 578.056 97.3219L603.444 126.716C612.234 136.28 624.956 141.24 637.9 140.15L683.037 126.716C744.559 113.527 800.469 159.426 800.469 230.715V257.57C801.772 272.23 814.578 282.168 827.803 288.627L868.584 305.666C927.572 334.475 942.312 402.834 899.344 460.206L887.137 476.319C876.187 491.122 878.437 510.55 889.334 525.394L901.54 542.481C945.975 597.169 920.922 672.2 858.156 698.413L823.053 713.075C809.828 718.597 804.65 728.075 802.178 742.191L799.734 788.088C791.19 851.075 735.247 879.528 690.359 873.172L636.894 858.888C624.053 857.069 608.084 861.331 599.541 874.756L580.253 901.125C532.4 955.081 467.815 946.109 435.234 914.553L399.653 871.463C390.337 862.441 378.594 854.738 364.534 860.044L310.721 874.756C266.294 881.05 213.981 846.894 205.607 802.813L199.393 739.016C196.871 725.738 188.115 714.484 175.864 708.775L138.115 695.803C81.3477 669.35 62.3346 605.306 94.9286 551.828L116.205 522.406C124.751 508.384 124.345 490.669 115.165 477.053L99.2958 454.591C54.3749 390.628 85.433 319.131 151.999 297.698L166.68 292.971C182.884 287.753 198.537 274.296 199.883 257.326L203.153 216.131C208.459 149.264 269.475 110.895 333.653 130.405L354.422 136.719C374.441 144.532 390.128 137.878 401.053 125.977L423.515 97.3219Z" fill="url(#paint4_radial_1_2)"/>
<path d="M423.515 97.3219C471.365 43.4588 536.425 52.0313 578.056 97.3219L603.444 126.716C612.234 136.28 624.956 141.24 637.9 140.15L683.037 126.716C744.559 113.527 800.469 159.426 800.469 230.715V257.57C801.772 272.23 814.578 282.168 827.803 288.627L868.584 305.666C927.572 334.475 942.312 402.834 899.344 460.206L887.137 476.319C876.187 491.122 878.437 510.55 889.334 525.394L901.54 542.481C945.975 597.169 920.922 672.2 858.156 698.413L823.053 713.075C809.828 718.597 804.65 728.075 802.178 742.191L799.734 788.088C791.19 851.075 735.247 879.528 690.359 873.172L636.894 858.888C624.053 857.069 608.084 861.331 599.541 874.756L580.253 901.125C532.4 955.081 467.815 946.109 435.234 914.553L399.653 871.463C390.337 862.441 378.594 854.738 364.534 860.044L310.721 874.756C266.294 881.05 213.981 846.894 205.607 802.813L199.393 739.016C196.871 725.738 188.115 714.484 175.864 708.775L138.115 695.803C81.3477 669.35 62.3346 605.306 94.9286 551.828L116.205 522.406C124.751 508.384 124.345 490.669 115.165 477.053L99.2958 454.591C54.3749 390.628 85.433 319.131 151.999 297.698L166.68 292.971C182.884 287.753 198.537 274.296 199.883 257.326L203.153 216.131C208.459 149.264 269.475 110.895 333.653 130.405L354.422 136.719C374.441 144.532 390.128 137.878 401.053 125.977L423.515 97.3219Z" fill="url(#paint5_radial_1_2)"/>
<path d="M423.515 97.3219C471.365 43.4588 536.425 52.0313 578.056 97.3219L603.444 126.716C612.234 136.28 624.956 141.24 637.9 140.15L683.037 126.716C744.559 113.527 800.469 159.426 800.469 230.715V257.57C801.772 272.23 814.578 282.168 827.803 288.627L868.584 305.666C927.572 334.475 942.312 402.834 899.344 460.206L887.137 476.319C876.187 491.122 878.437 510.55 889.334 525.394L901.54 542.481C945.975 597.169 920.922 672.2 858.156 698.413L823.053 713.075C809.828 718.597 804.65 728.075 802.178 742.191L799.734 788.088C791.19 851.075 735.247 879.528 690.359 873.172L636.894 858.888C624.053 857.069 608.084 861.331 599.541 874.756L580.253 901.125C532.4 955.081 467.815 946.109 435.234 914.553L399.653 871.463C390.337 862.441 378.594 854.738 364.534 860.044L310.721 874.756C266.294 881.05 213.981 846.894 205.607 802.813L199.393 739.016C196.871 725.738 188.115 714.484 175.864 708.775L138.115 695.803C81.3477 669.35 62.3346 605.306 94.9286 551.828L116.205 522.406C124.751 508.384 124.345 490.669 115.165 477.053L99.2958 454.591C54.3749 390.628 85.433 319.131 151.999 297.698L166.68 292.971C182.884 287.753 198.537 274.296 199.883 257.326L203.153 216.131C208.459 149.264 269.475 110.895 333.653 130.405L354.422 136.719C374.441 144.532 390.128 137.878 401.053 125.977L423.515 97.3219Z" fill="url(#paint6_radial_1_2)"/>
<path d="M423.515 97.3219C471.365 43.4588 536.425 52.0313 578.056 97.3219L603.444 126.716C612.234 136.28 624.956 141.24 637.9 140.15L683.037 126.716C744.559 113.527 800.469 159.426 800.469 230.715V257.57C801.772 272.23 814.578 282.168 827.803 288.627L868.584 305.666C927.572 334.475 942.312 402.834 899.344 460.206L887.137 476.319C876.187 491.122 878.437 510.55 889.334 525.394L901.54 542.481C945.975 597.169 920.922 672.2 858.156 698.413L823.053 713.075C809.828 718.597 804.65 728.075 802.178 742.191L799.734 788.088C791.19 851.075 735.247 879.528 690.359 873.172L636.894 858.888C624.053 857.069 608.084 861.331 599.541 874.756L580.253 901.125C532.4 955.081 467.815 946.109 435.234 914.553L399.653 871.463C390.337 862.441 378.594 854.738 364.534 860.044L310.721 874.756C266.294 881.05 213.981 846.894 205.607 802.813L199.393 739.016C196.871 725.738 188.115 714.484 175.864 708.775L138.115 695.803C81.3477 669.35 62.3346 605.306 94.9286 551.828L116.205 522.406C124.751 508.384 124.345 490.669 115.165 477.053L99.2958 454.591C54.3749 390.628 85.433 319.131 151.999 297.698L166.68 292.971C182.884 287.753 198.537 274.296 199.883 257.326L203.153 216.131C208.459 149.264 269.475 110.895 333.653 130.405L354.422 136.719C374.441 144.532 390.128 137.878 401.053 125.977L423.515 97.3219Z" fill="url(#paint7_radial_1_2)"/>
<path d="M423.515 97.3219C471.365 43.4588 536.425 52.0313 578.056 97.3219L603.444 126.716C612.234 136.28 624.956 141.24 637.9 140.15L683.037 126.716C744.559 113.527 800.469 159.426 800.469 230.715V257.57C801.772 272.23 814.578 282.168 827.803 288.627L868.584 305.666C927.572 334.475 942.312 402.834 899.344 460.206L887.137 476.319C876.187 491.122 878.437 510.55 889.334 525.394L901.54 542.481C945.975 597.169 920.922 672.2 858.156 698.413L823.053 713.075C809.828 718.597 804.65 728.075 802.178 742.191L799.734 788.088C791.19 851.075 735.247 879.528 690.359 873.172L636.894 858.888C624.053 857.069 608.084 861.331 599.541 874.756L580.253 901.125C532.4 955.081 467.815 946.109 435.234 914.553L399.653 871.463C390.337 862.441 378.594 854.738 364.534 860.044L310.721 874.756C266.294 881.05 213.981 846.894 205.607 802.813L199.393 739.016C196.871 725.738 188.115 714.484 175.864 708.775L138.115 695.803C81.3477 669.35 62.3346 605.306 94.9286 551.828L116.205 522.406C124.751 508.384 124.345 490.669 115.165 477.053L99.2958 454.591C54.3749 390.628 85.433 319.131 151.999 297.698L166.68 292.971C182.884 287.753 198.537 274.296 199.883 257.326L203.153 216.131C208.459 149.264 269.475 110.895 333.653 130.405L354.422 136.719C374.441 144.532 390.128 137.878 401.053 125.977L423.515 97.3219Z" fill="url(#paint8_radial_1_2)"/>
<path d="M423.515 97.3219C471.365 43.4588 536.425 52.0313 578.056 97.3219L603.444 126.716C612.234 136.28 624.956 141.24 637.9 140.15L683.037 126.716C744.559 113.527 800.469 159.426 800.469 230.715V257.57C801.772 272.23 814.578 282.168 827.803 288.627L868.584 305.666C927.572 334.475 942.312 402.834 899.344 460.206L887.137 476.319C876.187 491.122 878.437 510.55 889.334 525.394L901.54 542.481C945.975 597.169 920.922 672.2 858.156 698.413L823.053 713.075C809.828 718.597 804.65 728.075 802.178 742.191L799.734 788.088C791.19 851.075 735.247 879.528 690.359 873.172L636.894 858.888C624.053 857.069 608.084 861.331 599.541 874.756L580.253 901.125C532.4 955.081 467.815 946.109 435.234 914.553L399.653 871.463C390.337 862.441 378.594 854.738 364.534 860.044L310.721 874.756C266.294 881.05 213.981 846.894 205.607 802.813L199.393 739.016C196.871 725.738 188.115 714.484 175.864 708.775L138.115 695.803C81.3477 669.35 62.3346 605.306 94.9286 551.828L116.205 522.406C124.751 508.384 124.345 490.669 115.165 477.053L99.2958 454.591C54.3749 390.628 85.433 319.131 151.999 297.698L166.68 292.971C182.884 287.753 198.537 274.296 199.883 257.326L203.153 216.131C208.459 149.264 269.475 110.895 333.653 130.405L354.422 136.719C374.441 144.532 390.128 137.878 401.053 125.977L423.515 97.3219Z" fill="url(#paint9_radial_1_2)"/>
</g>
<g filter="url(#filter1_d_1_2)">
<path d="M501.135 834.919C686.547 834.919 836.85 684.612 836.85 499.2C836.85 313.787 686.547 163.483 501.135 163.483C315.722 163.483 165.417 313.787 165.417 499.2C165.417 684.612 315.722 834.919 501.135 834.919Z" fill="url(#paint10_radial_1_2)"/>
</g>
<g opacity="0.44" filter="url(#filter2_f_1_2)">
<path d="M294.57 610.619C345.656 610.619 387.069 569.203 387.069 518.119C387.069 467.032 345.656 425.619 294.57 425.619C243.484 425.619 202.07 467.032 202.07 518.119C202.07 569.203 243.484 610.619 294.57 610.619Z" fill="url(#paint11_radial_1_2)"/>
</g>
<g opacity="0.44" filter="url(#filter3_f_1_2)">
<path d="M707.697 610.619C758.785 610.619 800.197 569.203 800.197 518.119C800.197 467.032 758.785 425.619 707.697 425.619C656.613 425.619 615.197 467.032 615.197 518.119C615.197 569.203 656.613 610.619 707.697 610.619Z" fill="url(#paint12_radial_1_2)"/>
</g>
<g filter="url(#filter4_f_1_2)">
<path fill-rule="evenodd" clip-rule="evenodd" d="M345.969 565.331C355.122 556.178 369.962 556.178 379.112 565.331C446.525 632.741 555.747 632.741 623.156 565.331C632.309 556.178 647.15 556.178 656.3 565.331C665.453 574.484 665.453 589.325 656.3 598.478C570.587 684.194 431.684 684.194 345.969 598.478C336.815 589.325 336.815 574.484 345.969 565.331Z" fill="#D6961E"/>
</g>
<g filter="url(#filter5_i_1_2)">
<path fill-rule="evenodd" clip-rule="evenodd" d="M353.934 553.731C363.087 544.578 377.928 544.578 387.081 553.731C454.49 621.141 563.712 621.141 631.122 553.731C640.275 544.578 655.115 544.578 664.268 553.731C673.422 562.884 673.422 577.725 664.268 586.878C578.553 672.594 439.65 672.594 353.934 586.878C344.781 577.725 344.781 562.884 353.934 553.731Z" fill="url(#paint13_linear_1_2)"/>
<path fill-rule="evenodd" clip-rule="evenodd" d="M353.934 553.731C363.087 544.578 377.928 544.578 387.081 553.731C454.49 621.141 563.712 621.141 631.122 553.731C640.275 544.578 655.115 544.578 664.268 553.731C673.422 562.884 673.422 577.725 664.268 586.878C578.553 672.594 439.65 672.594 353.934 586.878C344.781 577.725 344.781 562.884 353.934 553.731Z" fill="url(#paint14_linear_1_2)"/>
</g>
<g filter="url(#filter6_f_1_2)">
<path d="M371.596 571.044C416.612 613.188 534.421 672.188 645.528 571.044" stroke="url(#paint15_linear_1_2)" stroke-width="1.70672" stroke-linecap="round"/>
<path d="M371.596 571.044C416.612 613.188 534.421 672.188 645.528 571.044" stroke="url(#paint16_linear_1_2)" stroke-width="1.70672" stroke-linecap="round"/>
</g>
<g filter="url(#filter7_f_1_2)">
<path fill-rule="evenodd" clip-rule="evenodd" d="M371.022 401.244C354.141 401.244 339.884 411.506 334.163 426.088C329.813 437.175 317.297 442.638 306.208 438.284C295.119 433.934 289.658 421.419 294.009 410.331C306.117 379.475 336.144 358.109 371.022 358.109C407.609 358.109 438.706 381.859 449.594 414.913C453.322 426.225 447.172 438.416 435.856 442.144C424.544 445.872 412.353 439.719 408.625 428.406C403.409 412.575 388.497 401.244 371.022 401.244Z" fill="#C68D0F"/>
</g>
<path fill-rule="evenodd" clip-rule="evenodd" d="M375.197 395.619C356.853 395.619 341.359 406.772 335.141 422.619C330.413 434.666 316.809 440.603 304.761 435.875C292.712 431.147 286.777 417.544 291.505 405.494C304.662 371.966 337.294 348.744 375.197 348.744C414.956 348.744 448.75 374.553 460.584 410.472C464.634 422.769 457.95 436.016 445.656 440.066C433.363 444.116 420.113 437.435 416.063 425.138C410.394 407.931 394.188 395.619 375.197 395.619Z" fill="url(#paint17_linear_1_2)"/>
<g filter="url(#filter8_f_1_2)">
<path fill-rule="evenodd" clip-rule="evenodd" d="M641.628 401.244C624.747 401.244 610.488 411.506 604.769 426.088C600.416 437.175 587.9 442.638 576.813 438.284C565.725 433.934 560.263 421.419 564.616 410.331C576.722 379.475 606.747 358.109 641.628 358.109C678.213 358.109 709.313 381.859 720.2 414.913C723.925 426.225 717.775 438.416 706.463 442.144C695.15 445.872 682.956 439.719 679.231 428.406C674.016 412.575 659.103 401.244 641.628 401.244Z" fill="#C68D0F"/>
</g>
<g filter="url(#filter9_i_1_2)">
<path fill-rule="evenodd" clip-rule="evenodd" d="M644.572 395.619C626.228 395.619 610.735 406.772 604.516 422.619C599.788 434.666 586.185 440.603 574.138 435.875C562.088 431.147 556.15 417.544 560.878 405.494C574.038 371.966 606.669 348.744 644.572 348.744C684.331 348.744 718.125 374.553 729.96 410.472C734.01 422.769 727.325 436.016 715.031 440.066C702.738 444.116 689.488 437.435 685.438 425.138C679.769 407.931 663.563 395.619 644.572 395.619Z" fill="#422E51"/>
</g>
<g filter="url(#filter10_f_1_2)">
<path d="M442.578 421.413C439.097 400.516 417.269 360.578 357.825 368.01" stroke="url(#paint18_linear_1_2)" stroke-width="1.42226" stroke-linecap="round"/>
</g>
<g opacity="0.5" filter="url(#filter11_f_1_2)">
<path d="M586.006 409.775C591.75 396.178 611.631 369.328 645.181 370.707C678.734 372.085 705.316 395.219 712.403 409.775" stroke="url(#paint19_linear_1_2)" stroke-width="1.42226" stroke-linecap="round"/>
</g>
<g filter="url(#filter12_f_1_2)">
<path d="M265.449 473.496C269.57 490.57 281.41 523.003 319.216 532.362C324.852 533.758 330.391 534.771 335.946 535.536C336.217 535.574 336.487 535.606 336.759 535.63C417.861 543.232 471.476 474.676 474.092 400.091C474.311 393.91 479.07 388.683 485.254 388.602C488.547 388.56 491.963 388.564 495.478 388.626C501.638 388.733 506.365 393.946 506.584 400.103C509.232 474.683 562.796 543.234 643.914 535.63C644.185 535.606 644.457 535.574 644.726 535.536C650.282 534.771 655.822 533.758 661.457 532.362C711.541 519.962 742.612 487.043 758.501 451.736C756.036 436.799 752.527 422.327 747.973 408.439C743.219 449.948 720.993 455.189 661.457 469.928C656.557 471.142 639.811 482.816 634.815 483.505C578.299 488.803 562.405 451.736 530.369 392.548L530.366 391.961C530.366 391.687 530.367 391.416 530.373 391.145C532.447 391.416 534.533 391.712 536.624 392.034L541.778 358.587C547.735 350.911 555.696 344.872 564.88 341.258C567.039 340.325 572.086 338.207 587.692 335.297C603.793 332.295 646.779 332.329 673.014 332.35L678.869 332.353C692.721 332.353 705.302 336.376 713.427 340.053C706.79 330.914 699.483 322.283 691.506 314.219C687.364 313.77 683.121 313.515 678.869 313.515L672.943 313.511C659.869 313.501 642.386 313.487 626.125 313.856C610.372 314.214 587.034 315.218 577.225 317.047C561.007 320.07 554.464 322.493 550.677 324.112C540.262 328.262 531.317 334.66 524.256 342.726C519.614 348.03 513.038 351.57 505.996 351.258C494.691 350.757 484.06 350.815 474.543 351.2C467.537 351.484 461.003 347.957 456.38 342.685C449.325 334.638 440.394 328.255 429.997 324.112C426.208 322.493 419.666 320.07 403.449 317.047C393.64 315.218 370.301 314.214 354.547 313.856C338.287 313.487 320.803 313.501 307.73 313.511L307.488 313.512C301.244 319.768 295.406 326.37 289.973 333.289C293.752 332.703 297.723 332.353 301.804 332.353L307.658 332.35C333.894 332.329 376.879 332.295 392.98 335.297C408.588 338.207 413.635 340.325 415.792 341.258C424.639 344.739 432.35 350.47 438.227 357.745L444.666 391.928C446.202 391.64 448.091 391.333 450.299 391.024C450.303 391.337 450.307 391.648 450.307 391.961L450.303 392.548C453.688 471.876 393.274 519.689 336.759 514.391C331.763 513.702 326.885 512.805 321.985 511.592C278.684 500.871 281.83 469.062 269.57 438.763C267.395 449.891 266.435 461.862 265.449 473.496Z" fill="url(#paint20_linear_1_2)"/>
</g>
<path fill-rule="evenodd" clip-rule="evenodd" d="M439.659 305.273C450.058 309.416 458.989 315.799 466.044 323.846C470.667 329.118 477.201 332.645 484.207 332.361C493.724 331.976 504.355 331.918 515.66 332.419C522.702 332.731 529.278 329.191 533.92 323.888C540.981 315.821 549.926 309.423 560.34 305.273C564.128 303.654 570.671 301.232 586.887 298.208C596.696 296.379 620.036 295.375 635.789 295.017C652.048 294.648 669.533 294.662 682.607 294.672L688.531 294.676C710.938 294.676 733.044 301.755 741.811 307.039C761.531 317.047 779.782 336.18 781.092 369.105C781.144 369.597 781.18 370.093 781.195 370.593C782.749 421.238 751.3 493.672 671.121 513.523C665.484 514.919 659.946 515.932 654.39 516.697C654.121 516.735 653.849 516.767 653.578 516.791C572.46 524.395 518.896 455.844 516.248 381.263C516.029 375.106 511.302 369.894 505.142 369.787C501.627 369.725 498.211 369.721 494.918 369.763C488.734 369.843 483.975 375.071 483.756 381.253C481.14 455.837 427.523 524.393 346.423 516.791C346.151 516.767 345.88 516.735 345.61 516.697C340.055 515.932 334.515 514.919 328.88 513.523C248.701 493.672 217.251 421.238 218.805 370.593C218.82 370.093 218.855 369.597 218.909 369.105C220.218 336.18 238.468 317.047 258.19 307.039C266.956 301.755 289.062 294.676 311.468 294.676L317.394 294.672C330.467 294.662 347.951 294.648 364.211 295.017C379.965 295.375 403.302 296.379 413.111 298.208C429.33 301.232 435.872 303.654 439.659 305.273ZM245.499 352.344C250.206 340.879 258.944 331.509 270.708 324.419C277.323 320.432 293.301 313.515 311.468 313.515L317.322 313.511C343.558 313.49 386.543 313.456 402.645 316.458C418.252 319.368 423.299 321.487 425.456 322.419C434.301 325.9 442.014 331.631 447.891 338.906L454.329 373.09C455.866 372.801 457.755 372.493 459.961 372.186C459.967 372.497 459.971 372.809 459.971 373.121L459.967 373.709C463.352 453.037 402.938 500.85 346.423 495.552C341.427 494.863 336.549 493.966 331.649 492.753C272.113 478.014 247.118 431.109 242.363 389.6C241.63 383.207 241.378 376.943 241.554 370.943L241.559 370.775L241.596 370.776L241.603 370.593C241.866 364.026 243.203 357.936 245.499 352.344ZM540.035 372.306C540.031 372.577 540.03 372.849 540.03 373.121L540.033 373.709C536.648 453.037 597.062 500.85 653.578 495.552C658.574 494.863 663.451 493.966 668.351 492.753C727.887 478.014 752.883 431.109 757.637 389.6C758.37 383.207 758.623 376.943 758.448 370.943L758.442 370.775L758.404 370.776L758.397 370.593C758.135 364.026 756.797 357.936 754.501 352.344C749.793 340.879 741.056 331.509 729.293 324.419C722.677 320.432 706.699 313.515 688.531 313.515L682.678 313.511C656.442 313.49 613.457 313.456 597.356 316.458C581.748 319.368 576.701 321.487 574.544 322.419C565.36 326.033 557.397 332.072 551.442 339.748L546.288 373.196C544.197 372.874 542.111 372.577 540.035 372.306Z" fill="url(#paint21_radial_1_2)"/>
<path fill-rule="evenodd" clip-rule="evenodd" d="M439.659 305.273C450.058 309.416 458.989 315.799 466.044 323.846C470.667 329.118 477.201 332.645 484.207 332.361C493.724 331.976 504.355 331.918 515.66 332.419C522.702 332.731 529.278 329.191 533.92 323.888C540.981 315.821 549.926 309.423 560.34 305.273C564.128 303.654 570.671 301.232 586.887 298.208C596.696 296.379 620.036 295.375 635.789 295.017C652.048 294.648 669.533 294.662 682.607 294.672L688.531 294.676C710.938 294.676 733.044 301.755 741.811 307.039C761.531 317.047 779.782 336.18 781.092 369.105C781.144 369.597 781.18 370.093 781.195 370.593C782.749 421.238 751.3 493.672 671.121 513.523C665.484 514.919 659.946 515.932 654.39 516.697C654.121 516.735 653.849 516.767 653.578 516.791C572.46 524.395 518.896 455.844 516.248 381.263C516.029 375.106 511.302 369.894 505.142 369.787C501.627 369.725 498.211 369.721 494.918 369.763C488.734 369.843 483.975 375.071 483.756 381.253C481.14 455.837 427.523 524.393 346.423 516.791C346.151 516.767 345.88 516.735 345.61 516.697C340.055 515.932 334.515 514.919 328.88 513.523C248.701 493.672 217.251 421.238 218.805 370.593C218.82 370.093 218.855 369.597 218.909 369.105C220.218 336.18 238.468 317.047 258.19 307.039C266.956 301.755 289.062 294.676 311.468 294.676L317.394 294.672C330.467 294.662 347.951 294.648 364.211 295.017C379.965 295.375 403.302 296.379 413.111 298.208C429.33 301.232 435.872 303.654 439.659 305.273ZM245.499 352.344C250.206 340.879 258.944 331.509 270.708 324.419C277.323 320.432 293.301 313.515 311.468 313.515L317.322 313.511C343.558 313.49 386.543 313.456 402.645 316.458C418.252 319.368 423.299 321.487 425.456 322.419C434.301 325.9 442.014 331.631 447.891 338.906L454.329 373.09C455.866 372.801 457.755 372.493 459.961 372.186C459.967 372.497 459.971 372.809 459.971 373.121L459.967 373.709C463.352 453.037 402.938 500.85 346.423 495.552C341.427 494.863 336.549 493.966 331.649 492.753C272.113 478.014 247.118 431.109 242.363 389.6C241.63 383.207 241.378 376.943 241.554 370.943L241.559 370.775L241.596 370.776L241.603 370.593C241.866 364.026 243.203 357.936 245.499 352.344ZM540.035 372.306C540.031 372.577 540.03 372.849 540.03 373.121L540.033 373.709C536.648 453.037 597.062 500.85 653.578 495.552C658.574 494.863 663.451 493.966 668.351 492.753C727.887 478.014 752.883 431.109 757.637 389.6C758.37 383.207 758.623 376.943 758.448 370.943L758.442 370.775L758.404 370.776L758.397 370.593C758.135 364.026 756.797 357.936 754.501 352.344C749.793 340.879 741.056 331.509 729.293 324.419C722.677 320.432 706.699 313.515 688.531 313.515L682.678 313.511C656.442 313.49 613.457 313.456 597.356 316.458C581.748 319.368 576.701 321.487 574.544 322.419C565.36 326.033 557.397 332.072 551.442 339.748L546.288 373.196C544.197 372.874 542.111 372.577 540.035 372.306Z" fill="url(#paint22_radial_1_2)"/>
<path fill-rule="evenodd" clip-rule="evenodd" d="M439.659 305.273C450.058 309.416 458.989 315.799 466.044 323.846C470.667 329.118 477.201 332.645 484.207 332.361C493.724 331.976 504.355 331.918 515.66 332.419C522.702 332.731 529.278 329.191 533.92 323.888C540.981 315.821 549.926 309.423 560.34 305.273C564.128 303.654 570.671 301.232 586.887 298.208C596.696 296.379 620.036 295.375 635.789 295.017C652.048 294.648 669.533 294.662 682.607 294.672L688.531 294.676C710.938 294.676 733.044 301.755 741.811 307.039C761.531 317.047 779.782 336.18 781.092 369.105C781.144 369.597 781.18 370.093 781.195 370.593C782.749 421.238 751.3 493.672 671.121 513.523C665.484 514.919 659.946 515.932 654.39 516.697C654.121 516.735 653.849 516.767 653.578 516.791C572.46 524.395 518.896 455.844 516.248 381.263C516.029 375.106 511.302 369.894 505.142 369.787C501.627 369.725 498.211 369.721 494.918 369.763C488.734 369.843 483.975 375.071 483.756 381.253C481.14 455.837 427.523 524.393 346.423 516.791C346.151 516.767 345.88 516.735 345.61 516.697C340.055 515.932 334.515 514.919 328.88 513.523C248.701 493.672 217.251 421.238 218.805 370.593C218.82 370.093 218.855 369.597 218.909 369.105C220.218 336.18 238.468 317.047 258.19 307.039C266.956 301.755 289.062 294.676 311.468 294.676L317.394 294.672C330.467 294.662 347.951 294.648 364.211 295.017C379.965 295.375 403.302 296.379 413.111 298.208C429.33 301.232 435.872 303.654 439.659 305.273ZM245.499 352.344C250.206 340.879 258.944 331.509 270.708 324.419C277.323 320.432 293.301 313.515 311.468 313.515L317.322 313.511C343.558 313.49 386.543 313.456 402.645 316.458C418.252 319.368 423.299 321.487 425.456 322.419C434.301 325.9 442.014 331.631 447.891 338.906L454.329 373.09C455.866 372.801 457.755 372.493 459.961 372.186C459.967 372.497 459.971 372.809 459.971 373.121L459.967 373.709C463.352 453.037 402.938 500.85 346.423 495.552C341.427 494.863 336.549 493.966 331.649 492.753C272.113 478.014 247.118 431.109 242.363 389.6C241.63 383.207 241.378 376.943 241.554 370.943L241.559 370.775L241.596 370.776L241.603 370.593C241.866 364.026 243.203 357.936 245.499 352.344ZM540.035 372.306C540.031 372.577 540.03 372.849 540.03 373.121L540.033 373.709C536.648 453.037 597.062 500.85 653.578 495.552C658.574 494.863 663.451 493.966 668.351 492.753C727.887 478.014 752.883 431.109 757.637 389.6C758.37 383.207 758.623 376.943 758.448 370.943L758.442 370.775L758.404 370.776L758.397 370.593C758.135 364.026 756.797 357.936 754.501 352.344C749.793 340.879 741.056 331.509 729.293 324.419C722.677 320.432 706.699 313.515 688.531 313.515L682.678 313.511C656.442 313.49 613.457 313.456 597.356 316.458C581.748 319.368 576.701 321.487 574.544 322.419C565.36 326.033 557.397 332.072 551.442 339.748L546.288 373.196C544.197 372.874 542.111 372.577 540.035 372.306Z" fill="url(#paint23_radial_1_2)"/>
<path d="M270.709 324.418C277.323 320.432 293.302 313.514 311.469 313.514C313.302 313.514 315.261 313.513 317.323 313.511C343.558 313.49 386.544 313.456 402.645 316.458C418.252 319.368 423.299 321.486 425.458 322.418C445.672 330.374 459.971 350.082 459.971 373.121L459.967 373.709C463.352 453.037 402.94 500.85 346.423 495.552C341.427 494.863 336.549 493.966 331.649 492.753C262.855 475.721 240.18 415.742 241.559 370.766L241.597 370.776C242.338 350.654 253.155 334.998 270.709 324.418Z" fill="url(#paint24_radial_1_2)"/>
<path d="M270.709 324.418C277.323 320.432 293.302 313.514 311.469 313.514C313.302 313.514 315.261 313.513 317.323 313.511C343.558 313.49 386.544 313.456 402.645 316.458C418.252 319.368 423.299 321.486 425.458 322.418C445.672 330.374 459.971 350.082 459.971 373.121L459.967 373.709C463.352 453.037 402.94 500.85 346.423 495.552C341.427 494.863 336.549 493.966 331.649 492.753C262.855 475.721 240.18 415.742 241.559 370.766L241.597 370.776C242.338 350.654 253.155 334.998 270.709 324.418Z" fill="url(#paint25_radial_1_2)"/>
<path d="M270.709 324.418C277.323 320.432 293.302 313.514 311.469 313.514C313.302 313.514 315.261 313.513 317.323 313.511C343.558 313.49 386.544 313.456 402.645 316.458C418.252 319.368 423.299 321.486 425.458 322.418C445.672 330.374 459.971 350.082 459.971 373.121L459.967 373.709C463.352 453.037 402.94 500.85 346.423 495.552C341.427 494.863 336.549 493.966 331.649 492.753C262.855 475.721 240.18 415.742 241.559 370.766L241.597 370.776C242.338 350.654 253.155 334.998 270.709 324.418Z" fill="url(#paint26_radial_1_2)"/>
<path d="M270.709 324.418C277.323 320.432 293.302 313.514 311.469 313.514C313.302 313.514 315.261 313.513 317.323 313.511C343.558 313.49 386.544 313.456 402.645 316.458C418.252 319.368 423.299 321.486 425.458 322.418C445.672 330.374 459.971 350.082 459.971 373.121L459.967 373.709C463.352 453.037 402.94 500.85 346.423 495.552C341.427 494.863 336.549 493.966 331.649 492.753C262.855 475.721 240.18 415.742 241.559 370.766L241.597 370.776C242.338 350.654 253.155 334.998 270.709 324.418Z" fill="url(#paint27_radial_1_2)"/>
<path d="M423.882 402.615C437.868 395.829 442.288 376.068 433.753 358.479C425.218 340.889 406.961 332.132 392.975 338.918C378.988 345.704 374.569 365.465 383.104 383.055C391.638 400.644 409.895 409.402 423.882 402.615Z" fill="url(#paint28_linear_1_2)"/>
<path d="M729.293 324.418C722.677 320.432 706.7 313.514 688.532 313.514C686.699 313.514 684.739 313.513 682.678 313.511C656.442 313.49 613.457 313.456 597.356 316.458C581.748 319.368 576.701 321.486 574.544 322.418C554.328 330.374 540.03 350.082 540.03 373.121L540.033 373.709C536.648 453.037 597.062 500.85 653.578 495.552C658.574 494.863 663.452 493.966 668.351 492.753C737.147 475.721 759.821 415.742 758.442 370.766L758.404 370.776C757.662 350.654 746.847 334.998 729.293 324.418Z" fill="url(#paint29_radial_1_2)"/>
<path d="M729.293 324.418C722.677 320.432 706.7 313.514 688.532 313.514C686.699 313.514 684.739 313.513 682.678 313.511C656.442 313.49 613.457 313.456 597.356 316.458C581.748 319.368 576.701 321.486 574.544 322.418C554.328 330.374 540.03 350.082 540.03 373.121L540.033 373.709C536.648 453.037 597.062 500.85 653.578 495.552C658.574 494.863 663.452 493.966 668.351 492.753C737.147 475.721 759.821 415.742 758.442 370.766L758.404 370.776C757.662 350.654 746.847 334.998 729.293 324.418Z" fill="url(#paint30_radial_1_2)"/>
<path d="M729.293 324.418C722.677 320.432 706.7 313.514 688.532 313.514C686.699 313.514 684.739 313.513 682.678 313.511C656.442 313.49 613.457 313.456 597.356 316.458C581.748 319.368 576.701 321.486 574.544 322.418C554.328 330.374 540.03 350.082 540.03 373.121L540.033 373.709C536.648 453.037 597.062 500.85 653.578 495.552C658.574 494.863 663.452 493.966 668.351 492.753C737.147 475.721 759.821 415.742 758.442 370.766L758.404 370.776C757.662 350.654 746.847 334.998 729.293 324.418Z" fill="url(#paint31_radial_1_2)"/>
<path d="M729.293 324.418C722.677 320.432 706.7 313.514 688.532 313.514C686.699 313.514 684.739 313.513 682.678 313.511C656.442 313.49 613.457 313.456 597.356 316.458C581.748 319.368 576.701 321.486 574.544 322.418C554.328 330.374 540.03 350.082 540.03 373.121L540.033 373.709C536.648 453.037 597.062 500.85 653.578 495.552C658.574 494.863 663.452 493.966 668.351 492.753C737.147 475.721 759.821 415.742 758.442 370.766L758.404 370.776C757.662 350.654 746.847 334.998 729.293 324.418Z" fill="url(#paint32_radial_1_2)"/>
<path d="M725.945 402.615C739.932 395.829 744.351 376.068 735.816 358.479C727.282 340.889 709.025 332.132 695.038 338.918C681.052 345.704 676.632 365.465 685.167 383.055C693.702 400.644 711.959 409.402 725.945 402.615Z" fill="url(#paint33_linear_1_2)"/>
<defs>
<filter id="filter0_i_1_2" x="78.184" y="59.3589" width="846.61" height="880.569" filterUnits="userSpaceOnUse" color-interpolation-filters="sRGB">
<feFlood flood-opacity="0" result="BackgroundImageFix"/>
<feBlend mode="normal" in="SourceGraphic" in2="BackgroundImageFix" result="shape"/>
<feColorMatrix in="SourceAlpha" type="matrix" values="0 0 0 0 0 0 0 0 0 0 0 0 0 0 0 0 0 0 127 0" result="hardAlpha"/>
<feOffset dx="0.711132" dy="-0.711132"/>
<feGaussianBlur stdDeviation="0.711132"/>
<feComposite in2="hardAlpha" operator="arithmetic" k2="-1" k3="1"/>
<feColorMatrix type="matrix" values="0 0 0 0 0.85098 0 0 0 0 0.447059 0 0 0 0 0.196078 0 0 0 1 0"/>
<feBlend mode="normal" in2="shape" result="effect1_innerShadow_1_2"/>
</filter>
<filter id="filter1_d_1_2" x="163.71" y="163.483" width="673.14" height="673.143" filterUnits="userSpaceOnUse" color-interpolation-filters="sRGB">
<feFlood flood-opacity="0" result="BackgroundImageFix"/>
<feColorMatrix in="SourceAlpha" type="matrix" values="0 0 0 0 0 0 0 0 0 0 0 0 0 0 0 0 0 0 127 0" result="hardAlpha"/>
<feOffset dx="-0.853358" dy="0.853358"/>
<feGaussianBlur stdDeviation="0.426679"/>
<feComposite in2="hardAlpha" operator="out"/>
<feColorMatrix type="matrix" values="0 0 0 0 0.921569 0 0 0 0 0.47451 0 0 0 0 0.133333 0 0 0 1 0"/>
<feBlend mode="normal" in2="BackgroundImageFix" result="effect1_dropShadow_1_2"/>
<feBlend mode="normal" in="SourceGraphic" in2="effect1_dropShadow_1_2" result="shape"/>
</filter>
<filter id="filter2_f_1_2" x="200.648" y="424.197" width="187.844" height="187.845" filterUnits="userSpaceOnUse" color-interpolation-filters="sRGB">
<feFlood flood-opacity="0" result="BackgroundImageFix"/>
<feBlend mode="normal" in="SourceGraphic" in2="BackgroundImageFix" result="shape"/>
<feGaussianBlur stdDeviation="0.711132" result="effect1_foregroundBlur_1_2"/>
</filter>
<filter id="filter3_f_1_2" x="613.775" y="424.197" width="187.845" height="187.845" filterUnits="userSpaceOnUse" color-interpolation-filters="sRGB">
<feFlood flood-opacity="0" result="BackgroundImageFix"/>
<feBlend mode="normal" in="SourceGraphic" in2="BackgroundImageFix" result="shape"/>
<feGaussianBlur stdDeviation="0.711132" result="effect1_foregroundBlur_1_2"/>
</filter>
<filter id="filter4_f_1_2" x="337.681" y="557.044" width="326.906" height="107.143" filterUnits="userSpaceOnUse" color-interpolation-filters="sRGB">
<feFlood flood-opacity="0" result="BackgroundImageFix"/>
<feBlend mode="normal" in="SourceGraphic" in2="BackgroundImageFix" result="shape"/>
<feGaussianBlur stdDeviation="0.711132" result="effect1_foregroundBlur_1_2"/>
</filter>
<filter id="filter5_i_1_2" x="347.069" y="546.155" width="324.775" height="105.01" filterUnits="userSpaceOnUse" color-interpolation-filters="sRGB">
<feFlood flood-opacity="0" result="BackgroundImageFix"/>
<feBlend mode="normal" in="SourceGraphic" in2="BackgroundImageFix" result="shape"/>
<feColorMatrix in="SourceAlpha" type="matrix" values="0 0 0 0 0 0 0 0 0 0 0 0 0 0 0 0 0 0 127 0" result="hardAlpha"/>
<feOffset dx="0.711132" dy="-0.711132"/>
<feGaussianBlur stdDeviation="1.42226"/>
<feComposite in2="hardAlpha" operator="arithmetic" k2="-1" k3="1"/>
<feColorMatrix type="matrix" values="0 0 0 0 0.203922 0 0 0 0 0.168627 0 0 0 0 0.180392 0 0 0 1 0"/>
<feBlend mode="normal" in2="shape" result="effect1_innerShadow_1_2"/>
</filter>
<filter id="filter6_f_1_2" x="369.036" y="568.484" width="279.052" height="60.9671" filterUnits="userSpaceOnUse" color-interpolation-filters="sRGB">
<feFlood flood-opacity="0" result="BackgroundImageFix"/>
<feBlend mode="normal" in="SourceGraphic" in2="BackgroundImageFix" result="shape"/>
<feGaussianBlur stdDeviation="0.853358" result="effect1_foregroundBlur_1_2"/>
</filter>
<filter id="filter7_f_1_2" x="291.375" y="356.971" width="160.446" height="87.3996" filterUnits="userSpaceOnUse" color-interpolation-filters="sRGB">
<feFlood flood-opacity="0" result="BackgroundImageFix"/>
<feBlend mode="normal" in="SourceGraphic" in2="BackgroundImageFix" result="shape"/>
<feGaussianBlur stdDeviation="0.568905" result="effect1_foregroundBlur_1_2"/>
</filter>
<filter id="filter8_f_1_2" x="561.981" y="356.971" width="160.445" height="87.3996" filterUnits="userSpaceOnUse" color-interpolation-filters="sRGB">
<feFlood flood-opacity="0" result="BackgroundImageFix"/>
<feBlend mode="normal" in="SourceGraphic" in2="BackgroundImageFix" result="shape"/>
<feGaussianBlur stdDeviation="0.568905" result="effect1_foregroundBlur_1_2"/>
</filter>
<filter id="filter9_i_1_2" x="559.253" y="348.317" width="173.028" height="92.932" filterUnits="userSpaceOnUse" color-interpolation-filters="sRGB">
<feFlood flood-opacity="0" result="BackgroundImageFix"/>
<feBlend mode="normal" in="SourceGraphic" in2="BackgroundImageFix" result="shape"/>
<feColorMatrix in="SourceAlpha" type="matrix" values="0 0 0 0 0 0 0 0 0 0 0 0 0 0 0 0 0 0 127 0" result="hardAlpha"/>
<feOffset dx="1.13781" dy="-0.426679"/>
<feGaussianBlur stdDeviation="0.711132"/>
<feComposite in2="hardAlpha" operator="arithmetic" k2="-1" k3="1"/>
<feColorMatrix type="matrix" values="0 0 0 0 0.298039 0 0 0 0 0.196078 0 0 0 0 0.235294 0 0 0 1 0"/>
<feBlend mode="normal" in2="shape" result="effect1_innerShadow_1_2"/>
</filter>
<filter id="filter10_f_1_2" x="355.692" y="364.967" width="89.02" height="58.5794" filterUnits="userSpaceOnUse" color-interpolation-filters="sRGB">
<feFlood flood-opacity="0" result="BackgroundImageFix"/>
<feBlend mode="normal" in="SourceGraphic" in2="BackgroundImageFix" result="shape"/>
<feGaussianBlur stdDeviation="0.711132" result="effect1_foregroundBlur_1_2"/>
</filter>
<filter id="filter11_f_1_2" x="583.872" y="368.522" width="130.664" height="43.3862" filterUnits="userSpaceOnUse" color-interpolation-filters="sRGB">
<feFlood flood-opacity="0" result="BackgroundImageFix"/>
<feBlend mode="normal" in="SourceGraphic" in2="BackgroundImageFix" result="shape"/>
<feGaussianBlur stdDeviation="0.711132" result="effect1_foregroundBlur_1_2"/>
</filter>
<filter id="filter12_f_1_2" x="263.391" y="311.45" width="497.167" height="226.816" filterUnits="userSpaceOnUse" color-interpolation-filters="sRGB">
<feFlood flood-opacity="0" result="BackgroundImageFix"/>
<feBlend mode="normal" in="SourceGraphic" in2="BackgroundImageFix" result="shape"/>
<feGaussianBlur stdDeviation="1.02887" result="effect1_foregroundBlur_1_2"/>
</filter>
<linearGradient id="paint0_linear_1_2" x1="761.875" y1="207.82" x2="282.187" y2="819.834" gradientUnits="userSpaceOnUse">
<stop stop-color="#FC8B23"/>
<stop offset="1" stop-color="#E67639"/>
</linearGradient>
<radialGradient id="paint1_radial_1_2" cx="0" cy="0" r="1" gradientUnits="userSpaceOnUse" gradientTransform="translate(581.897 100.646) rotate(138.155) scale(118.082 104.185)">
<stop offset="0.300161" stop-color="#FFA13A"/>
<stop offset="1" stop-color="#FFA13A" stop-opacity="0"/>
</radialGradient>
<radialGradient id="paint2_radial_1_2" cx="0" cy="0" r="1" gradientUnits="userSpaceOnUse" gradientTransform="translate(274.672 63.3688) rotate(67.8105) scale(187.723 165.63)">
<stop offset="0.300161" stop-color="#FF942A"/>
<stop offset="1" stop-color="#FF942A" stop-opacity="0"/>
</radialGradient>
<radialGradient id="paint3_radial_1_2" cx="0" cy="0" r="1" gradientUnits="userSpaceOnUse" gradientTransform="translate(778.834 238.503) rotate(-164.745) scale(74.8478 103.637)">
<stop offset="0.300161" stop-color="#FFA13D"/>
<stop offset="1" stop-color="#FFA13D" stop-opacity="0"/>
</radialGradient>
<radialGradient id="paint4_radial_1_2" cx="0" cy="0" r="1" gradientUnits="userSpaceOnUse" gradientTransform="translate(929.819 347.475) rotate(154.195) scale(132.709 98.0153)">
<stop offset="0.300161" stop-color="#FFA13D"/>
<stop offset="1" stop-color="#FFA13D" stop-opacity="0"/>
</radialGradient>
<radialGradient id="paint5_radial_1_2" cx="0" cy="0" r="1" gradientUnits="userSpaceOnUse" gradientTransform="translate(958.703 571.984) rotate(-173.379) scale(148.034 83.4225)">
<stop offset="0.300161" stop-color="#FFA13D"/>
<stop offset="1" stop-color="#FFA13D" stop-opacity="0"/>
</radialGradient>
<radialGradient id="paint6_radial_1_2" cx="0" cy="0" r="1" gradientUnits="userSpaceOnUse" gradientTransform="translate(826.1 743.975) rotate(-43.9639) scale(134.279 129.362)">
<stop stop-color="#E0762A"/>
<stop offset="1" stop-color="#E0762A" stop-opacity="0"/>
</radialGradient>
<radialGradient id="paint7_radial_1_2" cx="0" cy="0" r="1" gradientUnits="userSpaceOnUse" gradientTransform="translate(203.775 712.466) rotate(-127.747) scale(102.945 99.1753)">
<stop stop-color="#E0762A"/>
<stop offset="1" stop-color="#E0762A" stop-opacity="0"/>
</radialGradient>
<radialGradient id="paint8_radial_1_2" cx="0" cy="0" r="1" gradientUnits="userSpaceOnUse" gradientTransform="translate(63.2924 364.544) rotate(25.2777) scale(104.54 126.352)">
<stop stop-color="#F0851D"/>
<stop offset="1" stop-color="#F0851D" stop-opacity="0"/>
</radialGradient>
<radialGradient id="paint9_radial_1_2" cx="0" cy="0" r="1" gradientUnits="userSpaceOnUse" gradientTransform="translate(687.312 893.069) rotate(-142.487) scale(121.883 114.986)">
<stop offset="0.336586" stop-color="#E3745B"/>
<stop offset="0.775" stop-color="#E3745B" stop-opacity="0"/>
</radialGradient>
<radialGradient id="paint10_radial_1_2" cx="0" cy="0" r="1" gradientUnits="userSpaceOnUse" gradientTransform="translate(691.647 304.705) rotate(130.262) scale(546.634 557.028)">
<stop offset="0.715" stop-color="#FFD13D"/>
<stop offset="1" stop-color="#DCA21C"/>
</radialGradient>
<radialGradient id="paint11_radial_1_2" cx="0" cy="0" r="1" gradientUnits="userSpaceOnUse" gradientTransform="translate(294.42 517.982) scale(100.339)">
<stop offset="0.25" stop-color="#ED501F"/>
<stop offset="0.89541" stop-color="#F18A42" stop-opacity="0"/>
</radialGradient>
<radialGradient id="paint12_radial_1_2" cx="0" cy="0" r="1" gradientUnits="userSpaceOnUse" gradientTransform="translate(707.547 517.982) scale(100.339)">
<stop offset="0.130208" stop-color="#FB6738"/>
<stop offset="0.89541" stop-color="#F18A42" stop-opacity="0"/>
</radialGradient>
<linearGradient id="paint13_linear_1_2" x1="347.1" y1="598.866" x2="671.09" y2="598.866" gradientUnits="userSpaceOnUse">
<stop stop-color="#31243C"/>
<stop offset="1" stop-color="#3F2950"/>
</linearGradient>
<linearGradient id="paint14_linear_1_2" x1="671.134" y1="559.747" x2="652.203" y2="577.325" gradientUnits="userSpaceOnUse">
<stop stop-color="#665C6D"/>
<stop offset="1" stop-color="#665C6D" stop-opacity="0"/>
</linearGradient>
<linearGradient id="paint15_linear_1_2" x1="363.934" y1="553.803" x2="508.562" y2="626.891" gradientUnits="userSpaceOnUse">
<stop stop-color="#4E4753"/>
<stop offset="1" stop-color="#4E4753" stop-opacity="0"/>
</linearGradient>
<linearGradient id="paint16_linear_1_2" x1="664.684" y1="549.016" x2="486.531" y2="637.135" gradientUnits="userSpaceOnUse">
<stop offset="0.0897352" stop-color="#5E5468"/>
<stop offset="1" stop-color="#5E5468" stop-opacity="0"/>
</linearGradient>
<linearGradient id="paint17_linear_1_2" x1="289.754" y1="394.963" x2="461.772" y2="394.963" gradientUnits="userSpaceOnUse">
<stop stop-color="#2E2931"/>
<stop offset="1" stop-color="#362A3F"/>
</linearGradient>
<linearGradient id="paint18_linear_1_2" x1="420.519" y1="421.413" x2="345.322" y2="409.85" gradientUnits="userSpaceOnUse">
<stop stop-color="#524D53"/>
<stop offset="1" stop-color="#5C5463" stop-opacity="0"/>
</linearGradient>
<linearGradient id="paint19_linear_1_2" x1="676.531" y1="416.094" x2="565.653" y2="400.122" gradientUnits="userSpaceOnUse">
<stop stop-color="#61556C"/>
<stop offset="1" stop-color="#554A5F"/>
</linearGradient>
<linearGradient id="paint20_linear_1_2" x1="625.985" y1="424.859" x2="361.066" y2="525.892" gradientUnits="userSpaceOnUse">
<stop stop-color="#E78F00"/>
<stop offset="1" stop-color="#D07000"/>
</linearGradient>
<radialGradient id="paint21_radial_1_2" cx="0" cy="0" r="1" gradientUnits="userSpaceOnUse" gradientTransform="translate(596.546 306.891) rotate(78.8614) scale(231.605 479.939)">
<stop stop-color="#5F5B9B"/>
<stop offset="1" stop-color="#5C3085"/>
</radialGradient>
<radialGradient id="paint22_radial_1_2" cx="0" cy="0" r="1" gradientUnits="userSpaceOnUse" gradientTransform="translate(648.65 406.005) rotate(78.0636) scale(103.883 116.702)">
<stop offset="0.776042" stop-color="#77579C"/>
<stop offset="0.9375" stop-color="#77579C" stop-opacity="0"/>
</radialGradient>
<radialGradient id="paint23_radial_1_2" cx="0" cy="0" r="1" gradientUnits="userSpaceOnUse" gradientTransform="translate(610.675 386.957) rotate(-122.735) scale(88.1827 64.731)">
<stop offset="0.769354" stop-color="#4E3D92"/>
<stop offset="1" stop-color="#534687" stop-opacity="0"/>
</radialGradient>
<radialGradient id="paint24_radial_1_2" cx="0" cy="0" r="1" gradientUnits="userSpaceOnUse" gradientTransform="translate(399.92 369.294) rotate(121.845) scale(111.577 126.754)">
<stop stop-color="#4C3D70"/>
<stop offset="1" stop-color="#361C5D"/>
</radialGradient>
<radialGradient id="paint25_radial_1_2" cx="0" cy="0" r="1" gradientUnits="userSpaceOnUse" gradientTransform="translate(376.963 372.238) rotate(87.1376) scale(141.467 210.069)">
<stop offset="0.647365" stop-color="#5B2B84" stop-opacity="0"/>
<stop offset="1" stop-color="#5B2B84"/>
</radialGradient>
<radialGradient id="paint26_radial_1_2" cx="0" cy="0" r="1" gradientUnits="userSpaceOnUse" gradientTransform="translate(345.172 514.706) rotate(-99.5134) scale(217.278 215.168)">
<stop offset="0.858612" stop-color="#2E1D57" stop-opacity="0"/>
<stop offset="1" stop-color="#20143D"/>
</radialGradient>
<radialGradient id="paint27_radial_1_2" cx="0" cy="0" r="1" gradientUnits="userSpaceOnUse" gradientTransform="translate(363.422 358.109) rotate(102.225) scale(144.569 135.68)">
<stop offset="0.872281" stop-color="#2E1D57" stop-opacity="0"/>
<stop offset="1" stop-color="#20143D" stop-opacity="0.6"/>
</radialGradient>
<linearGradient id="paint28_linear_1_2" x1="408.428" y1="342.552" x2="410.813" y2="407.604" gradientUnits="userSpaceOnUse">
<stop stop-color="white"/>
<stop offset="0.973958" stop-color="white" stop-opacity="0"/>
</linearGradient>
<radialGradient id="paint29_radial_1_2" cx="0" cy="0" r="1" gradientUnits="userSpaceOnUse" gradientTransform="translate(663.073 361.641) rotate(121.289) scale(124.691 187.297)">
<stop stop-color="#4C3D70"/>
<stop offset="1" stop-color="#361C5D"/>
</radialGradient>
<radialGradient id="paint30_radial_1_2" cx="0" cy="0" r="1" gradientUnits="userSpaceOnUse" gradientTransform="translate(623.039 372.238) rotate(92.8624) scale(141.467 210.069)">
<stop offset="0.647365" stop-color="#5B2B84" stop-opacity="0"/>
<stop offset="1" stop-color="#5B2B84"/>
</radialGradient>
<radialGradient id="paint31_radial_1_2" cx="0" cy="0" r="1" gradientUnits="userSpaceOnUse" gradientTransform="translate(649.198 489.392) rotate(-77.6023) scale(193.489 191.609)">
<stop offset="0.858612" stop-color="#2E1D57" stop-opacity="0"/>
<stop offset="1" stop-color="#20143D"/>
</radialGradient>
<radialGradient id="paint32_radial_1_2" cx="0" cy="0" r="1" gradientUnits="userSpaceOnUse" gradientTransform="translate(636.578 358.109) rotate(77.7749) scale(144.569 135.68)">
<stop offset="0.872281" stop-color="#2E1D57" stop-opacity="0"/>
<stop offset="1" stop-color="#20143D" stop-opacity="0.6"/>
</radialGradient>
<linearGradient id="paint33_linear_1_2" x1="710.492" y1="342.552" x2="712.877" y2="407.604" gradientUnits="userSpaceOnUse">
<stop stop-color="white"/>
<stop offset="0.973958" stop-color="white" stop-opacity="0"/>
</linearGradient>
</defs>
</svg>
