<svg width="1001" height="896" viewBox="0 0 1001 896" fill="none" xmlns="http://www.w3.org/2000/svg">
<path d="M917.588 630.084C917.556 630.043 917.528 630.014 917.494 629.976C918.959 624.988 920.471 620.032 921.754 614.919C976.73 395.834 842.554 136.816 615.5 0.435486C715 135.352 758.995 298.767 719.907 441.677C716.421 454.424 712.23 466.657 707.598 478.547C702.571 475.244 696.237 471.494 687.73 466.802C687.73 466.802 461.872 327.317 217.078 80.6016C210.655 74.1255 347.612 276.399 503.043 440.651C429.814 399.544 225.734 251.024 96.538 132.749C112.411 159.226 131.29 184.722 152.043 209.267C259.933 346.125 400.635 514.985 569.202 644.651C450.765 717.147 283.411 722.784 116.784 644.726C75.5711 625.408 36.8266 602.098 0.961426 575.614C71.4941 688.459 180.125 785.82 312.338 842.659C470.008 910.433 626.799 905.837 743.577 843.77L743.485 843.904C744.018 843.567 744.696 843.199 745.249 842.857C750.044 840.279 754.804 837.653 759.458 834.88C815.566 805.75 926.388 776.196 985.872 891.962C1000.44 920.293 1031.4 770.151 917.588 630.084Z" fill="#F05138"/>
</svg>
